<svg xmlns="http://www.w3.org/2000/svg" style="display: none;"><symbol id="acondicionador-de-aire" viewBox="0 -36 480 480"><title>acondicionador-de-aire</title><linearGradient id="a"><stop offset="0" stop-color="#84aa50"/><stop offset="1" stop-color="#00acc9"/></linearGradient><linearGradient id="b" gradientUnits="userSpaceOnUse" x1="-16" x2="482.32" xlink:href="#a" y1="96" y2="96"/><linearGradient id="c" gradientUnits="userSpaceOnUse" x1="-16" x2="482.32" xlink:href="#a" y1="104" y2="104"/><linearGradient id="d" gradientUnits="userSpaceOnUse" x1="-16" x2="482.32" xlink:href="#a" y1="260" y2="260"/><linearGradient id="e" gradientUnits="userSpaceOnUse" x1="-16" x2="482.32" xlink:href="#a" y1="356" y2="356"/><linearGradient id="f" gradientUnits="userSpaceOnUse" x1="-16" x2="482.32" xlink:href="#a" y1="264" y2="264"/><linearGradient id="g" gradientUnits="userSpaceOnUse" x1="-16" x2="482.32" xlink:href="#a" y1="296" y2="296"/><linearGradient id="h" gradientUnits="userSpaceOnUse" x1="-16" x2="482.32" xlink:href="#a" y1="280" y2="280"/><linearGradient id="i" gradientUnits="userSpaceOnUse" x1="-16" x2="482.32" xlink:href="#a" y1="216" y2="216"/><linearGradient id="j" gradientUnits="userSpaceOnUse" x1="-16" x2="482.32" xlink:href="#a" y1="336" y2="336"/><linearGradient id="k" gradientUnits="userSpaceOnUse" x1="-16" x2="482.32" xlink:href="#a" y1="328" y2="328"/><linearGradient id="l" gradientUnits="userSpaceOnUse" x1="-16" x2="482.32" xlink:href="#a" y1="320" y2="320"/><linearGradient id="m" gradientUnits="userSpaceOnUse" x1="-16" x2="482.32" xlink:href="#a" y1="120" y2="120"/><path d="m0 160h16v32h448v-32h16v-160h-480zm448 16h-416v-16h416zm-432-160h448v128h-448zm0 0" fill="url(#b)"/><path d="m440 80h-80c-4.417969 0-8 3.582031-8 8v32c0 4.417969 3.582031 8 8 8h80c4.417969 0 8-3.582031 8-8v-32c0-4.417969-3.582031-8-8-8zm-8 32h-64v-16h64zm0 0" fill="url(#c)"/><path d="m226.71875 304c0 4.417969 3.582031 8 8 8s8-3.582031 8-8c-.0625-3.691406 1.289062-7.269531 3.777344-10 9.042968-11.3125 9.042968-27.382812 0-38.695312-5.050782-5.710938-5.050782-14.289063 0-20 4.449218-5.441407 6.851562-12.273438 6.785156-19.304688 0-4.417969-3.582031-8-8-8s-8 3.582031-8 8c.0625 3.683594-1.289062 7.25-3.777344 9.96875-9.046875 11.304688-9.046875 27.371094 0 38.679688 5.027344 5.71875 5.027344 14.28125 0 20-4.457031 5.457031-6.859375 12.304687-6.785156 19.351562zm0 0" fill="url(#d)"/><path d="m34.71875 304c0 4.417969 3.582031 8 8 8s8-3.582031 8-8c-.0625-3.691406 1.289062-7.269531 3.777344-10 9.042968-11.3125 9.042968-27.382812 0-38.695312-5.050782-5.710938-5.050782-14.289063 0-20 4.449218-5.441407 6.851562-12.273438 6.785156-19.304688 0-4.417969-3.582031-8-8-8s-8 3.582031-8 8c.0625 3.683594-1.289062 7.25-3.777344 9.96875-9.046875 11.304688-9.046875 27.371094 0 38.679688 5.027344 5.71875 5.027344 14.28125 0 20-4.457031 5.457031-6.859375 12.304687-6.785156 19.351562zm0 0" fill="url(#d)"/><path d="m98.71875 400c0 4.417969 3.582031 8 8 8s8-3.582031 8-8c-.0625-3.691406 1.289062-7.269531 3.777344-10 9.042968-11.3125 9.042968-27.382812 0-38.695312-5.050782-5.710938-5.050782-14.289063 0-20 4.449218-5.441407 6.851562-12.273438 6.785156-19.304688 0-4.417969-3.582031-8-8-8s-8 3.582031-8 8c.0625 3.683594-1.289062 7.25-3.777344 9.96875-9.046875 11.304688-9.046875 27.371094 0 38.679688 5.027344 5.71875 5.027344 14.28125 0 20-4.457031 5.457031-6.859375 12.304687-6.785156 19.351562zm0 0" fill="url(#e)"/><path d="m354.71875 400c0 4.417969 3.582031 8 8 8s8-3.582031 8-8c-.0625-3.691406 1.289062-7.269531 3.777344-10 9.042968-11.3125 9.042968-27.382812 0-38.695312-5.050782-5.710938-5.050782-14.289063 0-20 4.449218-5.441407 6.851562-12.273438 6.785156-19.304688 0-4.417969-3.582031-8-8-8s-8 3.582031-8 8c.0625 3.683594-1.289062 7.25-3.777344 9.96875-9.046875 11.304688-9.046875 27.371094 0 38.679688 5.027344 5.71875 5.027344 14.28125 0 20-4.457031 5.457031-6.859375 12.304687-6.785156 19.351562zm0 0" fill="url(#e)"/><path d="m168 256h16v16h-16zm0 0" fill="url(#f)"/><path d="m168 288h16v16h-16zm0 0" fill="url(#g)"/><path d="m152 272h16v16h-16zm0 0" fill="url(#h)"/><path d="m184 272h16v16h-16zm0 0" fill="url(#h)"/><path d="m418.71875 304c0 4.417969 3.582031 8 8 8s8-3.582031 8-8c-.0625-3.691406 1.289062-7.269531 3.777344-10 9.042968-11.3125 9.042968-27.382812 0-38.695312-5.050782-5.710938-5.050782-14.289063 0-20 4.449218-5.441407 6.851562-12.273438 6.785156-19.304688 0-4.417969-3.582031-8-8-8s-8 3.582031-8 8c.0625 3.683594-1.289062 7.25-3.777344 9.96875-9.046875 11.304688-9.046875 27.371094 0 38.679688 5.027344 5.71875 5.027344 14.28125 0 20-4.457031 5.457031-6.859375 12.304687-6.785156 19.351562zm0 0" fill="url(#d)"/><path d="m296 256h16v16h-16zm0 0" fill="url(#f)"/><path d="m296 288h16v16h-16zm0 0" fill="url(#g)"/><path d="m312 272h16v16h-16zm0 0" fill="url(#h)"/><path d="m280 272h16v16h-16zm0 0" fill="url(#h)"/><path d="m296.078125 216c0-4.417969-3.578125-8-8-8h-.078125c-4.40625.042969-7.949219 3.644531-7.917969 8.054688.027344 4.40625 3.617188 7.960937 8.023438 7.945312 4.410156-.015625 7.972656-3.59375 7.972656-8zm0 0" fill="url(#i)"/><path d="m184.078125 216c0-4.417969-3.578125-8-8-8h-.078125c-4.40625.042969-7.949219 3.644531-7.917969 8.054688.027344 4.40625 3.617188 7.960937 8.023438 7.945312 4.410156-.015625 7.972656-3.59375 7.972656-8zm0 0" fill="url(#i)"/><path d="m16.078125 344c4.421875 0 8-3.582031 8-8s-3.578125-8-8-8h-.078125c-4.417969.023438-7.980469 3.621094-7.960938 8.039062.023438 4.417969 3.621094 7.984376 8.039063 7.960938zm0 0" fill="url(#j)"/><path d="m472.078125 328c0-4.417969-3.578125-8-8-8h-.078125c-4.40625.042969-7.949219 3.644531-7.917969 8.054688.027344 4.40625 3.617188 7.960937 8.023438 7.945312 4.410156-.015625 7.972656-3.59375 7.972656-8zm0 0" fill="url(#k)"/><path d="m272.078125 320c0-4.417969-3.578125-8-8-8h-.078125c-4.40625.042969-7.949219 3.644531-7.917969 8.054688.027344 4.40625 3.617188 7.960937 8.023438 7.945312 4.410156-.015625 7.972656-3.59375 7.972656-8zm0 0" fill="url(#l)"/><g fill="url(#m)"><path d="m120 112h-80c-4.417969 0-8 3.582031-8 8s3.582031 8 8 8h80c4.417969 0 8-3.582031 8-8s-3.582031-8-8-8zm0 0"/><path d="m184 112h-32c-4.417969 0-8 3.582031-8 8s3.582031 8 8 8h32c4.417969 0 8-3.582031 8-8s-3.582031-8-8-8zm0 0"/><path d="m328 112h-32c-4.417969 0-8 3.582031-8 8s3.582031 8 8 8h32c4.417969 0 8-3.582031 8-8s-3.582031-8-8-8zm0 0"/></g></symbol><symbol id="enrutador" viewBox="0 0 480 480.128"><title>enrutador</title><linearGradient id="a"><stop offset="0" stop-color="#006df0"/><stop offset="1" stop-color="#00e7f0"/></linearGradient><linearGradient id="b" gradientUnits="userSpaceOnUse" x1="238.112" x2="244.696" xlink:href="#a" y1="520.936" y2="-21.24"/><linearGradient id="c" gradientUnits="userSpaceOnUse" x1="338.096" x2="344.68" xlink:href="#a" y1="522.152" y2="-20.024"/><linearGradient id="d" gradientUnits="userSpaceOnUse" x1="38.144" x2="44.728" xlink:href="#a" y1="518.512" y2="-23.664"/><linearGradient id="e" gradientUnits="userSpaceOnUse" x1="70.136" x2="76.72" xlink:href="#a" y1="518.896" y2="-23.28"/><linearGradient id="f" gradientUnits="userSpaceOnUse" x1="102.128" x2="108.72" xlink:href="#a" y1="519.288" y2="-22.888"/><linearGradient id="g" gradientUnits="userSpaceOnUse" x1="134.128" x2="140.712" xlink:href="#a" y1="519.672" y2="-22.496"/><linearGradient id="h" gradientUnits="userSpaceOnUse" x1="166.12" x2="172.704" xlink:href="#a" y1="520.064" y2="-22.112"/><linearGradient id="i" gradientUnits="userSpaceOnUse" x1="198.12" x2="204.704" xlink:href="#a" y1="520.456" y2="-21.72"/><linearGradient id="j" gradientUnits="userSpaceOnUse" x1="344.784" x2="351.368" xlink:href="#a" y1="522.232" y2="-19.944"/><linearGradient id="k" gradientUnits="userSpaceOnUse" x1="317.624" x2="324.208" xlink:href="#a" y1="521.904" y2="-20.272"/><linearGradient id="l" gradientUnits="userSpaceOnUse" x1="290.456" x2="297.048" xlink:href="#a" y1="521.576" y2="-20.6"/><linearGradient id="m" gradientUnits="userSpaceOnUse" x1="117.024" x2="123.608" xlink:href="#a" y1="519.464" y2="-22.704"/><linearGradient id="n" gradientUnits="userSpaceOnUse" x1="144.192" x2="150.776" xlink:href="#a" y1="519.8" y2="-22.376"/><linearGradient id="o" gradientUnits="userSpaceOnUse" x1="171.352" x2="177.936" xlink:href="#a" y1="520.128" y2="-22.048"/><path d="m480.0625 304.128906h-16v-8c0-13.253906-10.742188-24-24-24h-176v-168c0-13.253906-10.742188-24-24-24-13.253906 0-24 10.746094-24 24v168h-176c-13.253906 0-24 10.746094-24 24v8h-16v112h16v8c0 13.253906 10.746094 24 24 24h16v32h64v-32h240v32h64v-32h16c13.257812 0 24-10.746094 24-24v-8h16zm-248-200c0-4.417968 3.582031-8 8-8s8 3.582032 8 8v168h-16zm-200 192c0-4.417968 3.582031-8 8-8h400c4.417969 0 8 3.582032 8 8v8h-416zm72 168h-32v-16h32zm304 0h-32v-16h32zm40-40c0 4.417969-3.582031 8-8 8h-400c-4.417969 0-8-3.582031-8-8v-8h416zm16-24h-448v-80h448zm0 0" fill="url(#b)"/><path d="m456.0625 328.128906h-232v64h232zm-16 48h-200v-32h200zm0 0" fill="url(#c)"/><path d="m32.0625 336.128906h16v48h-16zm0 0" fill="url(#d)"/><path d="m64.0625 336.128906h16v48h-16zm0 0" fill="url(#e)"/><path d="m96.0625 336.128906h16v48h-16zm0 0" fill="url(#f)"/><path d="m128.0625 336.128906h16v48h-16zm0 0" fill="url(#g)"/><path d="m160.0625 336.128906h16v48h-16zm0 0" fill="url(#h)"/><path d="m192.0625 336.128906h16v48h-16zm0 0" fill="url(#i)"/><path d="m336.207031 192.257812-11.34375-11.328124c22.507813-22.484376 35.152344-52.992188 35.152344-84.800782 0-31.8125-12.644531-62.320312-35.152344-84.800781l11.328125-11.296875c25.515625 25.484375 39.855469 60.066406 39.855469 96.128906s-14.339844 70.644532-39.855469 96.128906zm0 0" fill="url(#j)"/><path d="m313.550781 169.632812-11.285156-11.335937c16.515625-16.472656 25.796875-38.839844 25.796875-62.167969s-9.28125-45.695312-25.796875-62.167968l11.285156-11.335938c19.535157 19.472656 30.511719 45.921875 30.511719 73.503906 0 27.582032-10.976562 54.027344-30.511719 73.503906zm0 0" fill="url(#k)"/><path d="m291.023438 147.046875-11.359376-11.269531c21.867188-21.910156 21.867188-57.386719 0-79.296875l11.359376-11.273438c28.054687 28.152344 28.054687 73.691407 0 101.839844zm0 0" fill="url(#l)"/><path d="m135.921875 192.257812c-25.519531-25.484374-39.855469-60.066406-39.855469-96.128906s14.335938-70.644531 39.855469-96.128906l11.34375 11.328125c-22.527344 22.484375-35.183594 53.003906-35.183594 84.832031s12.65625 62.347656 35.183594 84.832032zm0 0" fill="url(#m)"/><path d="m158.574219 169.632812c-19.53125-19.476562-30.511719-45.921874-30.511719-73.503906 0-27.582031 10.980469-54.03125 30.511719-73.503906l11.289062 11.335938c-16.515625 16.472656-25.800781 38.839843-25.800781 62.167968s9.285156 45.695313 25.800781 62.167969zm0 0" fill="url(#n)"/><path d="m181.105469 147.046875c-28.054688-28.148437-28.054688-73.6875 0-101.839844l11.359375 11.273438c-21.867188 21.910156-21.867188 57.386719 0 79.296875zm0 0" fill="url(#o)"/></symbol><symbol id="vaso-desechable" viewBox="-48 0 480 480.00001"><title>vaso-desechable</title><linearGradient id="a"><stop offset="0" stop-color="#039bca"/><stop offset=".207" stop-color="#3a7ac4"/><stop offset=".598" stop-color="#9c3fb9"/><stop offset=".871" stop-color="#da1ab2"/><stop offset="1" stop-color="#f20baf"/></linearGradient><linearGradient id="b" gradientUnits="userSpaceOnUse" x1="-39.999995" x2="429.552005" xlink:href="#a" y1="240" y2="240"/><linearGradient id="c" gradientUnits="userSpaceOnUse" x1="-39.999995" x2="429.552005" xlink:href="#a" y1="304" y2="304"/><linearGradient id="d" gradientUnits="userSpaceOnUse" x1="-39.999995" x2="429.552005" xlink:href="#a" y1="96" y2="96"/><linearGradient id="e" gradientUnits="userSpaceOnUse" x1="-39.999995" x2="429.552005" xlink:href="#a" y1="176" y2="176"/><linearGradient id="f" gradientUnits="userSpaceOnUse" x1="-39.999995" x2="429.552005" xlink:href="#a" y1="432" y2="432"/><path d="m24 0v48h-24v96h24.839844l6.222656 56h-7.757812l17.335937 208h8.199219l5.046875 45.472656c1.667969 15.109375 14.441406 26.542969 29.640625 26.527344h216.945312c15.1875-.003906 27.9375-11.433594 29.597656-26.527344l5.128907-45.472656h8.160156l17.335937-208h-7.757812l6.222656-56h24.839844v-96h-24v-48zm16 16h304v32h-304zm277.28125 408h-85.28125c-4.417969 0-8 3.582031-8 8s3.582031 8 8 8h83.503906l-1.304687 11.703125c-.765625 7.003906-6.683594 12.300781-13.726563 12.296875h-216.945312c-7.042969.003906-12.960938-5.296875-13.734375-12.296875l-4.855469-43.703125h254.125zm11.359375-32h-273.28125l-14.664063-176h302.609376zm-200.640625-224h-84.390625l-2.671875-24h302.125l-6.222656 56h-289.640625l-1.773438-16h82.574219c4.417969 0 8-3.582031 8-8s-3.582031-8-8-8zm240-104v24h-168v16h168v24h-352v-24h72v-16h-72v-24zm0 0" fill="url(#b)"/><path d="m182.503906 374.894531c3.117188.710938 6.300782 1.082031 9.496094 1.105469 30.878906 0 56-32.304688 56-72 0-35.289062-19.617188-65.121094-46.648438-70.929688-3.070312-.6875-6.203124-1.046874-9.351562-1.070312-30.878906 0-56 32.304688-56 72 0 35.199219 19.558594 65.023438 46.503906 70.894531zm21.953125-124c16.078125 7.503907 27.542969 28.890625 27.542969 53.105469 0 29.808594-16.726562 54.257812-37.726562 55.910156l13.488281-53.964844c.597656-2.390624.0625-4.925781-1.453125-6.867187-1.519532-1.941406-3.84375-3.078125-6.308594-3.078125h-12.457031zm-16.089843-2.664062-19.863282 52.960937c-.921875 2.457032-.578125 5.210938.917969 7.367188s3.953125 3.441406 6.578125 3.441406h13.753906l-11.160156 44.648438c-15.578125-7.847657-26.59375-28.929688-26.59375-52.648438 0-29.160156 16-53.191406 36.367188-55.769531zm0 0" fill="url(#c)"/><g fill="url(#d)"><path d="m104 88h16v16h-16zm0 0"/><path d="m136 88h16v16h-16zm0 0"/><path d="m168 88h16v16h-16zm0 0"/></g><path d="m160 184h.078125c4.433594-.023438 8.011719-3.628906 8-8.058594-.007813-4.433594-3.605469-8.019531-8.039063-8.019531-4.429687 0-8.027343 3.585937-8.039062 8.019531-.011719 4.429688 3.566406 8.035156 8 8.058594zm0 0" fill="url(#e)"/><path d="m200.078125 440c4.421875 0 8-3.582031 8-8s-3.578125-8-8-8h-.078125c-4.417969.023438-7.980469 3.621094-7.960938 8.039062.023438 4.417969 3.621094 7.984376 8.039063 7.960938zm0 0" fill="url(#f)"/></symbol><symbol id="comida-y-restaurante" viewBox="-80 0 480 480"><title>comida-y-restaurante</title><linearGradient id="a"><stop offset="0" stop-color="#006df0"/><stop offset="1" stop-color="#00e7f0"/></linearGradient><linearGradient id="b" gradientUnits="userSpaceOnUse" x1="120.12" x2="172.8" xlink:href="#a" y1="496.128" y2="-21.904"/><linearGradient id="c" gradientUnits="userSpaceOnUse" x1="104.288" x2="156.968" xlink:href="#a" y1="494.52" y2="-23.512"/><linearGradient id="d" gradientUnits="userSpaceOnUse" x1="238.896" x2="291.576" xlink:href="#a" y1="508.208" y2="-9.824"/><linearGradient id="e" gradientUnits="userSpaceOnUse" x1="140.256" x2="192.936" xlink:href="#a" y1="498.176" y2="-19.856"/><linearGradient id="f" gradientUnits="userSpaceOnUse" x1="138.104" x2="190.784" xlink:href="#a" y1="497.96" y2="-20.072"/><linearGradient id="g" gradientUnits="userSpaceOnUse" x1="225.208" x2="277.888" xlink:href="#a" y1="506.816" y2="-11.216"/><path d="m320 64h-26.457031l-24-64h-219.085938l-24 64h-26.457031v80h24.550781l24 336h222.898438l24-336h24.550781zm-258.457031-48h196.914062l18 48h-232.914062zm1.90625 448-4.578125-64h202.257812l-4.578125 64zm198.816406-80h-204.53125l-11.429687-160h227.390624zm12.566406-176h-229.664062l-4.574219-64h238.8125zm29.167969-80h-288v-48h288zm0 0" fill="url(#b)"/><path d="m32 96h224v16h-224zm0 0" fill="url(#c)"/><path d="m272 96h16v16h-16zm0 0" fill="url(#d)"/><path d="m160 248c-30.929688 0-56 25.070312-56 56s25.070312 56 56 56 56-25.070312 56-56c-.035156-30.914062-25.085938-55.964844-56-56zm0 96c-22.089844 0-40-17.910156-40-40s17.910156-40 40-40 40 17.910156 40 40c-.027344 22.082031-17.917969 39.972656-40 40zm0 0" fill="url(#e)"/><path d="m80 432h128v16h-128zm0 0" fill="url(#f)"/><path d="m224 432h16v16h-16zm0 0" fill="url(#g)"/></symbol><symbol id="proyector" viewBox="0 0 480.0098 480"><title>proyector</title><linearGradient id="a"><stop offset="0" stop-color="#4761ac"/><stop offset="1" stop-color="#54c2ef"/></linearGradient><linearGradient id="b" gradientUnits="userSpaceOnUse" x1="-8" x2="472.264" xlink:href="#a" y1="271.623057" y2="271.623057"/><linearGradient id="c" gradientUnits="userSpaceOnUse" x1="-8" x2="472.264" xlink:href="#a" y1="239.623057" y2="239.623057"/><linearGradient id="d" gradientUnits="userSpaceOnUse" x1="-8" x2="472.264" xlink:href="#a" y1="351.623057" y2="351.623057"/><linearGradient id="e" gradientUnits="userSpaceOnUse" x1="-8" x2="472.264" xlink:href="#a" y1="103.751057" y2="103.751057"/><linearGradient id="f" gradientUnits="userSpaceOnUse" x1="-8" x2="472.264" xlink:href="#a" y1="67.767057" y2="67.767057"/><linearGradient id="g" gradientUnits="userSpaceOnUse" x1="-8" x2="472.264" xlink:href="#a" y1="36.263057" y2="36.263057"/><linearGradient id="h" gradientUnits="userSpaceOnUse" x1="-8" x2="472" xlink:href="#a" y1="311.623057" y2="311.623057"/><path d="m296 359.625c48.601562 0 88-39.402344 88-88 0-48.601562-39.398438-88-88-88s-88 39.398438-88 88c.058594 48.574219 39.421875 87.941406 88 88zm0-160c39.765625 0 72 32.234375 72 72 0 39.761719-32.234375 72-72 72s-72-32.238281-72-72c.042969-39.75 32.253906-71.957031 72-72zm0 0" fill="url(#b)"/><path d="m264 255.625c4.417969 0 8-3.582031 8-8-.207031-2.195312.578125-4.367188 2.144531-5.917969 1.566407-1.550781 3.746094-2.316406 5.933594-2.082031 4.421875-.023438 7.984375-3.625 7.960937-8.042969-.019531-4.417969-3.621093-7.980469-8.039062-7.957031-6.421875-.191406-12.636719 2.277344-17.175781 6.820312-4.542969 4.542969-7.011719 10.757813-6.824219 17.179688 0 4.417969 3.582031 8 8 8zm0 0" fill="url(#c)"/><g fill="url(#d)"><path d="m72 303.625c-4.417969 0-8 3.578125-8 8v80c0 4.417969 3.582031 8 8 8s8-3.582031 8-8v-80c0-4.421875-3.582031-8-8-8zm0 0"/><path d="m104 303.625c-4.417969 0-8 3.578125-8 8v80c0 4.417969 3.582031 8 8 8s8-3.582031 8-8v-80c0-4.421875-3.582031-8-8-8zm0 0"/><path d="m136 303.625c-4.417969 0-8 3.578125-8 8v80c0 4.417969 3.582031 8 8 8s8-3.582031 8-8v-80c0-4.421875-3.582031-8-8-8zm0 0"/></g><path d="m179.199219 113.222656c-3.535157 2.652344-4.25 7.664063-1.597657 11.199219 2.648438 3.535156 7.664063 4.253906 11.199219 1.601563.917969-.679688 93.238281-68.054688 215.277344.566406 1.195313.679687 2.546875 1.035156 3.921875 1.035156 3.636719-.003906 6.8125-2.453125 7.734375-5.972656.925781-3.515625-.640625-7.210938-3.804687-8.996094-131.019532-73.707031-231.730469-.183594-232.730469.566406zm0 0" fill="url(#e)"/><path d="m436 95.625c3.636719-.003906 6.8125-2.453125 7.734375-5.972656.925781-3.515625-.640625-7.210938-3.804687-8.996094-162.699219-91.527344-287.480469-.371094-288.730469.566406-3.535157 2.652344-4.25 7.664063-1.597657 11.199219 2.648438 3.535156 7.664063 4.253906 11.199219 1.601563 4.742188-3.535157 118-85.601563 271.289063.558593 1.191406.683594 2.539062 1.039063 3.910156 1.042969zm0 0" fill="url(#f)"/><path d="m472 72.511719c3.527344.003906 6.640625-2.300781 7.664062-5.675781 1.023438-3.375-.28125-7.023438-3.214843-8.980469-194.617188-129.746094-359.785157-.90625-361.441407.40625-3.453124 2.761719-4.011718 7.800781-1.25 11.253906 2.757813 3.453125 7.796876 4.011719 11.25 1.25 30.3125-21.890625 64.589844-37.679687 100.929688-46.496094 82.671875-20.644531 163.949219-4.878906 241.597656 46.898438 1.324219.878906 2.875 1.347656 4.464844 1.34375zm0 0" fill="url(#g)"/><path d="m440 271.625h-16c0-70.695312-57.308594-128-128-128s-128 57.304688-128 128h-128c-22.082031.023438-39.9726562 17.917969-40 40v80c.0273438 22.078125 17.917969 39.972656 40 40h40v40c0 4.417969 3.582031 8 8 8h64c4.417969 0 8-3.582031 8-8v-40h152v40c0 4.417969 3.582031 8 8 8h64c4.417969 0 8-3.582031 8-8v-40h48c22.082031-.027344 39.972656-17.921875 40-40v-80c-.027344-22.082031-17.917969-39.976562-40-40zm-144-112c61.855469 0 112 50.140625 112 112 0 61.855469-50.144531 112-112 112s-112-50.144531-112-112c.066406-61.832031 50.171875-111.9375 112-112zm-152 304h-48v-32h48zm232 0h-48v-32h48zm88-72c0 13.253906-10.746094 24-24 24h-400c-13.253906 0-24-10.746094-24-24v-80c0-13.257812 10.746094-24 24-24h129.113281c8.015625 63.976562 62.40625 111.980469 126.886719 111.980469s118.871094-48.003907 126.886719-111.980469h17.113281c13.253906 0 24 10.742188 24 24zm0 0" fill="url(#h)"/></symbol><symbol id="proyector-1" viewBox="-3 1 487 487.99848"><title>proyector-1</title><linearGradient id="a"><stop offset="0" stop-color="#006df0"/><stop offset="1" stop-color="#00e7f0"/></linearGradient><linearGradient id="b" gradientUnits="userSpaceOnUse" x1="217.13124" x2="268.62724" xlink:href="#a" y1="489.886479" y2="-7.905521"/><linearGradient id="c" gradientUnits="userSpaceOnUse" x1="388.53924" x2="440.03524" xlink:href="#a" y1="507.622479" y2="9.822479"/><linearGradient id="d" gradientUnits="userSpaceOnUse" x1="265.85124" x2="317.34724" xlink:href="#a" y1="494.926479" y2="-2.865521"/><linearGradient id="e" gradientUnits="userSpaceOnUse" x1="268.30724" x2="319.80324" xlink:href="#a" y1="495.182479" y2="-2.609521"/><linearGradient id="f" gradientUnits="userSpaceOnUse" x1="263.39524" x2="314.89124" xlink:href="#a" y1="494.670479" y2="-3.121521"/><linearGradient id="g" gradientUnits="userSpaceOnUse" x1="118.05124" x2="169.54724" xlink:href="#a" y1="479.638479" y2="-18.153521"/><linearGradient id="h" gradientUnits="userSpaceOnUse" x1="231.86724" x2="283.36324" xlink:href="#a" y1="491.414479" y2="-6.385521"/><linearGradient id="i" gradientUnits="userSpaceOnUse" x1="303.10724" x2="354.60324" xlink:href="#a" y1="498.782479" y2=".990479"/><linearGradient id="j" gradientUnits="userSpaceOnUse" x1="235.14724" x2="286.64324" xlink:href="#a" y1="491.750479" y2="-6.041521"/><linearGradient id="k" gradientUnits="userSpaceOnUse" x1="306.37924" x2="357.87524" xlink:href="#a" y1="499.118479" y2="1.326479"/><linearGradient id="l" gradientUnits="userSpaceOnUse" x1="238.41924" x2="289.91524" xlink:href="#a" y1="492.086479" y2="-5.705521"/><linearGradient id="m" gradientUnits="userSpaceOnUse" x1="309.65924" x2="361.15524" xlink:href="#a" y1="499.462479" y2="1.662479"/><linearGradient id="n" gradientUnits="userSpaceOnUse" x1="316.89124" x2="368.38724" xlink:href="#a" y1="500.206479" y2="2.414479"/><path d="m456.5 328v-208c13.253906 0 24-10.746094 24-24 0-13.257812-10.746094-24-24-24h-93.785156l-118.09375-70.859375c-2.539063-1.519531-5.707032-1.519531-8.242188 0l-118.09375 70.859375h-93.785156c-13.253906 0-24 10.742188-24 24 0 13.253906 10.746094 24 24 24v272c0 4.417969 3.582031 8 8 8h144v32c0 13.253906 10.746094 24 24 24h16v8c0 13.253906 10.746094 24 24 24h8c13.253906 0 24-10.746094 24-24v-8h120v8c0 13.253906 10.746094 24 24 24h8c13.253906 0 24-10.746094 24-24v-8h8c13.253906 0 24-10.746094 24-24v-80c0-13.257812-10.746094-24-24-24zm-216-310.671875 91.121094 54.671875h-182.242188zm-224 78.671875c0-4.417969 3.582031-8 8-8h432c4.417969 0 8 3.582031 8 8s-3.582031 8-8 8h-432c-4.417969 0-8-3.582031-8-8zm24 288v-264h400v208h-240c-13.253906 0-24 10.742188-24 24v32zm216 80c0 4.417969-3.582031 8-8 8h-8c-4.417969 0-8-3.582031-8-8v-8h24zm176 0c0 4.417969-3.582031 8-8 8h-8c-4.417969 0-8-3.582031-8-8v-8h24zm32-32c0 4.417969-3.582031 8-8 8h-256c-4.417969 0-8-3.582031-8-8v-80c0-4.417969 3.582031-8 8-8h256c4.417969 0 8 3.582031 8 8zm0 0" fill="url(#b)"/><path d="m400.5 352c-22.09375 0-40 17.90625-40 40 0 22.089844 17.90625 40 40 40 22.089844 0 40-17.910156 40-40-.027344-22.082031-17.921875-39.976562-40-40zm0 64c-13.253906 0-24-10.746094-24-24 0-13.257812 10.746094-24 24-24s24 10.742188 24 24c0 13.253906-10.746094 24-24 24zm0 0" fill="url(#c)"/><path d="m320.5 384h-88c-4.417969 0-8 3.582031-8 8s3.582031 8 8 8h88c4.417969 0 8-3.582031 8-8s-3.582031-8-8-8zm0 0" fill="url(#d)"/><path d="m320.5 408h-88c-4.417969 0-8 3.582031-8 8s3.582031 8 8 8h88c4.417969 0 8-3.582031 8-8s-3.582031-8-8-8zm0 0" fill="url(#e)"/><path d="m320.5 360h-88c-4.417969 0-8 3.582031-8 8s3.582031 8 8 8h88c4.417969 0 8-3.582031 8-8s-3.582031-8-8-8zm0 0" fill="url(#f)"/><path d="m216.5 224c0-39.765625-32.234375-72-72-72s-72 32.234375-72 72c0 39.761719 32.234375 72 72 72 39.746094-.046875 71.957031-32.253906 72-72zm-37.855469 44.277344-19.089843-28.277344h38.585937c-3.382813 11.230469-10.203125 21.121094-19.496094 28.277344zm21.855469-44.277344h-48v-55.363281c27.527344 3.976562 47.964844 27.550781 48 55.363281zm-112 0c.03125-27.8125 20.472656-51.386719 48-55.363281v63.363281c.210938 1.554688.671875 3.070312 1.367188 4.476562l26.808593 39.699219c-6.429687 2.519531-13.273437 3.816407-20.175781 3.824219-30.914062-.035156-55.964844-25.089844-56-56zm0 0" fill="url(#g)"/><path d="m256.5 168h16v16h-16zm0 0" fill="url(#h)"/><path d="m288.5 168h96v16h-96zm0 0" fill="url(#i)"/><path d="m256.5 200h16v16h-16zm0 0" fill="url(#j)"/><path d="m288.5 200h96v16h-96zm0 0" fill="url(#k)"/><path d="m256.5 232h16v16h-16zm0 0" fill="url(#l)"/><path d="m288.5 232h96v16h-96zm0 0" fill="url(#m)"/><path d="m256.5 264h168v16h-168zm0 0" fill="url(#n)"/></symbol><symbol id="tv" viewBox="0 0 480 480"><title>tv</title><linearGradient id="SVGID_1_" gradientUnits="userSpaceOnUse" x1="-26.875" y1="517.545" x2="-26.875" y2="570.066" gradientTransform="matrix(8 0 0 -8 455 4581)"> <stop offset="0" style="stop-color:#006DF0"/> <stop offset="1" style="stop-color:#00E7F0"/> </linearGradient><path style="fill:url(#SVGID_1_);" d="M440,40H40C17.92,40.026,0.026,57.92,0,80v240c0.026,22.08,17.92,39.974,40,40h143.688 c-1.486,21.058-9.324,41.17-22.48,57.68L156.16,424H128c-4.418,0-8,3.582-8,8s3.582,8,8,8h224c4.418,0,8-3.582,8-8s-3.582-8-8-8 h-28.16l-5.048-6.32c-13.142-16.516-20.971-36.626-22.456-57.68H440c22.08-0.026,39.974-17.92,40-40V80 C479.974,57.92,462.08,40.026,440,40z M16,88h448v208H16V88z M40,56h400c10.134,0.042,19.15,6.445,22.528,16H17.472 C20.85,62.445,29.866,56.042,40,56L40,56z M303.472,424H176.528c13.709-18.668,21.762-40.884,23.2-64h80.48 C281.649,383.126,289.726,405.347,303.472,424z M440,344H40c-13.255,0-24-10.745-24-24v-8h448v8C464,333.255,453.255,344,440,344z"/><linearGradient id="SVGID_2_" gradientUnits="userSpaceOnUse" x1="-26.875" y1="517.545" x2="-26.875" y2="570.066" gradientTransform="matrix(8 0 0 -8 455 4581)"> <stop offset="0" style="stop-color:#006DF0"/> <stop offset="1" style="stop-color:#00E7F0"/> </linearGradient><path style="fill:url(#SVGID_2_);" d="M256,320h-32c-4.418,0-8,3.582-8,8s3.582,8,8,8h32c4.418,0,8-3.582,8-8S260.418,320,256,320z "/></symbol><symbol id="impresora" viewBox="0 0 480 480"><title>impresora</title><linearGradient id="a"><stop offset="0" stop-color="#4761ac"/><stop offset="1" stop-color="#54c2ef"/></linearGradient><linearGradient id="b" gradientUnits="userSpaceOnUse" x1="16" x2="489.688" xlink:href="#a" y1="168" y2="168"/><linearGradient id="c" gradientUnits="userSpaceOnUse" x1="16" x2="489.688" xlink:href="#a" y1="408" y2="408"/><linearGradient id="d" gradientUnits="userSpaceOnUse" x1="16" x2="489.688" xlink:href="#a" y1="376" y2="376"/><linearGradient id="e" gradientUnits="userSpaceOnUse" x1="16" x2="489.688" xlink:href="#a" y1="344" y2="344"/><linearGradient id="f" gradientUnits="userSpaceOnUse" x1="16" x2="489.688" xlink:href="#a" y1="160" y2="160"/><linearGradient id="g" gradientUnits="userSpaceOnUse" x1="16" x2="489.688" xlink:href="#a" y1="240" y2="240"/><path d="m56 144c-13.253906 0-24 10.746094-24 24s10.746094 24 24 24 24-10.746094 24-24-10.746094-24-24-24zm0 32c-4.417969 0-8-3.582031-8-8s3.582031-8 8-8 8 3.582031 8 8-3.582031 8-8 8zm0 0" fill="url(#b)"/><path d="m376 400h-272c-4.417969 0-8 3.582031-8 8s3.582031 8 8 8h272c4.417969 0 8-3.582031 8-8s-3.582031-8-8-8zm0 0" fill="url(#c)"/><path d="m104 384h56c4.417969 0 8-3.582031 8-8s-3.582031-8-8-8h-56c-4.417969 0-8 3.582031-8 8s3.582031 8 8 8zm0 0" fill="url(#d)"/><path d="m376 336h-272c-4.417969 0-8 3.582031-8 8s3.582031 8 8 8h272c4.417969 0 8-3.582031 8-8s-3.582031-8-8-8zm0 0" fill="url(#e)"/><path d="m376 368h-184c-4.417969 0-8 3.582031-8 8s3.582031 8 8 8h184c4.417969 0 8-3.582031 8-8s-3.582031-8-8-8zm0 0" fill="url(#d)"/><path d="m440 144c-4.417969 0-8 3.582031-8 8v16c0 4.417969 3.582031 8 8 8s8-3.582031 8-8v-16c0-4.417969-3.582031-8-8-8zm0 0" fill="url(#f)"/><path d="m408 144c-4.417969 0-8 3.582031-8 8v16c0 4.417969 3.582031 8 8 8s8-3.582031 8-8v-16c0-4.417969-3.582031-8-8-8zm0 0" fill="url(#f)"/><path d="m376 160h-128c-4.417969 0-8 3.582031-8 8s3.582031 8 8 8h128c4.417969 0 8-3.582031 8-8s-3.582031-8-8-8zm0 0" fill="url(#b)"/><path d="m440 112h-24v-112h-352v112h-24c-22.082031.027344-39.9726562 17.917969-40 40v192c.0273438 22.082031 17.917969 39.972656 40 40h24v96h352v-96h24c22.082031-.027344 39.972656-17.917969 40-40v-192c-.027344-22.082031-17.917969-39.972656-40-40zm-360-96h320v96h-320zm320 448h-320v-160h320zm64-120c0 13.253906-10.746094 24-24 24h-24v-64h24c4.417969 0 8-3.582031 8-8s-3.582031-8-8-8h-400c-4.417969 0-8 3.582031-8 8s3.582031 8 8 8h24v64h-24c-13.253906 0-24-10.746094-24-24v-192c0-13.253906 10.746094-24 24-24h400c13.253906 0 24 10.746094 24 24zm0 0" fill="url(#g)"/></symbol><symbol id="silla-de-ruedas" viewBox="0 0 512 512"><title>silla-de-ruedas</title><linearGradient id="SVGID_1_" gradientUnits="userSpaceOnUse" x1="256" y1="514" x2="256" y2="2" gradientTransform="matrix(1 0 0 -1 0 514)"> <stop offset="0" style="stop-color:#2AF598"/> <stop offset="1" style="stop-color:#009EFD"/> </linearGradient><path style="fill:url(#SVGID_1_);" d="M438.888,437L415.78,326.761C410.687,302.563,389.393,285,365.148,285h-97.442 c-10.248,0-18.474-7.077-19.557-16.827L243.908,230H344v-40H239.463l-8.295-74.658C252.782,106.26,268,84.875,268,60 c0-33.084-26.916-60-60-60s-60,26.916-60,60c0,27.241,18.255,50.286,43.17,57.581l17.224,155.01 c3.321,29.878,28.82,52.409,59.313,52.409h97.442c5.351,0,10.289,4.299,11.486,9.983L406.403,477H486v-40H438.888z M208,40 c11.028,0,20,8.972,20,20s-8.972,20-20,20s-20-8.972-20-20S196.972,40,208,40z M307.186,365h40.199 C340.266,447.244,271.058,512,187,512c-88.775,0-161-72.225-161-161c0-79.31,57.646-145.403,133.238-158.597l4.429,39.864 C108.075,243.171,66,292.261,66,351c0,66.72,54.28,121,121,121C248.984,472,300.223,425.148,307.186,365z"/></symbol><symbol id="handicap" viewBox="-18 0 416 416.22186"><title>handicap</title><linearGradient id="a" gradientUnits="userSpaceOnUse" x1="63.29493" x2="306.86293" y1="372.900111" y2="129.332111"><stop offset="0" stop-color="#41dfd0"/><stop offset="1" stop-color="#ee83ef"/></linearGradient><path d="m29.621094 204.757812 12.976562 9.375c-8.097656 11.171876-14.488281 23.488282-18.957031 36.542969l-15.136719-5.183593c4.984375-14.546876 12.101563-28.277344 21.117188-40.734376zm-29.511719 91.328126c0 2.820312.074219 5.597656.21875 8.421874l16-.847656c-.128906-2.511718-.203125-5.03125-.203125-7.574218-.003906-10.933594 1.265625-21.828126 3.785156-32.464844l-15.566406-3.703125c-2.808594 11.847656-4.230469 23.988281-4.234375 36.167969zm244 0c0 48.597656-39.398437 88-88 88-48.597656 0-88-39.402344-88-88 0-48.601563 39.402344-88 88-88 48.578125.054687 87.945313 39.421874 88 88zm-16 0c0-39.765626-32.234375-72-72-72-39.761719 0-72 32.234374-72 72 0 39.761718 32.238281 72 72 72 39.746094-.046876 71.957031-32.253907 72-72zm-152-195.058594-27.574219-13.742188c-3.953125-1.976562-5.558594-6.78125-3.585937-10.738281 1.976562-3.953125 6.785156-5.558594 10.738281-3.582031l32 16c2.699219 1.347656 4.410156 4.101562 4.421875 7.121094v48h16v-8c.011719-15.875 7.871094-30.71875 20.992187-39.648438-19.925781-12.113281-29.351562-36.007812-23.0625-58.460938 6.285157-22.453124 26.753907-37.976562 50.070313-37.976562 23.320313 0 43.785156 15.523438 50.074219 37.976562 6.289062 22.453126-3.136719 46.347657-23.066406 58.460938 13.125 8.929688 20.984374 23.773438 20.992187 39.648438v8h64c4.417969 0 8 3.578124 8 8 0 4.417968-3.582031 8-8 8h-32v46.804687c3.328125 2.980469 6.480469 6.144531 9.449219 9.480469.613281.0625 1.21875.195312 1.800781.402344l72 32c2.890625 1.28125 4.753906 4.148437 4.75 7.3125v72h16c13.257813 0 24 10.742187 24 24v8h8c4.417969 0 8 3.578124 8 8 0 4.417968-3.582031 8-8 8h-56c-.582031 0-1.164063-.066407-1.734375-.195313l-58.625-13.023437c-25.796875 38.660156-71.609375 58.929687-117.570312 52.023437-45.960938-6.910156-83.789063-39.753906-97.078126-84.292969-13.289062-44.535156.351563-92.738281 35.007813-123.707031zm184 195.058594c0-57.4375-46.5625-104-104-104s-104 46.5625-104 104 46.5625 104 104 104c57.410156-.066407 103.933594-46.589844 104-104zm-72-115.539063v-20.460937h-64v20.460937c20.917969-5.949219 43.082031-5.949219 64 0zm136 163.539063v16h24v-8c0-4.421876-3.582031-8-8-8zm-61.46875-103.011719c17.464844 33.488281 17.964844 73.289062 1.34375 107.203125l44.125 9.832031v-96.824219zm-58.53125-80.988281v26.085937c5.542969 2.449219 10.894531 5.316406 16 8.578125v-34.664062zm-48-72c19.882813 0 36-16.121094 36-36 0-19.882813-16.117187-36-36-36-19.878906 0-36 16.117187-36 36 .023437 19.871093 16.128906 35.976562 36 36zm-32 56h64v-8c0-17.675782-14.324219-32-32-32-17.671875 0-32 14.324218-32 32zm-32 16v34.664062c5.113281-3.257812 10.460937-6.125 16-8.578125v-26.085937zm0 0" fill="url(#a)"/></symbol><symbol id="autobu" viewBox="0 -107 512 512"><title>autobu</title><linearGradient id="a"><stop offset="0" stop-color="#662d91"/><stop offset=".437" stop-color="#3873b3"/><stop offset="1" stop-color="#00c9dd"/></linearGradient><linearGradient id="b" gradientTransform="matrix(1.002065 0 0 -1.002065 0 405.874624)" gradientUnits="userSpaceOnUse" x1="78.4078" x2="376.5269" xlink:href="#a" y1="381.2564" y2="83.1287"/><linearGradient id="c" gradientTransform="matrix(1.002065 0 0 -1.002065 0 405.874624)" gradientUnits="userSpaceOnUse" x1="100.06" x2="398.1876" xlink:href="#a" y1="402.9086" y2="104.7809"/><linearGradient id="d" gradientTransform="matrix(1.002065 0 0 -1.002065 0 405.874624)" gradientUnits="userSpaceOnUse" x1="138.3808" x2="436.5085" xlink:href="#a" y1="441.2294" y2="143.1018"/><path d="m503.464844 204.800781v-51.199219c0-14.140624-11.460938-25.601562-25.597656-25.601562h-70.453126l-23.773437-79.25c-1.082031-3.609375-4.402344-6.082031-8.175781-6.082031h-25.597656v-34.132813c0-4.714844-3.820313-8.535156-8.535157-8.535156h-34.132812c-4.710938 0-8.53125 3.820312-8.53125 8.535156v34.132813h-221.867188v-34.132813c0-4.714844-3.820312-8.535156-8.535156-8.535156h-34.132813c-4.710937 0-8.53125 3.820312-8.53125 8.535156v37.671875c-15.523437 6.734375-25.5781245 22.027344-25.601562 38.949219v162.3125c0 4.710938 3.820312 8.53125 8.535156 8.53125h60.5c4.683594 27.851562 31.0625 46.632812 58.914063 41.949219 21.492187-3.613281 38.335937-20.453125 41.949219-41.949219h197.804687c4.683594 27.851562 31.058594 46.632812 58.910156 41.949219 21.496094-3.613281 38.335938-20.453125 41.953125-41.949219h34.898438c4.714844 0 8.535156-3.820312 8.535156-8.53125v-34.136719c0-4.710937-3.820312-8.53125-8.535156-8.53125zm-113.867188-76.800781h-31.199218v-42.667969h17.066406v-4.433593zm-73.863281-110.933594h17.0625v25.601563h-17.0625zm-273.066406 0h17.066406v25.601563h-17.066406zm-25.601563 204.800782h58.128906c-3.058593 5.273437-5.144531 11.054687-6.160156 17.066406h-51.96875zm102.398438 59.734374c-18.847656 0-34.132813-15.28125-34.132813-34.132812s15.285157-34.136719 34.132813-34.136719c18.851562 0 34.132812 15.28125 34.132812 34.136719 0 18.851562-15.28125 34.132812-34.132812 34.132812zm0-85.335937c-10.050782-.007813-19.878906 2.964844-28.242188 8.535156h-74.15625v-119.644531c.019532-14.035156 11.390625-25.402344 25.421875-25.421875h326.628907l2.558593 8.535156h-320.476562c-14.136719 0-25.597657 11.460938-25.597657 25.597657v42.667968c0 4.710938 3.820313 8.53125 8.53125 8.53125h153.601563v93.867188h-17.835937c-4.179688-24.605469-25.476563-42.621094-50.433594-42.667969zm25.601562-110.933594h42.667969v42.667969h-42.667969zm-51.199218 0h34.132812v42.667969h-34.132812zm-51.199219 42.667969v-34.132812c0-4.710938 3.820312-8.535157 8.53125-8.535157h25.601562v42.667969zm162.132812 8.535156v-51.199218h59.730469v153.597656h-59.730469zm76.800781 102.398438v-153.601563h59.730469v153.601563zm86.097657 0h-9.300781v-93.867188h119.46875c4.710937 0 8.53125 3.824219 8.53125 8.535156v51.199219h-40.019532c-23.511718-15.613281-55.234375-9.210937-70.847656 14.300781-3.976562 5.984376-6.644531 12.746094-7.832031 19.832032zm50.433593 42.667968c-18.851562 0-34.132812-15.28125-34.132812-34.132812s15.28125-34.136719 34.132812-34.136719c18.851563 0 34.132813 15.28125 34.132813 34.136719 0 18.851562-15.28125 34.132812-34.132813 34.132812zm76.800782-42.667968h-26.367188c-1.015625-6.011719-3.105468-11.792969-6.164062-17.066406h32.53125zm0 0" fill="url(#b)"/><path d="m247.46875 93.867188h-25.601562c-4.710938 0-8.535157 3.820312-8.535157 8.535156v68.265625c0 4.710937 3.824219 8.535156 8.535157 8.535156h25.601562c4.710938 0 8.53125-3.824219 8.53125-8.535156v-68.265625c0-4.714844-3.820312-8.535156-8.53125-8.535156zm-8.535156 68.265624h-8.535156v-51.199218h8.535156zm0 0" fill="url(#c)"/><path d="m324.265625 93.867188h-25.597656c-4.714844 0-8.535157 3.820312-8.535157 8.535156v68.265625c0 4.710937 3.820313 8.535156 8.535157 8.535156h25.597656c4.714844 0 8.535156-3.824219 8.535156-8.535156v-68.265625c0-4.714844-3.820312-8.535156-8.535156-8.535156zm-8.53125 68.265624h-8.535156v-51.199218h8.535156zm0 0" fill="url(#d)"/></symbol><symbol id="autobu-1" viewBox="0 -80 480 480"><title>autobu-1</title><linearGradient id="a" gradientUnits="userSpaceOnUse" x1="49.168" x2="430.832" y1="-12.488" y2="369.168"><stop offset="0" stop-color="#662d91"/><stop offset=".437" stop-color="#3873b3"/><stop offset="1" stop-color="#00c9dd"/></linearGradient><path d="m384 256c-8.835938 0-16 7.164062-16 16s7.164062 16 16 16 16-7.164062 16-16-7.164062-16-16-16zm0 24v-8zm-288-24c-8.835938 0-16 7.164062-16 16s7.164062 16 16 16 16-7.164062 16-16-7.164062-16-16-16zm0 24v-8zm376-248h-72v-8c0-13.253906-10.746094-24-24-24h-40c-13.253906 0-24 10.746094-24 24v8h-154v-8c0-13.253906-10.746094-24-24-24h-38c-13.253906 0-24 10.746094-24 24v8h-64c-4.417969 0-8 3.582031-8 8v240c0 4.417969 3.582031 8 8 8h42.800781c2.097657 5.902344 5.332031 11.339844 9.519531 16h-60.320312v16h480v-16h-60.320312c4.1875-4.660156 7.421874-10.097656 9.519531-16h42.800781c4.417969 0 8-3.582031 8-8v-240c0-4.417969-3.582031-8-8-8zm-8 136h-40v-88h40zm-136-144c0-4.417969 3.582031-8 8-8h40c4.417969 0 8 3.582031 8 8v8h-56zm-240 0c0-4.417969 3.582031-8 8-8h38c4.417969 0 8 3.582031 8 8v8h-54zm-24 248c0-17.671875 14.328125-32 32-32s32 14.328125 32 32-14.328125 32-32 32-32-14.328125-32-32zm77.199219 16h197.601562c2.097657 5.902344 5.332031 11.339844 9.519531 16h-216.640624c4.1875-4.660156 7.421874-10.097656 9.519531-16zm146.800781-48h-64v-16h64zm0-32h-64v-136h64zm-64 48h64v16h-64zm128 16c0-17.671875 14.328125-32 32-32s32 14.328125 32 32-14.328125 32-32 32-32-14.328125-32-32zm80 0c0-26.507812-21.492188-48-48-48s-48 21.492188-48 48h-32v-208c0-4.417969-3.582031-8-8-8h-80c-4.417969 0-8 3.582031-8 8v208h-64c0-26.507812-21.492188-48-48-48s-48 21.492188-48 48h-32v-224h448v16h-48c-4.417969 0-8 3.582031-8 8v104c0 4.417969 3.582031 8 8 8h48v8h-24c-4.417969 0-8 3.582031-8 8v32c0 4.417969 3.582031 8 8 8h24v32zm32-48h-16v-16h16zm-368-168h-56c-4.417969 0-8 3.582031-8 8v88c0 4.417969 3.582031 8 8 8h56c4.417969 0 8-3.582031 8-8v-88c0-4.417969-3.582031-8-8-8zm-8 88h-40v-72h40zm96-88h-56c-4.417969 0-8 3.582031-8 8v88c0 4.417969 3.582031 8 8 8h56c4.417969 0 8-3.582031 8-8v-88c0-4.417969-3.582031-8-8-8zm-8 88h-40v-72h40zm208-88h-56c-4.417969 0-8 3.582031-8 8v88c0 4.417969 3.582031 8 8 8h56c4.417969 0 8-3.582031 8-8v-88c0-4.417969-3.582031-8-8-8zm-8 88h-40v-72h40zm-344 32h64v16h-64zm32 24h32v16h-32zm264-24h64v16h-64zm32 24h32v16h-32zm0 0" fill="url(#a)"/></symbol><symbol id="tren" viewBox="0 0 539.99786 539"><title>tren</title><linearGradient id="a"><stop offset="0" stop-color="#662d91"/><stop offset=".437" stop-color="#3873b3"/><stop offset="1" stop-color="#00c9dd"/></linearGradient><linearGradient id="b" gradientUnits="userSpaceOnUse" x1="-35.25264101" x2="423.99419597" xlink:href="#a" y1="194.7446849592" y2="653.9915219392"/><linearGradient id="c" gradientUnits="userSpaceOnUse" x1="-17.25256901" x2="441.9941679696" xlink:href="#a" y1="176.7446129592" y2="635.9915499396"/><linearGradient id="d" gradientUnits="userSpaceOnUse" x1="-75.7521030072" x2="383.4947339728" xlink:href="#a" y1="235.2441469564" y2="694.4909839364"/><linearGradient id="e" gradientUnits="userSpaceOnUse" x1="77.4440097748" x2="536.6818467188" xlink:href="#a" y1="82.0571342108" y2="541.2948711544"/><path d="m530.992188 486.492188h-521.992188c-4.96875 0-9 4.03125-9 9 0 4.972656 4.027344 9 9 9h18v27c0 4.972656 4.027344 9 9 9h36c4.96875 0 9-4.027344 9-9v-27h18v27c0 4.972656 4.027344 9 9 9h36c4.96875 0 9-4.027344 9-9v-27h18v27c0 4.972656 4.027344 9 9 9h35.996094c4.972656 0 9-4.027344 9-9v-27h18v27c0 4.972656 4.03125 9 9 9h36c4.972656 0 9-4.027344 9-9v-27h18v27c0 4.972656 4.03125 9 9 9h36c4.96875 0 9-4.027344 9-9v-27h18v27c0 4.972656 4.03125 9 9 9h36c4.96875 0 9-4.027344 9-9v-27h18v27c0 4.972656 4.027344 9 9 9h36c4.96875 0 9-4.027344 9-9v-27h18c4.96875 0 9-4.027344 9-9 0-4.96875-4.03125-9-9.003906-9zm-467.992188 36h-18v-18h18zm72 0h-18v-18h18zm71.996094 0h-18v-18h18zm72 0h-18v-18h18zm72 0h-18v-18h18zm72 0h-18v-18h18zm71.996094 0h-18v-18h18zm0 0" fill="url(#b)"/><path d="m224.996094 405.496094c4.972656 0 9-4.03125 9-9v-36c0-4.972656-4.027344-9-9-9h-80.996094c-4.972656 0-9 4.027344-9 9v36c0 4.96875 4.027344 9 9 9zm-71.996094-36h62.996094v18h-62.996094zm0 0" fill="url(#c)"/><path d="m108 405.496094c4.96875 0 9-4.03125 9-9v-36c0-4.972656-4.03125-9-9-9h-81c-4.96875 0-9 4.027344-9 9v36c0 4.96875 4.027344 9 9 9zm-72-36h63v18h-63zm0 0" fill="url(#d)"/><path d="m510.203125 391.03125-43.925781-10.988281c-2.371094-.601563-4.621094-1.59375-6.660156-2.945313l-35.027344-23.398437c-38.070313-25.335938-71.910156-38.203125-100.59375-38.203125h-258.648438l73.636719-81h50.011719c19.855468.054687 35.992187-15.996094 36.042968-35.847656.042969-14.710938-8.890624-27.964844-22.542968-33.449219l56.125-61.199219 7.199218 11.996094c7.351563 12.265625 23.25 16.253906 35.519532 8.90625 3.65625-2.191406 6.714844-5.25 8.90625-8.90625 1.3125-2.234375 3.65625-3.667969 6.242187-3.824219 2.589844-.222656 5.113281.886719 6.699219 2.941406l4.308594 5.398438c4.902344 6.148437 12.335937 9.726562 20.195312 9.722656.929688 0 1.855469-.050781 2.773438-.152344 8.789062-.902343 16.503906-6.25 20.429687-14.167969l2.160157-4.320312c1.9375-3.910156 6.675781-5.511719 10.585937-3.578125 1.234375.609375 2.289063 1.535156 3.058594 2.679687l3.6875 5.535157c7.933593 11.902343 24.015625 15.121093 35.917969 7.1875 3.753906-2.5 6.789062-5.9375 8.804687-9.96875l.945313-1.898438c1.933593-3.914062 6.675781-5.515625 10.585937-3.582031 1.234375.613281 2.289063 1.535156 3.054687 2.679688l3.691407 5.535156c7.933593 11.90625 24.015625 15.121094 35.917969 7.191406 3.753906-2.5 6.785156-5.9375 8.800781-9.972656l7.460937-14.929688 18.226563 24.425782c2.976562 3.980468 8.617187 4.792968 12.597656 1.816406 3.980469-2.980469 4.792969-8.621094 1.816406-12.597656-.003906-.007813-.007812-.011719-.011719-.019532l-83.699218-111.597656h-125.449219l-134.550781 146.769531c-5.894532-12.632812-18.554688-20.726562-32.5-20.773437-2.253906 0-4.507813.21875-6.722656.660156-11.007813-11.949219-26.53125-18.71875-42.773438-18.660156-23.675781.066406-44.996094 14.351562-54.054688 36.226562-24.726562 2.480469-42.761718 24.539063-40.28125 49.265625 2.3125 23.019531 21.699219 40.539063 44.835938 40.507813h51.648438l-73.636719 80.996094h-32.011719c-4.96875 0-9 4.03125-9 9 0 4.972656 4.027344 9.003906 9 9.003906h314.996094c21.582031 1.226562 42.59375 7.382812 61.425781 18h-124.425781c-4.96875 0-9 4.027344-9 9v35.996094c0 4.972656 4.03125 9 9 9h225c1.367187-.023438 2.714844-.363282 3.933594-.988282l15.917968 3.976563c11.429688 2.84375 18.386719 14.410156 15.546875 25.835937-2.367187 9.515625-10.914062 16.191406-20.71875 16.175782h-491.675781c-4.96875 0-9 4.03125-9 9 0 4.972656 4.027344 9 9 9h491.671875c21.71875-.011719 39.308594-17.628907 39.296875-39.34375-.011719-18.027344-12.277344-33.734376-29.765625-38.117188zm-173.257813-372.53125h108.550782l47.957031 63.941406-11.480469 22.980469c-1.9375 3.910156-6.675781 5.511719-10.589844 3.578125-1.234374-.613281-2.285156-1.535156-3.054687-2.679688l-3.691406-5.535156c-7.933594-11.902344-24.011719-15.121094-35.917969-7.1875-3.75 2.5-6.785156 5.9375-8.800781 9.96875l-.945313 1.898438c-1.933594 3.914062-6.675781 5.515625-10.585937 3.578125-1.234375-.609375-2.289063-1.535157-3.058594-2.675781l-3.6875-5.535157c-7.933594-11.90625-24.015625-15.125-35.917969-7.191406-3.753906 2.5-6.789062 5.9375-8.804687 9.96875l-2.160157 4.332031c-1.957031 3.902344-6.710937 5.480469-10.617187 3.519532-1.015625-.507813-1.910156-1.230469-2.621094-2.117188l-4.300781-5.398438c-8.925781-11.175781-25.21875-13-36.390625-4.074218-2.417969 1.929687-4.464844 4.273437-6.054687 6.925781-2.234376 3.742187-7.078126 4.964844-10.824219 2.730469-1.121094-.667969-2.058594-1.605469-2.730469-2.730469l-9.898438-16.570313zm-300.945312 170.996094c0-14.816406 11.9375-26.863282 26.757812-27 .285157 0 1.429688.164062 1.71875.171875 4.210938.296875 8.027344-2.480469 9.042969-6.578125 4.921875-17.464844 20.835938-29.542969 38.980469-29.59375 12.777344-.023438 24.808594 6.035156 32.398438 16.320312 2.429687 3.246094 6.730468 4.46875 10.503906 2.984375 9.25-3.640625 19.699218.902344 23.34375 10.152344.820312 2.085937 1.246094 4.304687 1.25 6.542969v9c0 4.96875 4.03125 9 9 9 9.941406 0 18 8.058594 18 18s-8.058594 18-18 18h-125.996094c-14.910156 0-27-12.085938-27-27zm233.996094 180h144c.460937-.054688.921875-.148438 1.367187-.28125l27.433594 18.28125h-172.800781zm0 0" fill="url(#e)"/></symbol><symbol id="transporte" viewBox="-2 0 512 512.00102"><title>transporte</title><linearGradient id="a"><stop offset="0" stop-color="#662d91"/><stop offset=".437" stop-color="#3873b3"/><stop offset="1" stop-color="#00c9dd"/></linearGradient><linearGradient id="b" gradientTransform="matrix(1.017735 0 0 -1.017735 -2.454266 521.08023)" gradientUnits="userSpaceOnUse" x1="20.782" x2="431.7997" xlink:href="#a" y1="394.7368" y2="-16.2891"/><linearGradient id="c" gradientTransform="matrix(1.017735 0 0 -1.017735 -2.454266 521.08023)" gradientUnits="userSpaceOnUse" x1="-37.7219" x2="373.2956" xlink:href="#a" y1="336.2245" y2="-74.7931"/><linearGradient id="d" gradientTransform="matrix(1.017735 0 0 -1.017735 -2.454266 521.08023)" gradientUnits="userSpaceOnUse" x1="53.6245" x2="464.6421" xlink:href="#a" y1="427.571" y2="16.5534"/><linearGradient id="e" gradientTransform="matrix(1.017735 0 0 -1.017735 -2.454266 521.08023)" gradientUnits="userSpaceOnUse" x1="73.521" x2="484.5386" xlink:href="#a" y1="447.4757" y2="36.4582"/><linearGradient id="f" gradientTransform="matrix(1.017735 0 0 -1.017735 -2.454266 521.08023)" gradientUnits="userSpaceOnUse" x1="70.233" x2="481.2505" xlink:href="#a" y1="444.1794" y2="33.1618"/><path d="m101.417969 380.316406c0 1.3125.304687 2.605469.886719 3.777344l33.808593 67.613281c1.429688 2.867188 4.359375 4.675781 7.5625 4.671875h8.933594l-32.714844 45.800782 13.757813 9.820312 15.585937-21.8125h208.617188l15.582031 21.8125 13.761719-9.820312-32.71875-45.800782h8.933593c3.21875.019532 6.167969-1.792968 7.609376-4.671875l33.804687-67.613281c.570313-1.175781.859375-2.46875.84375-3.777344v-42.257812c0-.089844-.042969-.183594-.042969-.285156-.023437-.667969-.125-1.332032-.304687-1.976563 0-.09375 0-.1875-.042969-.28125l-.042969-.125-50.664062-160.445313c-1.109375-3.519531-4.371094-5.914062-8.0625-5.914062h-185.933594c-3.691406 0-6.953125 2.394531-8.0625 5.914062l-50.65625 160.417969-.042969.128907v.277343c-.179687.644531-.28125 1.308594-.304687 1.976563 0 .101562-.042969.195312-.042969.289062zm16.90625-1.992187v-31.8125h84.511719v67.613281h-33.804688c-4.667969 0-8.453125 3.78125-8.453125 8.449219v16.902343h-11.679687zm267.175781-48.714844h-81.246094v-109.871094h44.617188zm-98.148438 0h-67.613281v-109.871094h67.613281zm42.257813 109.867187h-152.128906v-8.449218h152.128906zm-109.871094-25.351562v-67.613281h67.613281v67.613281zm-16.902343-84.515625h-81.242188l36.628906-109.871094h44.613282zm-41.53125 143.675781 12.078124-16.902344h160.324219l12.078125 16.902344zm196.921874-33.808594h-11.714843v-16.902343c0-4.664063-3.785157-8.449219-8.453125-8.449219h-33.804688v-67.613281h84.515625v31.8125zm-12.558593-236.640624h-41.414063v-16.902344h36.0625zm-58.316407-16.902344v16.902344h-67.613281v-16.902344zm-84.515624 0v16.902344h-41.410157l5.339844-16.902344zm0 0" fill="url(#b)"/><path d="m185.933594 380.316406c0-14.003906-11.351563-25.355468-25.355469-25.355468s-25.355469 11.351562-25.355469 25.355468 11.351563 25.355469 25.355469 25.355469 25.355469-11.351563 25.355469-25.355469zm-33.804688 0c0-4.667968 3.78125-8.449218 8.449219-8.449218s8.453125 3.78125 8.453125 8.449218c0 4.667969-3.785156 8.453125-8.453125 8.453125s-8.449219-3.785156-8.449219-8.453125zm0 0" fill="url(#c)"/><path d="m346.511719 354.960938c-14.003907 0-25.355469 11.351562-25.355469 25.355468s11.351562 25.355469 25.355469 25.355469c14.003906 0 25.355469-11.351563 25.355469-25.355469s-11.351563-25.355468-25.355469-25.355468zm0 33.808593c-4.667969 0-8.449219-3.785156-8.449219-8.453125 0-4.667968 3.78125-8.449218 8.449219-8.449218s8.453125 3.78125 8.453125 8.449218c0 4.667969-3.785156 8.453125-8.453125 8.453125zm0 0" fill="url(#d)"/><path d="m405.671875 422.574219v59.160156c0 4.667969 3.785156 8.453125 8.453125 8.453125h92.964844v-16.902344h-84.515625v-42.257812h84.515625v-16.902344h-92.964844c-4.667969 0-8.453125 3.78125-8.453125 8.449219zm0 0" fill="url(#e)"/><path d="m0 405.148438v101.941406h16.902344v-101.503906c10.601562-209.949219 178.308594-377.84375 388.246094-388.683594h101.941406v-16.902344h-102.390625c-218.890625 11.160156-393.78125 186.242188-404.699219 405.148438zm0 0" fill="url(#f)"/></symbol><symbol id="tren-1" viewBox="0 2 98 98"><title>tren-1</title><style type="text/css"> .st0{fill:url(#SVGID_1_);} </style><linearGradient id="SVGID_1_" gradientUnits="userSpaceOnUse" x1="49" y1="13.7998" x2="49" y2="88.2002"> <stop offset="0" style="stop-color:#00EFD1"/> <stop offset="1" style="stop-color:#00ACEA"/> </linearGradient><path class="st0" d="M91.3,82.2H6.9v-4.5c2,2.3,4.9,3.7,8.1,3.7c3.7,0,6.9-1.9,8.9-4.7c1.9,2.8,5.2,4.7,8.8,4.7 c4.9,0,9.1-3.3,10.4-7.8h3.2c1.3,4.5,5.5,7.8,10.4,7.8c3.7,0,6.9-1.8,8.9-4.6c2,2.8,5.2,4.6,8.8,4.6c4.9,0,9.1-3.3,10.4-7.8h0.8 c6.4,0,11.6-5.2,11.6-11.6c0-3.8-1.8-7.3-4.9-9.4L60.6,30.1c-2.8-2-6.2-3-9.6-3H6.9V16.8c0-1.7-1.3-3-3-3s-3,1.3-3,3v68.4 c0,1.7,1.3,3,3,3h87.4c1.7,0,3-1.3,3-3S93,82.2,91.3,82.2z M15,75.4c-1.5,0-2.8-0.7-3.7-1.8h7.4C17.8,74.7,16.5,75.4,15,75.4z M32.7,75.4c-1.5,0-2.8-0.7-3.7-1.8h7.4C35.5,74.7,34.2,75.4,32.7,75.4z M56.6,75.4c-1.5,0-2.8-0.7-3.7-1.8h7.4 C59.4,74.7,58.1,75.4,56.6,75.4z M74.3,75.4c-1.5,0-2.8-0.7-3.7-1.8H78C77.1,74.7,75.8,75.4,74.3,75.4z M61,37.8l19.5,13.8H65.8 c-2.6,0-4.8-2.2-4.8-4.8V37.8z M51,33.1c1.4,0,2.7,0.3,4,0.8v12.9c0,6,4.8,10.8,10.8,10.8H89c1.4,1,2.1,2.6,2.1,4.4 c0,3.1-2.5,5.6-5.6,5.6H6.9V55.2H49c1.7,0,3-1.3,3-3V40.5c0-1.7-1.3-3-3-3H6.9v-4.4H51z M46,43.5v5.7h-5.8v-5.7H46z M34.2,49.2h-5.7 v-5.7h5.7V49.2z M22.5,49.2h-5.8v-5.7h5.8V49.2z M10.7,49.2H6.9v-5.7h3.8V49.2z"/></symbol><symbol id="tren-2" viewBox="0 -144 480 480"><title>tren-2</title><linearGradient id="a" gradientUnits="userSpaceOnUse" x1="74.344" x2="366.544" y1="261.65659" y2="-30.54341"><stop offset="0" stop-color="#41dfd0"/><stop offset="1" stop-color="#ee83ef"/></linearGradient><path d="m200 32h-32c-4.417969 0-8 3.582031-8 8v32c0 4.417969 3.582031 8 8 8h32c4.417969 0 8-3.582031 8-8v-32c0-4.417969-3.582031-8-8-8zm-8 32h-16v-16h16zm-56-32h-32c-4.417969 0-8 3.582031-8 8v32c0 4.417969 3.582031 8 8 8h32c4.417969 0 8-3.582031 8-8v-32c0-4.417969-3.582031-8-8-8zm-8 32h-16v-16h16zm-56-32h-32c-4.417969 0-8 3.582031-8 8v32c0 4.417969 3.582031 8 8 8h32c4.417969 0 8-3.582031 8-8v-32c0-4.417969-3.582031-8-8-8zm-8 32h-16v-16h16zm378.753906-10.183594-14.402344-4.800781-8.894531-8.902344c-25.632812-25.773437-60.515625-40.21875-96.863281-40.113281h-314.59375c-4.417969 0-8 3.582031-8 8v144c0 4.417969 3.582031 8 8 8h417.519531c26.714844-.015625 49.476563-19.394531 53.757813-45.765625 4.277344-26.371094-11.1875-51.953125-36.523438-60.417969zm-120.160156-37.816406c30.3125-.042969 59.519531 11.390625 81.75 32h-71.398438l-16-32zm-306.59375 128v-32h28.6875l32 32zm83.3125 0-32-32h41.375l32 32zm64 0-32-32h92.6875v8c0 4.417969 3.582031 8 8 8h48c4.417969 0 8-3.582031 8-8v-8h44.800781c28.265625.03125 55.296875 11.585938 74.847657 32zm76.6875-32v-64h32v64zm188.734375 31.671875-5.191406-6.175781c-22.78125-26.359375-55.902344-41.507813-90.742188-41.496094h-44.800781v-56c0-4.417969-3.582031-8-8-8h-48c-4.417969 0-8 3.582031-8 8v56h-208v-80h283.054688l21.785156 43.578125c1.355468 2.710937 4.128906 4.425781 7.160156 4.421875h94.695312l14.992188 5c17.265625 5.785156 28.09375 22.902344 25.925781 40.980469s-16.734375 32.152343-34.878906 33.691406zm11.265625-47.671875c0 4.417969-3.582031 8-8 8h-8c-4.417969 0-8-3.582031-8-8s3.582031-8 8-8h8c4.417969 0 8 3.582031 8 8zm40 88c0 4.417969-3.582031 8-8 8h-464c-4.417969 0-8-3.582031-8-8s3.582031-8 8-8h464c4.417969 0 8 3.582031 8 8zm0 0" fill="url(#a)"/></symbol><symbol id="correo" viewBox="0 -24 480 480"><title>correo</title><linearGradient id="a"><stop offset="0" stop-color="#7ed4ef"/><stop offset=".229" stop-color="#66bfe6"/><stop offset=".711" stop-color="#298bd0"/><stop offset="1" stop-color="#0169c2"/></linearGradient><linearGradient id="b" gradientUnits="userSpaceOnUse" x1="-16" x2="496.248" xlink:href="#a" y1="216" y2="216"/><linearGradient id="c" gradientUnits="userSpaceOnUse" x1="-16" x2="496.248" xlink:href="#a" y1="88" y2="88"/><linearGradient id="d" gradientUnits="userSpaceOnUse" x1="-16" x2="496.248" xlink:href="#a" y1="56" y2="56"/><linearGradient id="e" gradientUnits="userSpaceOnUse" x1="-16" x2="496.248" xlink:href="#a" y1="120" y2="120"/><path d="m456 144h-40v-120c0-13.253906-10.746094-24-24-24h-304c-13.253906 0-24 10.746094-24 24v120h-40c-13.253906 0-24 10.746094-24 24v224c.0273438 22.082031 17.917969 39.972656 40 40h400c22.082031-.027344 39.972656-17.917969 40-40v-224c0-13.253906-10.746094-24-24-24zm-376-120c0-4.417969 3.582031-8 8-8h304c4.417969 0 8 3.582031 8 8v120h-320zm376 136c2.824219 0 8 6.679688 8 17.601562v32.300782l-224 61.800781-224-61.800781v-32.300782c0-10.921874 5.175781-17.601562 8-17.601562zm-16 256h-400c-13.253906 0-24-10.746094-24-24v-165.496094l221.871094 61.207032c1.394531.386718 2.863281.386718 4.257812 0l221.871094-61.207032v165.496094c0 13.253906-10.746094 24-24 24zm0 0" fill="url(#b)"/><path d="m344 80h-208c-4.417969 0-8 3.582031-8 8s3.582031 8 8 8h208c4.417969 0 8-3.582031 8-8s-3.582031-8-8-8zm0 0" fill="url(#c)"/><path d="m344 48h-208c-4.417969 0-8 3.582031-8 8s3.582031 8 8 8h208c4.417969 0 8-3.582031 8-8s-3.582031-8-8-8zm0 0" fill="url(#d)"/><path d="m344 112h-208c-4.417969 0-8 3.582031-8 8s3.582031 8 8 8h208c4.417969 0 8-3.582031 8-8s-3.582031-8-8-8zm0 0" fill="url(#e)"/></symbol><symbol id="carta" viewBox="-16 0 480 480.00638"><title>carta</title><linearGradient id="a"><stop offset="0" stop-color="#20d6de"/><stop offset="1" stop-color="#5e309d"/></linearGradient><linearGradient id="b" gradientUnits="userSpaceOnUse" x1="-31.996806" x2="460.179194" xlink:href="#a" y1="104.006375" y2="104.006375"/><linearGradient id="c" gradientUnits="userSpaceOnUse" x1="-31.996806" x2="460.179194" xlink:href="#a" y1="232.006375" y2="232.006375"/><linearGradient id="d" gradientUnits="userSpaceOnUse" x1="-31.996806" x2="460.179194" xlink:href="#a" y1="240.006375" y2="240.006375"/><linearGradient id="e" gradientUnits="userSpaceOnUse" x1="-31.996806" x2="460.179194" xlink:href="#a" y1="264.006375" y2="264.006375"/><path d="m218.796875 158.078125c2.992187 2.5625 7.40625 2.5625 10.398437 0l56-48c2.539063-2.175781 3.453126-5.703125 2.296876-8.839844s-4.144532-5.226562-7.488282-5.230469h-24v-40c0-4.417968-3.582031-8-8-8h-48c-4.417968 0-8 3.582032-8 8v40h-24c-3.347656 0-6.339844 2.082032-7.503906 5.222657-1.160156 3.136719-.246094 6.667969 2.296875 8.847656zm-18.792969-46.070313c4.417969 0 8-3.582031 8-8v-40h32v40c0 4.417969 3.582032 8 8 8h10.398438l-34.398438 29.460938-34.402344-29.460938zm0 0" fill="url(#b)"/><path d="m112.003906 224.007812h224v16h-224zm0 0" fill="url(#c)"/><path d="m448.003906 75.644531c.003906-3.496093-2.265625-6.589843-5.601562-7.636719l-216-67.632812c-1.558594-.5-3.238282-.5-4.800782 0l-216 67.632812c-3.335937 1.046876-5.601562 4.140626-5.59765575 7.636719v404.363281h447.99999975zm-432 5.875 208-65.128906 208 65.128906v176.445313l-32 9.136718v-83.09375c0-4.417968-3.582031-8-8-8h-336c-4.417968 0-8 3.582032-8 8v83.09375l-32-9.136718zm368 190.144531-160 45.65625-160-45.65625v-79.65625h320zm48 192.34375h-416v-189.402343l208 59.351562 208-59.351562zm0 0" fill="url(#d)"/><path d="m112.003906 256.007812h224v16h-224zm0 0" fill="url(#e)"/></symbol><symbol id="comunicaciones" viewBox="-15 0 479 479.89467"><title>comunicaciones</title><linearGradient id="a"><stop offset="0" stop-color="#4761ac"/><stop offset="1" stop-color="#54c2ef"/></linearGradient><linearGradient id="b" gradientUnits="userSpaceOnUse" x1="-15.552665" x2="481.479335" xlink:href="#a" y1="239.95067" y2="239.95067"/><linearGradient id="c" gradientUnits="userSpaceOnUse" x1="-15.552665" x2="481.479335" xlink:href="#a" y1="127.89467" y2="127.89467"/><linearGradient id="d" gradientUnits="userSpaceOnUse" x1="-15.552665" x2="481.479335" xlink:href="#a" y1="95.89467" y2="95.89467"/><linearGradient id="e" gradientUnits="userSpaceOnUse" x1="-15.552665" x2="481.479335" xlink:href="#a" y1="159.89467" y2="159.89467"/><path d="m424.449219 200.863281v-152.96875c0-4.417969-3.582031-8-8-8h-150.195313l-36.039062-37.535156c-3.203125-3.144531-8.332032-3.144531-11.535156 0l-36.039063 37.535156h-150.191406c-4.421875 0-8 3.582031-8 8v152.96875c-15.152344 3.566407-24 17.542969-24 39.03125v200c.023437 22.082031 17.917969 39.972657 40 40h368c22.078125-.027343 39.972656-17.917969 40-40v-200c0-21.488281-8.851563-35.464843-24-39.03125zm-200-181.417969 19.628906 20.449219h-39.261719zm-184 36.449219h368v144c-1.972657 0-3.871094.726563-5.335938 2.039063l-146.402343 130.953125-26.648438-26.648438c-3.125-3.121093-8.1875-3.121093-11.3125 0l-26.648438 26.648438-146.316406-130.953125c-1.46875-1.3125-3.367187-2.039063-5.335937-2.039063zm-24 384v-200c0-15.574219 6.519531-23.054687 21.039062-23.910156l143.320313 128.230469-119.671875 119.679687h-20.6875c-13.257813 0-24-10.746093-24-24zm67.308593 24 140.691407-140.6875 140.6875 140.6875zm348.691407-24c0 13.253907-10.746094 24-24 24h-20.691407l-119.671874-119.679687 143.320312-128.230469c14.519531.855469 21.042969 8.335937 21.042969 23.910156zm0 0" fill="url(#b)"/><path d="m336.449219 183.894531c30.925781 0 56-25.070312 56-56 0-30.929687-25.074219-56-56-56-30.929688 0-56 25.070313-56 56 .035156 30.914063 25.085937 55.964844 56 56zm0-96c22.089843 0 40 17.910157 40 40 0 22.089844-17.910157 40-40 40-22.09375 0-40-17.910156-40-40 .023437-22.082031 17.917969-39.972656 40-40zm0 0" fill="url(#c)"/><path d="m72.449219 103.894531h168c4.417969 0 8-3.582031 8-8s-3.582031-8-8-8h-168c-4.421875 0-8 3.582031-8 8s3.578125 8 8 8zm0 0" fill="url(#d)"/><path d="m72.449219 135.894531h168c4.417969 0 8-3.582031 8-8s-3.582031-8-8-8h-168c-4.421875 0-8 3.582031-8 8s3.578125 8 8 8zm0 0" fill="url(#c)"/><path d="m72.449219 167.894531h104c4.417969 0 8-3.582031 8-8s-3.582031-8-8-8h-104c-4.421875 0-8 3.582031-8 8s3.578125 8 8 8zm0 0" fill="url(#e)"/></symbol><symbol id="correo-1" viewBox="0 -88 480 480"><title>correo-1</title><linearGradient id="a"><stop offset="0" stop-color="#006df0"/><stop offset="1" stop-color="#00e7f0"/></linearGradient><linearGradient id="b" gradientUnits="userSpaceOnUse" x1="254.912" x2="226.152" xlink:href="#a" y1="324.144" y2="-7.928"/><linearGradient id="c" gradientUnits="userSpaceOnUse" x1="451.36" x2="422.592" xlink:href="#a" y1="307.128" y2="-24.936"/><linearGradient id="d" gradientUnits="userSpaceOnUse" x1="457.544" x2="428.784" xlink:href="#a" y1="306.592" y2="-25.472"/><path d="m0 0v304h480v-304zm16 16h448v4.078125l-201.335938 155.921875h-44.136718l-202.527344-155.9375zm0 24.257812 162.183594 124.878907-162.183594 100.464843zm448 247.742188h-448v-3.542969l175.734375-108.898437 21.34375 16.441406h55.050781l20.269532-15.695312 175.601562 108.167968zm0-22.328125-162.078125-99.839844 162.078125-125.519531zm0 0" fill="url(#b)"/><path d="m432 128h16v96h-16zm0 0" fill="url(#c)"/><path d="m432 96h16v16h-16zm0 0" fill="url(#d)"/></symbol><symbol id="llamada-telefonica" viewBox="0 0 480 480"><title>llamada-telefonica</title><linearGradient id="a"><stop offset="0" stop-color="#4761ac"/><stop offset="1" stop-color="#54c2ef"/></linearGradient><linearGradient id="b" gradientUnits="userSpaceOnUse" x1="16" x2="489.688" xlink:href="#a" y1="111.996454" y2="111.996454"/><linearGradient id="c" gradientUnits="userSpaceOnUse" x1="16" x2="489.688" xlink:href="#a" y1="191.996454" y2="191.996454"/><linearGradient id="d" gradientUnits="userSpaceOnUse" x1="16" x2="489.688" xlink:href="#a" y1="255.996454" y2="255.996454"/><linearGradient id="e" gradientUnits="userSpaceOnUse" x1="16" x2="489.688" xlink:href="#a" y1="319.996454" y2="319.996454"/><linearGradient id="f" gradientUnits="userSpaceOnUse" x1="16" x2="489.688" xlink:href="#a" y1="383.996454" y2="383.996454"/><linearGradient id="g" gradientUnits="userSpaceOnUse" x1="16" x2="489.688" xlink:href="#a" y1="79.996454" y2="79.996454"/><linearGradient id="h" gradientUnits="userSpaceOnUse" x1="16" x2="489.688" xlink:href="#a" y1="399.996454" y2="399.996454"/><linearGradient id="i" gradientUnits="userSpaceOnUse" x1="16" x2="489.688" xlink:href="#a" y1="367.996454" y2="367.996454"/><linearGradient id="j" gradientUnits="userSpaceOnUse" x1="16" x2="489.688" xlink:href="#a" y1="239.996454" y2="239.996454"/><path d="m432 71.996094h-224c-4.417969 0-8 3.582031-8 8v64c0 4.417968 3.582031 8 8 8h224c4.417969 0 8-3.582032 8-8v-64c0-4.417969-3.582031-8-8-8zm-8 64h-208v-48h208zm0 0" fill="url(#b)"/><g fill="url(#c)"><path d="m224 167.996094c-13.253906 0-24 10.746094-24 24s10.746094 24 24 24 24-10.746094 24-24-10.746094-24-24-24zm0 32c-4.417969 0-8-3.582032-8-8 0-4.417969 3.582031-8 8-8s8 3.582031 8 8c0 4.417968-3.582031 8-8 8zm0 0"/><path d="m288 167.996094c-13.253906 0-24 10.746094-24 24s10.746094 24 24 24 24-10.746094 24-24-10.746094-24-24-24zm0 32c-4.417969 0-8-3.582032-8-8 0-4.417969 3.582031-8 8-8s8 3.582031 8 8c0 4.417968-3.582031 8-8 8zm0 0"/><path d="m352 167.996094c-13.253906 0-24 10.746094-24 24s10.746094 24 24 24 24-10.746094 24-24-10.746094-24-24-24zm0 32c-4.417969 0-8-3.582032-8-8 0-4.417969 3.582031-8 8-8s8 3.582031 8 8c0 4.417968-3.582031 8-8 8zm0 0"/><path d="m416 167.996094c-13.253906 0-24 10.746094-24 24s10.746094 24 24 24 24-10.746094 24-24-10.746094-24-24-24zm0 32c-4.417969 0-8-3.582032-8-8 0-4.417969 3.582031-8 8-8s8 3.582031 8 8c0 4.417968-3.582031 8-8 8zm0 0"/></g><path d="m224 231.996094c-13.253906 0-24 10.746094-24 24s10.746094 24 24 24 24-10.746094 24-24-10.746094-24-24-24zm0 32c-4.417969 0-8-3.582032-8-8 0-4.417969 3.582031-8 8-8s8 3.582031 8 8c0 4.417968-3.582031 8-8 8zm0 0" fill="url(#d)"/><path d="m288 231.996094c-13.253906 0-24 10.746094-24 24s10.746094 24 24 24 24-10.746094 24-24-10.746094-24-24-24zm0 32c-4.417969 0-8-3.582032-8-8 0-4.417969 3.582031-8 8-8s8 3.582031 8 8c0 4.417968-3.582031 8-8 8zm0 0" fill="url(#d)"/><path d="m352 231.996094c-13.253906 0-24 10.746094-24 24s10.746094 24 24 24 24-10.746094 24-24-10.746094-24-24-24zm0 32c-4.417969 0-8-3.582032-8-8 0-4.417969 3.582031-8 8-8s8 3.582031 8 8c0 4.417968-3.582031 8-8 8zm0 0" fill="url(#d)"/><path d="m416 231.996094c-13.253906 0-24 10.746094-24 24s10.746094 24 24 24 24-10.746094 24-24-10.746094-24-24-24zm0 32c-4.417969 0-8-3.582032-8-8 0-4.417969 3.582031-8 8-8s8 3.582031 8 8c0 4.417968-3.582031 8-8 8zm0 0" fill="url(#d)"/><path d="m224 295.996094c-13.253906 0-24 10.746094-24 24s10.746094 24 24 24 24-10.746094 24-24-10.746094-24-24-24zm0 32c-4.417969 0-8-3.582032-8-8 0-4.417969 3.582031-8 8-8s8 3.582031 8 8c0 4.417968-3.582031 8-8 8zm0 0" fill="url(#e)"/><path d="m288 295.996094c-13.253906 0-24 10.746094-24 24s10.746094 24 24 24 24-10.746094 24-24-10.746094-24-24-24zm0 32c-4.417969 0-8-3.582032-8-8 0-4.417969 3.582031-8 8-8s8 3.582031 8 8c0 4.417968-3.582031 8-8 8zm0 0" fill="url(#e)"/><path d="m352 295.996094c-13.253906 0-24 10.746094-24 24s10.746094 24 24 24 24-10.746094 24-24-10.746094-24-24-24zm0 32c-4.417969 0-8-3.582032-8-8 0-4.417969 3.582031-8 8-8s8 3.582031 8 8c0 4.417968-3.582031 8-8 8zm0 0" fill="url(#e)"/><path d="m416 295.996094c-13.253906 0-24 10.746094-24 24s10.746094 24 24 24 24-10.746094 24-24-10.746094-24-24-24zm0 32c-4.417969 0-8-3.582032-8-8 0-4.417969 3.582031-8 8-8s8 3.582031 8 8c0 4.417968-3.582031 8-8 8zm0 0" fill="url(#e)"/><path d="m224 359.996094c-13.253906 0-24 10.746094-24 24s10.746094 24 24 24 24-10.746094 24-24-10.746094-24-24-24zm0 32c-4.417969 0-8-3.582032-8-8 0-4.417969 3.582031-8 8-8s8 3.582031 8 8c0 4.417968-3.582031 8-8 8zm0 0" fill="url(#f)"/><path d="m288 359.996094c-13.253906 0-24 10.746094-24 24s10.746094 24 24 24 24-10.746094 24-24-10.746094-24-24-24zm0 32c-4.417969 0-8-3.582032-8-8 0-4.417969 3.582031-8 8-8s8 3.582031 8 8c0 4.417968-3.582031 8-8 8zm0 0" fill="url(#f)"/><path d="m352 359.996094c-13.253906 0-24 10.746094-24 24s10.746094 24 24 24 24-10.746094 24-24-10.746094-24-24-24zm0 32c-4.417969 0-8-3.582032-8-8 0-4.417969 3.582031-8 8-8s8 3.582031 8 8c0 4.417968-3.582031 8-8 8zm0 0" fill="url(#f)"/><path d="m416 359.996094c-13.253906 0-24 10.746094-24 24s10.746094 24 24 24 24-10.746094 24-24-10.746094-24-24-24zm0 32c-4.417969 0-8-3.582032-8-8 0-4.417969 3.582031-8 8-8s8 3.582031 8 8c0 4.417968-3.582031 8-8 8zm0 0" fill="url(#f)"/><path d="m136 71.996094h-64c-4.417969 0-8 3.582031-8 8 0 4.417968 3.582031 8 8 8h64c4.417969 0 8-3.582032 8-8 0-4.417969-3.582031-8-8-8zm0 0" fill="url(#g)"/><path d="m136 391.996094h-64c-4.417969 0-8 3.582031-8 8 0 4.417968 3.582031 8 8 8h64c4.417969 0 8-3.582032 8-8 0-4.417969-3.582031-8-8-8zm0 0" fill="url(#h)"/><path d="m72 375.996094h8c4.417969 0 8-3.582032 8-8 0-4.417969-3.582031-8-8-8h-8c-4.417969 0-8 3.582031-8 8 0 4.417968 3.582031 8 8 8zm0 0" fill="url(#i)"/><path d="m456 39.996094h-288.191406c-11.84375-24.460938-36.632813-39.996094-63.808594-39.996094s-51.964844 15.535156-63.808594 39.996094h-16.191406c-13.253906 0-24 10.746094-24 24v352c0 13.253906 10.746094 24 24 24h16.191406c11.84375 24.460937 36.632813 39.996094 63.808594 39.996094s51.964844-15.535157 63.808594-39.996094h288.191406c13.253906 0 24-10.746094 24-24v-352c0-13.253906-10.746094-24-24-24zm-432 384c-4.417969 0-8-3.582032-8-8v-352c0-4.417969 3.582031-8 8-8h10.296875c-1.503906 5.980468-2.273437 12.121094-2.296875 18.289062v331.421875c.023438 6.167969.792969 12.308594 2.296875 18.289063zm80 40c-31.539062-.683594-56.582031-26.746094-56-58.289063v-331.421875c-.582031-31.539062 24.460938-57.605468 56-58.289062 31.539062.683594 56.582031 26.75 56 58.289062v331.421875c.582031 31.542969-24.460938 57.605469-56 58.289063zm360-48c0 4.417968-3.582031 8-8 8h-282.296875c1.503906-5.980469 2.273437-12.121094 2.296875-18.289063v-331.421875c-.023438-6.167968-.792969-12.308594-2.296875-18.289062h282.296875c4.417969 0 8 3.582031 8 8zm0 0" fill="url(#j)"/></symbol><symbol id="llamada-telefonica-1" viewBox="-112 0 480 480.00001"><title>llamada-telefonica-1</title><linearGradient id="a"><stop offset="0" stop-color="#4761ac"/><stop offset="1" stop-color="#54c2ef"/></linearGradient><linearGradient id="b" gradientUnits="userSpaceOnUse" x1="-135.999995" x2="385.536005" xlink:href="#a" y1="240.000008" y2="240.000008"/><linearGradient id="c" gradientUnits="userSpaceOnUse" x1="-135.999995" x2="385.536005" xlink:href="#a" y1="424.000008" y2="424.000008"/><linearGradient id="d" gradientUnits="userSpaceOnUse" x1="-135.999995" x2="385.536005" xlink:href="#a" y1="40.000008" y2="40.000008"/><linearGradient id="e" gradientUnits="userSpaceOnUse" x1="-135.999995" x2="385.536005" xlink:href="#a" y1="40.048008" y2="40.048008"/><linearGradient id="f" gradientUnits="userSpaceOnUse" x1="-135.999995" x2="385.536005" xlink:href="#a" y1="160.000008" y2="160.000008"/><linearGradient id="g" gradientUnits="userSpaceOnUse" x1="-135.999995" x2="385.536005" xlink:href="#a" y1="188.000008" y2="188.000008"/><linearGradient id="h" gradientUnits="userSpaceOnUse" x1="-135.999995" x2="385.536005" xlink:href="#a" y1="236.000008" y2="236.000008"/><linearGradient id="i" gradientUnits="userSpaceOnUse" x1="-135.999995" x2="385.536005" xlink:href="#a" y1="276.000008" y2="276.000008"/><path d="m38.488281 477.160156.375.136719c1.191407.382813 2.402344.679687 3.625.984375.6875.175781 1.359375.382812 2.0625.535156.921875.191406 4.679688.800782 5.648438.878906 1.925781.203126 3.863281.304688 5.800781.304688h144c1.9375 0 3.875-.101562 5.800781-.304688.96875-.09375 4.726563-.6875 5.648438-.878906.703125-.152344 1.375-.359375 2.0625-.535156 1.214843-.304688 2.398437-.601562 3.625-.984375l.375-.136719c22.941406-7.578125 38.449219-29 38.488281-53.160156v-376c0-20.800781-21.550781-44.800781-50.28125-47.710938-1.898438-.195312-3.808594-.289062-5.71875-.289062h-144c-1.910156 0-3.820312.09375-5.71875.289062-28.730469 2.910157-50.28125 26.910157-50.28125 47.710938v376c.0390625 24.160156 15.546875 45.582031 38.488281 53.160156zm-22.488281-397.160156h224v288h-224zm40 384c-2.597656-.011719-5.191406-.28125-7.734375-.800781l-.449219-.070313c-2.070312-.46875-4.101562-1.097656-6.074218-1.890625-15.652344-6.292969-25.742188-23.132812-25.742188-45.238281v-32h224v32c0 22.105469-10.089844 38.945312-25.742188 45.257812-1.972656.789063-4.003906 1.417969-6.074218 1.886719l-.449219.070313c-2.546875.515625-5.136719.777344-7.734375.785156zm144-448c2.6875-.003906 5.367188.265625 8 .800781.304688.0625.574219.191407.878906.253907 18.183594 4.140624 31.09375 20.296874 31.121094 38.945312v8h-224v-8c.03125-18.648438 12.949219-34.804688 31.136719-38.9375.304687-.0625.574219-.191406.878906-.253906 2.628906-.539063 5.300781-.808594 7.984375-.808594zm0 0" fill="url(#b)"/><path d="m128 400c-13.253906 0-24 10.746094-24 24s10.746094 24 24 24 24-10.746094 24-24-10.746094-24-24-24zm0 32c-4.417969 0-8-3.582031-8-8s3.582031-8 8-8 8 3.582031 8 8-3.582031 8-8 8zm0 0" fill="url(#c)"/><path d="m104 48h48c4.417969 0 8-3.582031 8-8s-3.582031-8-8-8h-48c-4.417969 0-8 3.582031-8 8s3.582031 8 8 8zm0 0" fill="url(#d)"/><path d="m72 48c3.25.019531 6.1875-1.929688 7.433594-4.933594 1.246094-3 .554687-6.457031-1.753906-8.746094-2.289063-2.308593-5.746094-3-8.746094-1.753906-3.003906 1.246094-4.953125 4.183594-4.933594 7.433594-.023438 2.128906.8125 4.175781 2.320312 5.679688 1.503907 1.507812 3.550782 2.34375 5.679688 2.320312zm0 0" fill="url(#e)"/><path d="m117.65625 133.65625c3.03125-3.140625 2.988281-8.128906-.097656-11.214844-3.085938-3.085937-8.074219-3.128906-11.214844-.097656l-64 64c-2.078125 2.007812-2.914062 4.984375-2.179688 7.78125.730469 2.796875 2.914063 4.980469 5.710938 5.710938 2.796875.734374 5.773438-.101563 7.78125-2.179688zm0 0" fill="url(#f)"/><path d="m189.832031 122.527344c-3.023437-3.21875-8.082031-3.378906-11.304687-.359375l-128 120c-2.171875 1.933593-3.125 4.894531-2.488282 7.730469.640626 2.839843 2.765626 5.105468 5.558594 5.925781 2.792969.816406 5.808594.054687 7.875-1.992188l128-120c3.21875-3.023437 3.378906-8.082031.359375-11.304687zm0 0" fill="url(#g)"/><path d="m173.65625 210.34375c-3.125-3.121094-8.1875-3.121094-11.3125 0l-40 40c-2.078125 2.007812-2.914062 4.984375-2.179688 7.78125.730469 2.796875 2.914063 4.980469 5.710938 5.710938 2.796875.734374 5.773438-.101563 7.78125-2.179688l40-40c3.121094-3.125 3.121094-8.1875 0-11.3125zm0 0" fill="url(#h)"/><path d="m221.65625 234.34375c-3.125-3.121094-8.1875-3.121094-11.3125 0l-72 72c-2.078125 2.007812-2.914062 4.984375-2.179688 7.78125.730469 2.796875 2.914063 4.980469 5.710938 5.710938 2.796875.734374 5.773438-.101563 7.78125-2.179688l72-72c3.121094-3.125 3.121094-8.1875 0-11.3125zm0 0" fill="url(#i)"/></symbol><symbol id="mapas-y-localizacion" viewBox="0 0 512.00031 512"><title>mapas-y-localizacion</title><linearGradient id="a" gradientUnits="userSpaceOnUse" x1=".000276" x2="511.9999885806" y1="255.9780632862" y2="255.9780632862"><stop offset="0" stop-color="#80d8ff"/><stop offset="1" stop-color="#ea80fc"/></linearGradient><path d="m315.996094 151.097656c0-33.082031-26.914063-59.996094-59.996094-59.996094s-59.996094 26.914063-59.996094 59.996094c0 33.082032 26.914063 59.996094 59.996094 59.996094s59.996094-26.914062 59.996094-59.996094zm-79.996094 0c0-11.027344 8.972656-20 20-20s19.996094 8.972656 19.996094 20-8.96875 20-19.996094 20-20-8.972656-20-20zm273.867188 331.917969-78.660157-157.320313c-3.386719-6.773437-10.3125-11.054687-17.886719-11.054687h-57.703124c34.171874-58.214844 51.480468-113.117187 51.480468-163.542969 0-83.316406-67.78125-151.097656-151.097656-151.097656s-151.097656 67.78125-151.097656 151.097656c0 50.425782 17.308594 105.328125 51.476562 163.542969h-57.699218c-7.574219 0-14.5 4.277344-17.886719 11.054687l-78.660157 157.320313c-6.636718 13.269531 3.023438 28.941406 17.886719 28.941406h471.960938c14.835937 0 24.535156-15.648437 17.886719-28.941406zm-253.867188-443.019531c61.261719 0 111.101562 49.839844 111.101562 111.101562 0 96.289063-78.351562 195.453125-111.117187 232.703125-32.777344-37.210937-111.089844-136.214843-111.089844-232.703125.003907-61.261718 49.84375-111.101562 111.105469-111.101562zm-203.625 431.964844 58.664062-117.324219h71.113282c30.449218 43.375 58.425781 71.523437 59.707031 72.804687 7.800781 7.804688 20.472656 7.808594 28.28125 0 1.277344-1.28125 29.257813-29.429687 59.703125-72.804687h71.117188l58.660156 117.324219zm0 0" fill="url(#a)"/></symbol><symbol id="mapas-y-localizacion-1" viewBox="-72 0 480 480"><title>mapas-y-localizacion-1</title><linearGradient id="a"><stop offset="0" stop-color="#006df0"/><stop offset="1" stop-color="#00e7f0"/></linearGradient><linearGradient id="b" gradientUnits="userSpaceOnUse" x1="184" x2="184" xlink:href="#a" y1="475.704" y2="-136.592"/><linearGradient id="c" gradientUnits="userSpaceOnUse" x1="152" x2="152" xlink:href="#a" y1="475.704" y2="-136.592"/><linearGradient id="d" gradientUnits="userSpaceOnUse" x1="208" x2="208" xlink:href="#a" y1="475.704" y2="-136.592"/><linearGradient id="e" gradientUnits="userSpaceOnUse" x1="168" x2="168" xlink:href="#a" y1="475.704" y2="-136.592"/><path d="m224 184h-24c-4.417969 0-8-3.582031-8-8v-12l-24.273438-18.199219-19.285156 12.855469c-3.675781 2.453125-8.644531 1.460938-11.097656-2.214844-2.453125-3.675781-1.460938-8.644531 2.214844-11.097656l24-16c2.824218-1.882812 6.527344-1.78125 9.242187.257812l32 24c2.011719 1.507813 3.199219 3.878907 3.199219 6.398438v8h16c4.417969 0 8 3.582031 8 8s-3.582031 8-8 8zm0 0" fill="url(#b)"/><path d="m120 224c-3.234375 0-6.152344-1.949219-7.390625-4.9375s-.550781-6.429688 1.734375-8.71875l48-48c1.695312-1.695312 4.058594-2.539062 6.445312-2.304688 2.382813.234376 4.535157 1.527344 5.867188 3.519532l16 24c2.117188 3.175781 1.695312 7.402344-1 10.097656l-16 16c-3.140625 3.03125-8.128906 2.988281-11.214844-.097656-3.085937-3.085938-3.128906-8.074219-.097656-11.214844l11.359375-11.359375-6.941406-10.398437-41.105469 41.101562c-1.503906 1.488281-3.539062 2.320312-5.65625 2.3125zm0 0" fill="url(#c)"/><path d="m208 144c-8.835938 0-16-7.164062-16-16s7.164062-16 16-16 16 7.164062 16 16-7.164062 16-16 16zm0-16" fill="url(#d)"/><g fill="url(#e)"><path d="m168 264c-53.019531 0-96-42.980469-96-96s42.980469-96 96-96 96 42.980469 96 96c-.058594 52.996094-43.003906 95.941406-96 96zm0-176c-44.183594 0-80 35.816406-80 80s35.816406 80 80 80 80-35.816406 80-80c-.046875-44.164062-35.835938-79.953125-80-80zm0 0"/><path d="m220.945312 387.503906c47.855469-62.230468 115.054688-160.105468 115.054688-219.503906 0-92.785156-75.214844-168-168-168s-168 75.214844-168 168c0 59.398438 67.199219 157.273438 115.054688 219.503906-42.398438 5.921875-83.054688 20.097656-83.054688 44.496094 0 31.511719 68.414062 48 136 48s136-16.488281 136-48c0-24.398438-40.65625-38.574219-83.054688-44.496094zm-52.945312-371.503906c83.910156.09375 151.90625 68.089844 152 152 0 74.832031-123.0625 225.3125-152 259.664062-28.953125-34.398437-152-184.800781-152-259.664062.09375-83.910156 68.089844-151.90625 152-152zm0 448c-73.246094 0-120-18.953125-120-32 0-8.742188 25.039062-23.960938 78.519531-29.800781 19.296875 24.417969 33.542969 40.871093 35.449219 43.058593 1.519531 1.742188 3.71875 2.742188 6.03125 2.742188s4.511719-1 6.03125-2.742188c1.90625-2.1875 16.152344-18.640624 35.449219-43.058593 53.480469 5.839843 78.519531 21.058593 78.519531 29.800781 0 13.046875-46.753906 32-120 32zm0 0"/></g></symbol><symbol id="mapas-y-localizacion-2" viewBox="0 -5 469.9037 469"><title>mapas-y-localizacion-2</title><linearGradient id="a" gradientUnits="userSpaceOnUse" x1="234.952355" x2="234.952355" y1="-3.35626" y2="462.16474"><stop offset="0" stop-color="#00efd1"/><stop offset="1" stop-color="#00acea"/></linearGradient><g fill="url(#a)"><path d="m234.953125 213.839844c47.074219 0 85.234375-38.160156 85.234375-85.234375.003906-47.070313-38.15625-85.234375-85.230469-85.234375-47.074219-.003906-85.234375 38.15625-85.238281 85.230468.050781 47.050782 38.179688 85.183594 85.234375 85.238282zm0-154.46875c38.238281 0 69.234375 30.996094 69.234375 69.234375s-31 69.238281-69.238281 69.234375c-38.238281 0-69.234375-31-69.230469-69.238282.046875-38.21875 31.015625-69.1875 69.234375-69.230468zm0 0"/><path d="m469.761719 450.917969-43.910157-230.988281c-.722656-3.761719-4.03125-6.464844-7.859374-6.429688h-79.539063c34.261719-43.585938 37.550781-103.964844 8.230469-151.015625-29.324219-47.050781-84.976563-70.695313-139.199219-59.140625-54.21875 11.554688-95.394531 55.835938-102.984375 110.757812-3.730469 27.820313 1.371094 56.109376 14.585938 80.875.015624.035157.035156.148438.054687.179688 3.625 6.332031 7.601563 12.457031 11.910156 18.34375h-79.140625c-3.828125-.035156-7.132812 2.667969-7.859375 6.429688l-43.910156 231.027343c-.445313 2.347657.175781 4.769531 1.695313 6.613281 1.515624 1.84375 3.777343 2.917969 6.164062 2.929688h453.902344c2.390625-.019531 4.652344-1.101562 6.171875-2.953125 1.515625-1.851563 2.132812-4.277344 1.6875-6.628906zm-349.410157-334.652344c6.125-43.464844 36.285157-79.730469 77.902344-93.671875 41.617188-13.945312 87.539063-3.171875 118.613282 27.828125 21.742187 21.601563 33.90625 51.027344 33.761718 81.679687-.054687 30.859376-12.414062 60.425782-34.335937 82.148438l-81.628907 81.625-81.628906-81.625c-7.855468-7.984375-14.546875-17.035156-19.882812-26.882812-11.601563-21.777344-16.078125-46.648438-12.800782-71.101563zm-61.816406 113.234375h86.960938l83.511718 83.429688c3.144532 3.0625 8.15625 3.074218 11.3125.019531l83.507813-83.449219h87.542969l16.671875 88h-50.664063c-4.417968 0-8.425781 3.15625-8.425781 7.574219v119.425781h-108v-46c0-4.417969-3.582031-8-8-8h-82v-38c0-4.417969-3.582031-8-8-8h-126.300781zm-24.925781 131h121.34375v38c0 4.417969 3.582031 8 8 8h82v38h-227.289063zm351.34375 84v-111h46.128906l21.160157 111zm0 0"/></g></symbol><symbol id="twitter" viewBox="0 -48 512 512"><title>twitter</title><linearGradient id="a" gradientUnits="userSpaceOnUse" x1="256" x2="256" y1="0" y2="416.082"><stop offset="0" stop-color="#2af598"/><stop offset="1" stop-color="#009efd"/></linearGradient><path d="m512 49c-19.171875 8.496094-40.175781 13.539062-61 16 21.929688-13.128906 38.160156-33.675781 46-58-20.621094 12.234375-42.332031 21.363281-65.855469 26-20.328125-21.617188-47.640625-33-75.144531-33-27 0-52.796875 9.105469-73.480469 28.558594-21.34375 20.070312-33.476562 47.835937-33.519531 76.441406-.011719 7.960938 1.285156 15.984375 3.128906 23.925781-84.460937-4.234375-162.789062-44.300781-216.128906-109.925781-9.667969 16.644531-15.011719 35.027344-15 53 .023438 33.851562 16.847656 66.863281 47 87-16.71875-.496094-33.390625-3.855469-48-12v1.914062c.015625 50.003907 35.984375 91.183594 85 101.085938-8.660156 2.363281-19.890625 4.035156-28.910156 4.035156-.03125 0-.0625 0-.089844 0-7.050781-.011718-14.101562-.707031-21-2.035156 13.761719 42.792969 56.058594 74.15625 101 75-37.195312 29.234375-95 43-130.992188 43-8.359374-.015625-16.710937-.007812-25.007812-1 47.925781 30.753906 103.675781 47 160.613281 47h.398438v.082031c191.988281 0 298.988281-160.117187 298.988281-298.933593 0-4.546876-.691406-9.644532-1-14.148438 20.558594-14.871094 38.894531-32.90625 53-54zm-109.144531 159.296875c-11.78125 31.226563-28.710938 59.445313-50.316407 83.875-22.910156 25.902344-50.046874 46.238281-80.648437 60.4375-31.488281 14.609375-66.261719 22.460937-103.460937 23.378906l-7.488282.011719h-.328125c-2.164062 0-4.324219-.027344-6.480469-.082031 9.410157-5.195313 18.367188-11.011719 26.582032-17.46875 20.648437-19.179688 29.863281-43.476563 33.285156-70.367188 0 0-16.832031 2.046875-36 1.917969-14.851562-.101562-31.101562-1.320312-42.023438-6.988281 27.179688-12.21875 41.464844-32.476563 47.277344-58.011719-23.253906 2-77.253906-10-96.625-25.429688 21.371094-7.570312 41.371094-23.570312 49.371094-36.570312 0 0-38-18-64.824219-56.589844 52.101563 37.175782 114.148438 59.21875 178.953125 62.464844l52.871094 2.125-10.9375-46.9375-2.042969-9.308594c-.6875-3.773437-1.023437-6.972656-1.019531-9.695312.023438-17.617188 7.652344-34.882813 20.921875-47.363282 12.484375-11.742187 27.988281-17.695312 46.078125-17.695312 13.363281 0 26.558594 4.570312 37.511719 12.796875 17.488281 15.203125 26.488281 35.203125 26.488281 64.351563 0 29.910156-5.929688 61.429687-17.144531 91.148437zm0 0" fill="url(#a)"/></symbol><symbol id="instagram" viewBox="0 0 512 512.00006"><title>instagram</title><linearGradient id="a" gradientUnits="userSpaceOnUse" x1="255.99013" x2="255.99013" y1=".000061" y2="512.000261"><stop offset="0" stop-color="#2af598"/><stop offset="1" stop-color="#009efd"/></linearGradient><path d="m261.039062 512c-1.695312 0-3.390624 0-5.097656-.007812-40.132812.097656-77.214844-.921876-113.277344-3.117188-33.0625-2.011719-63.242187-13.4375-87.28125-33.039062-23.195312-18.914063-39.035156-44.488282-47.078124-76.003907-7-27.4375-7.371094-54.371093-7.726563-80.421875-.257813-18.691406-.5234375-40.839844-.578125-63.363281.0546875-22.617187.320312-44.765625.578125-63.457031.355469-26.046875.726563-52.980469 7.726563-80.421875 8.042968-31.515625 23.882812-57.089844 47.078124-76.003907 24.039063-19.601562 54.21875-31.027343 87.285157-33.039062 36.0625-2.191406 73.152343-3.2148438 113.371093-3.1171875 40.144532-.0859375 77.214844.9257815 113.277344 3.1171875 33.0625 2.011719 63.242188 13.4375 87.28125 33.039062 23.199219 18.914063 39.035156 44.488282 47.078125 76.003907 7 27.4375 7.371094 54.375 7.726563 80.421875.257812 18.691406.527344 40.839844.578125 63.363281v.09375c-.050781 22.523437-.320313 44.671875-.578125 63.363281-.355469 26.046875-.722656 52.980469-7.726563 80.421875-8.042969 31.515625-23.878906 57.089844-47.078125 76.003907-24.039062 19.601562-54.21875 31.027343-87.28125 33.039062-34.535156 2.101562-70.011718 3.125-108.277344 3.125zm-5.097656-40.007812c39.480469.09375 75.730469-.902344 110.945313-3.042969 25-1.519531 46.675781-9.632813 64.433593-24.113281 16.414063-13.386719 27.71875-31.855469 33.597657-54.894532 5.828125-22.839844 6.164062-47.363281 6.488281-71.078125.253906-18.566406.519531-40.558593.574219-62.863281-.054688-22.308594-.320313-44.296875-.574219-62.863281-.324219-23.714844-.660156-48.238281-6.488281-71.082031-5.878907-23.039063-17.183594-41.507813-33.597657-54.894532-17.757812-14.476562-39.433593-22.589844-64.433593-24.109375-35.214844-2.144531-71.464844-3.132812-110.851563-3.046875-39.472656-.09375-75.726562.902344-110.941406 3.046875-25 1.519531-46.675781 9.632813-64.433594 24.109375-16.414062 13.386719-27.71875 31.855469-33.597656 54.894532-5.828125 22.84375-6.164062 47.363281-6.488281 71.082031-.253907 18.582031-.519531 40.585937-.574219 62.910156.054688 22.226563.320312 44.234375.574219 62.816406.324219 23.714844.660156 48.238281 6.488281 71.078125 5.878906 23.039063 17.183594 41.507813 33.597656 54.894532 17.757813 14.476562 39.433594 22.589843 64.433594 24.109374 35.214844 2.144532 71.476562 3.144532 110.847656 3.046876zm-.953125-90.992188c-68.921875 0-125-56.074219-125-125s56.078125-125 125-125c68.925781 0 125 56.074219 125 125s-56.074219 125-125 125zm0-210c-46.867187 0-85 38.132812-85 85s38.132813 85 85 85c46.871094 0 85-38.132812 85-85s-38.128906-85-85-85zm139-80c-16.566406 0-30 13.429688-30 30s13.433594 30 30 30c16.570313 0 30-13.429688 30-30s-13.429687-30-30-30zm0 0" fill="url(#a)"/></symbol><symbol id="facebook" viewBox="0 0 512 512"><title>facebook</title><linearGradient id="a" gradientUnits="userSpaceOnUse" x1="256" x2="256" y1="0" y2="512"><stop offset="0" stop-color="#2af598"/><stop offset="1" stop-color="#009efd"/></linearGradient><path d="m452 0h-392c-33.085938 0-60 26.914062-60 60v392c0 33.085938 26.914062 60 60 60h392c33.085938 0 60-26.914062 60-60v-392c0-33.085938-26.914062-60-60-60zm20 452c0 11.027344-8.972656 20-20 20h-118v-146h64.027344l7.460937-62h-71.488281v-67c0-17.101562 12.898438-30 30-30h45v-58c-11.84375-1.671875-34.691406-4-45-4-23.324219 0-46.703125 9.839844-64.140625 26.992188-17.964844 17.671874-27.859375 40.820312-27.859375 65.183593v66.824219h-65v62h65v146h-212c-11.027344 0-20-8.972656-20-20v-392c0-11.027344 8.972656-20 20-20h392c11.027344 0 20 8.972656 20 20zm0 0" fill="url(#a)"/></symbol><symbol id="youtube" viewBox="0 -71 511.99912 511"><title>youtube</title><linearGradient id="a" gradientUnits="userSpaceOnUse" x1="256.0006839" x2="256.0006839" y1=".499176902" y2="370.491976898"><stop offset="0" stop-color="#2af598"/><stop offset="1" stop-color="#009efd"/></linearGradient><path d="m255.980469 370.492188c-.042969 0-.089844 0-.136719 0-15.449219-.105469-152.027344-1.351563-190.722656-11.816407-27.042969-7.269531-48.390625-28.59375-55.679688-55.640625-10.125-38.011718-9.4804685-111.195312-9.410156-117.039062-.0664062-5.816406-.71875-79.605469 9.378906-117.929688.011719-.035156.019532-.074218.03125-.109375 7.207032-26.738281 29.035156-48.722656 55.613282-56.011719.066406-.019531.136718-.035156.203124-.054687 38.257813-10.054687 175.105469-11.285156 190.585938-11.390625h.277344c15.488281.105469 152.429687 1.351562 190.769531 11.832031 26.972656 7.25 48.304687 28.546875 55.613281 55.558594 10.503906 38.351563 9.53125 112.300781 9.425782 118.542969.074218 6.148437.6875 78.675781-9.378907 116.878906-.007812.039062-.019531.074219-.027343.109375-7.292969 27.046875-28.636719 48.371094-55.710938 55.648437-.035156.011719-.074219.019532-.109375.03125-38.253906 10.050782-175.105469 11.28125-190.582031 11.390626-.046875 0-.09375 0-.140625 0zm-207.90625-292.167969c-8.890625 33.828125-8.050781 106.675781-8.042969 107.410156v.527344c-.265625 20.203125.667969 78.710937 8.046875 106.421875 3.578125 13.269531 14.105469 23.78125 27.457031 27.371094 28.550782 7.722656 139.789063 10.152343 180.445313 10.4375 40.761719-.285157 152.164062-2.648438 180.503906-10.0625 13.308594-3.601563 23.800781-14.078126 27.402344-27.363282 7.386719-28.117187 8.3125-86.339844 8.042969-106.414062 0-.210938 0-.421875.003906-.632813.367187-20.445312-.355469-79.636719-8.011719-107.570312-.007813-.027344-.015625-.054688-.019531-.082031-3.59375-13.328126-14.125-23.839844-27.476563-27.429688-28.273437-7.730469-139.691406-10.152344-180.445312-10.4375-40.734375.285156-152.027344 2.644531-180.453125 10.050781-13.097656 3.632813-23.863282 14.519531-27.453125 27.773438zm435.136719 219.894531h.011718zm-278.210938-31.726562v-161.996094l140 81zm0 0" fill="url(#a)"/></symbol><symbol id="mensajero" viewBox="0 0 512 511"><title>mensajero</title><linearGradient id="a" gradientUnits="userSpaceOnUse" x1="256" x2="256" y1=".5005" y2="512.4775"><stop offset="0" stop-color="#2af598"/><stop offset="1" stop-color="#009efd"/></linearGradient><path d="m120.65625 512.476562c-7.25 0-14.445312-2.023437-20.761719-6.007812-10.929687-6.902344-17.703125-18.734375-18.117187-31.660156l-1.261719-41.390625c-51.90625-46.542969-80.515625-111.890625-80.515625-183.992188 0-68.816406 26.378906-132.101562 74.269531-178.199219 47.390625-45.609374 111.929688-70.726562 181.730469-70.726562s134.339844 25.117188 181.730469 70.726562c47.890625 46.097657 74.269531 109.382813 74.269531 178.199219 0 68.8125-26.378906 132.097657-74.269531 178.195313-47.390625 45.609375-111.929688 70.730468-181.730469 70.730468-25.164062 0-49.789062-3.253906-73.195312-9.667968l-46.464844 20.5c-5.035156 2.207031-10.371094 3.292968-15.683594 3.292968zm135.34375-471.976562c-123.140625 0-216 89.816406-216 208.925781 0 60.667969 23.957031 115.511719 67.457031 154.425781 8.023438 7.226563 12.628907 17.015626 13.015625 27.609376l.003906.125 1.234376 40.332031 45.300781-19.988281c8.15625-3.589844 17.355469-4.28125 25.921875-1.945313 20.132812 5.554687 41.332031 8.363281 63.066406 8.363281 123.140625 0 216-89.816406 216-208.921875 0-119.109375-92.859375-208.925781-216-208.925781zm-125.863281 290.628906 74.746093-57.628906c5.050782-3.789062 12.003907-3.839844 17.101563-.046875l55.308594 42.992187c16.578125 12.371094 40.304687 8.007813 51.355469-9.433593l69.519531-110.242188c6.714843-10.523437-6.335938-22.417969-16.292969-14.882812l-74.710938 56.613281c-5.050781 3.792969-12.003906 3.839844-17.101562.046875l-55.308594-41.988281c-16.578125-12.371094-40.304687-8.011719-51.355468 9.429687l-69.554688 110.253907c-6.714844 10.523437 6.335938 22.421874 16.292969 14.886718zm0 0" fill="url(#a)"/></symbol></svg>