<svg height="480pt" viewBox="0 -36 480 480" width="480pt" xmlns="http://www.w3.org/2000/svg" xmlns:xlink="http://www.w3.org/1999/xlink"><linearGradient id="a"><stop offset="0" stop-color="#84aa50"/><stop offset="1" stop-color="#00acc9"/></linearGradient><linearGradient id="b" gradientUnits="userSpaceOnUse" x1="-16" x2="482.32" xlink:href="#a" y1="96" y2="96"/><linearGradient id="c" gradientUnits="userSpaceOnUse" x1="-16" x2="482.32" xlink:href="#a" y1="104" y2="104"/><linearGradient id="d" gradientUnits="userSpaceOnUse" x1="-16" x2="482.32" xlink:href="#a" y1="260" y2="260"/><linearGradient id="e" gradientUnits="userSpaceOnUse" x1="-16" x2="482.32" xlink:href="#a" y1="356" y2="356"/><linearGradient id="f" gradientUnits="userSpaceOnUse" x1="-16" x2="482.32" xlink:href="#a" y1="264" y2="264"/><linearGradient id="g" gradientUnits="userSpaceOnUse" x1="-16" x2="482.32" xlink:href="#a" y1="296" y2="296"/><linearGradient id="h" gradientUnits="userSpaceOnUse" x1="-16" x2="482.32" xlink:href="#a" y1="280" y2="280"/><linearGradient id="i" gradientUnits="userSpaceOnUse" x1="-16" x2="482.32" xlink:href="#a" y1="216" y2="216"/><linearGradient id="j" gradientUnits="userSpaceOnUse" x1="-16" x2="482.32" xlink:href="#a" y1="336" y2="336"/><linearGradient id="k" gradientUnits="userSpaceOnUse" x1="-16" x2="482.32" xlink:href="#a" y1="328" y2="328"/><linearGradient id="l" gradientUnits="userSpaceOnUse" x1="-16" x2="482.32" xlink:href="#a" y1="320" y2="320"/><linearGradient id="m" gradientUnits="userSpaceOnUse" x1="-16" x2="482.32" xlink:href="#a" y1="120" y2="120"/><path d="m0 160h16v32h448v-32h16v-160h-480zm448 16h-416v-16h416zm-432-160h448v128h-448zm0 0" fill="url(#b)"/><path d="m440 80h-80c-4.417969 0-8 3.582031-8 8v32c0 4.417969 3.582031 8 8 8h80c4.417969 0 8-3.582031 8-8v-32c0-4.417969-3.582031-8-8-8zm-8 32h-64v-16h64zm0 0" fill="url(#c)"/><path d="m226.71875 304c0 4.417969 3.582031 8 8 8s8-3.582031 8-8c-.0625-3.691406 1.289062-7.269531 3.777344-10 9.042968-11.3125 9.042968-27.382812 0-38.695312-5.050782-5.710938-5.050782-14.289063 0-20 4.449218-5.441407 6.851562-12.273438 6.785156-19.304688 0-4.417969-3.582031-8-8-8s-8 3.582031-8 8c.0625 3.683594-1.289062 7.25-3.777344 9.96875-9.046875 11.304688-9.046875 27.371094 0 38.679688 5.027344 5.71875 5.027344 14.28125 0 20-4.457031 5.457031-6.859375 12.304687-6.785156 19.351562zm0 0" fill="url(#d)"/><path d="m34.71875 304c0 4.417969 3.582031 8 8 8s8-3.582031 8-8c-.0625-3.691406 1.289062-7.269531 3.777344-10 9.042968-11.3125 9.042968-27.382812 0-38.695312-5.050782-5.710938-5.050782-14.289063 0-20 4.449218-5.441407 6.851562-12.273438 6.785156-19.304688 0-4.417969-3.582031-8-8-8s-8 3.582031-8 8c.0625 3.683594-1.289062 7.25-3.777344 9.96875-9.046875 11.304688-9.046875 27.371094 0 38.679688 5.027344 5.71875 5.027344 14.28125 0 20-4.457031 5.457031-6.859375 12.304687-6.785156 19.351562zm0 0" fill="url(#d)"/><path d="m98.71875 400c0 4.417969 3.582031 8 8 8s8-3.582031 8-8c-.0625-3.691406 1.289062-7.269531 3.777344-10 9.042968-11.3125 9.042968-27.382812 0-38.695312-5.050782-5.710938-5.050782-14.289063 0-20 4.449218-5.441407 6.851562-12.273438 6.785156-19.304688 0-4.417969-3.582031-8-8-8s-8 3.582031-8 8c.0625 3.683594-1.289062 7.25-3.777344 9.96875-9.046875 11.304688-9.046875 27.371094 0 38.679688 5.027344 5.71875 5.027344 14.28125 0 20-4.457031 5.457031-6.859375 12.304687-6.785156 19.351562zm0 0" fill="url(#e)"/><path d="m354.71875 400c0 4.417969 3.582031 8 8 8s8-3.582031 8-8c-.0625-3.691406 1.289062-7.269531 3.777344-10 9.042968-11.3125 9.042968-27.382812 0-38.695312-5.050782-5.710938-5.050782-14.289063 0-20 4.449218-5.441407 6.851562-12.273438 6.785156-19.304688 0-4.417969-3.582031-8-8-8s-8 3.582031-8 8c.0625 3.683594-1.289062 7.25-3.777344 9.96875-9.046875 11.304688-9.046875 27.371094 0 38.679688 5.027344 5.71875 5.027344 14.28125 0 20-4.457031 5.457031-6.859375 12.304687-6.785156 19.351562zm0 0" fill="url(#e)"/><path d="m168 256h16v16h-16zm0 0" fill="url(#f)"/><path d="m168 288h16v16h-16zm0 0" fill="url(#g)"/><path d="m152 272h16v16h-16zm0 0" fill="url(#h)"/><path d="m184 272h16v16h-16zm0 0" fill="url(#h)"/><path d="m418.71875 304c0 4.417969 3.582031 8 8 8s8-3.582031 8-8c-.0625-3.691406 1.289062-7.269531 3.777344-10 9.042968-11.3125 9.042968-27.382812 0-38.695312-5.050782-5.710938-5.050782-14.289063 0-20 4.449218-5.441407 6.851562-12.273438 6.785156-19.304688 0-4.417969-3.582031-8-8-8s-8 3.582031-8 8c.0625 3.683594-1.289062 7.25-3.777344 9.96875-9.046875 11.304688-9.046875 27.371094 0 38.679688 5.027344 5.71875 5.027344 14.28125 0 20-4.457031 5.457031-6.859375 12.304687-6.785156 19.351562zm0 0" fill="url(#d)"/><path d="m296 256h16v16h-16zm0 0" fill="url(#f)"/><path d="m296 288h16v16h-16zm0 0" fill="url(#g)"/><path d="m312 272h16v16h-16zm0 0" fill="url(#h)"/><path d="m280 272h16v16h-16zm0 0" fill="url(#h)"/><path d="m296.078125 216c0-4.417969-3.578125-8-8-8h-.078125c-4.40625.042969-7.949219 3.644531-7.917969 8.054688.027344 4.40625 3.617188 7.960937 8.023438 7.945312 4.410156-.015625 7.972656-3.59375 7.972656-8zm0 0" fill="url(#i)"/><path d="m184.078125 216c0-4.417969-3.578125-8-8-8h-.078125c-4.40625.042969-7.949219 3.644531-7.917969 8.054688.027344 4.40625 3.617188 7.960937 8.023438 7.945312 4.410156-.015625 7.972656-3.59375 7.972656-8zm0 0" fill="url(#i)"/><path d="m16.078125 344c4.421875 0 8-3.582031 8-8s-3.578125-8-8-8h-.078125c-4.417969.023438-7.980469 3.621094-7.960938 8.039062.023438 4.417969 3.621094 7.984376 8.039063 7.960938zm0 0" fill="url(#j)"/><path d="m472.078125 328c0-4.417969-3.578125-8-8-8h-.078125c-4.40625.042969-7.949219 3.644531-7.917969 8.054688.027344 4.40625 3.617188 7.960937 8.023438 7.945312 4.410156-.015625 7.972656-3.59375 7.972656-8zm0 0" fill="url(#k)"/><path d="m272.078125 320c0-4.417969-3.578125-8-8-8h-.078125c-4.40625.042969-7.949219 3.644531-7.917969 8.054688.027344 4.40625 3.617188 7.960937 8.023438 7.945312 4.410156-.015625 7.972656-3.59375 7.972656-8zm0 0" fill="url(#l)"/><g fill="url(#m)"><path d="m120 112h-80c-4.417969 0-8 3.582031-8 8s3.582031 8 8 8h80c4.417969 0 8-3.582031 8-8s-3.582031-8-8-8zm0 0"/><path d="m184 112h-32c-4.417969 0-8 3.582031-8 8s3.582031 8 8 8h32c4.417969 0 8-3.582031 8-8s-3.582031-8-8-8zm0 0"/><path d="m328 112h-32c-4.417969 0-8 3.582031-8 8s3.582031 8 8 8h32c4.417969 0 8-3.582031 8-8s-3.582031-8-8-8zm0 0"/></g></svg>