<svg height="480pt" viewBox="0 0 480 480.07204" width="480pt" xmlns="http://www.w3.org/2000/svg" xmlns:xlink="http://www.w3.org/1999/xlink"><linearGradient id="a"><stop offset="0" stop-color="#47c0bb"/><stop offset="1" stop-color="#0063ae"/></linearGradient><linearGradient id="b" gradientUnits="userSpaceOnUse" x1="-15.96398" x2="468.28402" xlink:href="#a" y1="280.072042" y2="280.072042"/><linearGradient id="c" gradientUnits="userSpaceOnUse" x1="-15.96398" x2="468.28402" xlink:href="#a" y1="240.072042" y2="240.072042"/><linearGradient id="d" gradientUnits="userSpaceOnUse" x1="-15.96398" x2="468.28402" xlink:href="#a" y1="88.072042" y2="88.072042"/><linearGradient id="e" gradientUnits="userSpaceOnUse" x1="-15.96398" x2="468.28402" xlink:href="#a" y1="112.072042" y2="112.072042"/><linearGradient id="f" gradientUnits="userSpaceOnUse" x1="-15.96398" x2="468.28402" xlink:href="#a" y1="144.072042" y2="144.072042"/><path d="m376.035156 328.070312c26.511719 0 48-21.488281 48-48 0-26.507812-21.488281-48-48-48-26.507812 0-48 21.492188-48 48 .027344 26.5 21.503906 47.976563 48 48zm0-80c17.675782 0 32 14.328126 32 32 0 17.675782-14.324218 32-32 32-17.671875 0-32-14.324218-32-32 0-17.671874 14.328125-32 32-32zm0 0" fill="url(#b)"/><path d="m472.035156 24.070312h-86.398437c-27.824219.121094-51.386719 20.554688-55.441407 48.082032l-11.382812 79.917968h-22.777344v-16c0-4.417968-3.582031-8-8-8h-32c-13.253906 0-24 10.746094-24 24v16c0 13.257813 10.746094 24 24 24h32c4.417969 0 8-3.578124 8-8v-16h20.488282l-3.734376 26.167969c-24.078124 6.835938-40.710937 28.804688-40.753906 53.832031v64h-16c-4.417968 0-8 3.582032-8 8v24h-8c-4.417968 0-8 3.582032-8 8v48c0 4.421876 3.582032 8 8 8h56v56h-136v-208c0-4.417968-3.582031-8-8-8h-8v-75.40625c42.253906-11.976562 69.210938-53.277343 63.164063-96.78125-6.046875-43.5-43.242188-75.882812-87.164063-75.882812-43.917968 0-81.113281 32.382812-87.160156 75.882812-6.046875 43.503907 20.90625 84.804688 63.160156 96.78125v75.40625h-8c-4.417968 0-8 3.582032-8 8v208h-72c-4.417968 0-7.9999998 3.582032-7.9999998 8 0 4.421876 3.5820318 8 7.9999998 8h464c4.417969 0 8-3.578124 8-8 0-4.417968-3.582031-8-8-8h-96v-56h96c4.417969 0 8-3.578124 8-8v-368c0-4.417968-3.582031-8-8-8zm-192 152h-24c-4.417968 0-8-3.578124-8-8v-16c0-4.417968 3.582032-8 8-8h24zm-232-88c0-39.761718 32.238282-72 72-72 39.765625 0 72 32.238282 72 72 0 39.765626-32.234375 72-72 72-39.746094-.042968-71.953125-32.253906-72-72zm80 87.59375v72.40625h-16v-72.40625c2.640625.238282 5.296875.40625 8 .40625s5.359375-.167968 8-.40625zm16 288.40625h-48v-160h48zm0-176h-48v-24h48zm216 176h-48v-56h16v32c0 4.421876 3.582032 8 8 8 4.417969 0 8-3.578124 8-8v-32h16zm104-72h-16v-8c0-4.417968-3.582031-8-8-8-4.417968 0-8 3.582032-8 8v8h-16v-8c0-4.417968-3.582031-8-8-8-4.417968 0-8 3.582032-8 8v8h-152v-32h216zm0-48h-200v-16h16c4.417969 0 8-3.578124 8-8v-72c.027344-22.078124 17.921875-39.972656 40-40h136zm0-152h-134.773437l16.796875-117.652343c2.894531-19.65625 19.710937-34.25 39.578125-34.347657h78.398437zm0 0" fill="url(#c)"/><path d="m152.035156 72.070312c0-25.308593-15.695312-32-24-32h-24c-4.417968 0-8 3.582032-8 8v80c0 4.421876 3.582032 8 8 8 4.417969 0 8-3.578124 8-8v-24h16c8.304688 0 24-6.6875 24-32zm-40-16h15.769532c1.375.097657 8.230468 1.28125 8.230468 16 0 14.722657-6.855468 15.914063-8 16h-16zm0 0" fill="url(#d)"/><path d="m370.378906 141.726562c3.125 3.125 8.1875 3.125 11.3125 0l48-48c3.03125-3.136718 2.988282-8.128906-.097656-11.214843-3.085938-3.085938-8.074219-3.128907-11.214844-.09375l-48 48c-3.121094 3.121093-3.121094 8.1875 0 11.308593zm0 0" fill="url(#e)"/><path d="m402.378906 165.726562c3.125 3.125 8.1875 3.125 11.3125 0l32-32c3.03125-3.136718 2.988282-8.128906-.097656-11.214843-3.085938-3.085938-8.074219-3.128907-11.214844-.09375l-32 32c-3.121094 3.121093-3.121094 8.1875 0 11.308593zm0 0" fill="url(#f)"/></svg>