<svg height="512.00214pt" viewBox="0 0 512.00214 512.00214" width="512.00214pt" xmlns="http://www.w3.org/2000/svg" xmlns:xlink="http://www.w3.org/1999/xlink"><linearGradient id="a"><stop offset="0" stop-color="#662d91"/><stop offset=".437" stop-color="#3873b3"/><stop offset="1" stop-color="#00c9dd"/></linearGradient><linearGradient id="b" gradientTransform="matrix(1.069671 0 0 -1.069671 .00107 502.793345)" gradientUnits="userSpaceOnUse" x1="-18.3701" x2="361.9028" xlink:href="#a" y1="281.4902" y2="-98.7826"/><linearGradient id="c" gradientTransform="matrix(1.069671 0 0 -1.069671 .00107 502.793345)" gradientUnits="userSpaceOnUse" x1="-62.488" x2="317.7769" xlink:href="#a" y1="237.3644" y2="-142.9005"/><linearGradient id="d" gradientTransform="matrix(1.069671 0 0 -1.069671 .00107 502.793345)" gradientUnits="userSpaceOnUse" x1="41.2199" x2="421.4847" xlink:href="#a" y1="341.0722" y2="-39.1926"/><linearGradient id="e" gradientTransform="matrix(1.069671 0 0 -1.069671 .00107 502.793345)" gradientUnits="userSpaceOnUse" x1="-2.6565" x2="377.6083" xlink:href="#a" y1="297.1958" y2="-83.069"/><linearGradient id="f" gradientTransform="matrix(1.069671 0 0 -1.069671 .00107 502.793345)" gradientUnits="userSpaceOnUse" x1="-14.6228" x2="365.6421" xlink:href="#a" y1="285.2295" y2="-95.0353"/><linearGradient id="g" gradientTransform="matrix(1.069671 0 0 -1.069671 .00107 502.793345)" gradientUnits="userSpaceOnUse" x1="-26.5891" x2="353.6758" xlink:href="#a" y1="273.2632" y2="-107.0016"/><linearGradient id="h" gradientTransform="matrix(1.069671 0 0 -1.069671 .00107 502.793345)" gradientUnits="userSpaceOnUse" x1="174.8435" x2="555.1083" xlink:href="#a" y1="474.6958" y2="94.431"/><linearGradient id="i" gradientTransform="matrix(1.069671 0 0 -1.069671 .00107 502.793345)" gradientUnits="userSpaceOnUse" x1="227.1527" x2="607.4255" xlink:href="#a" y1="527.005" y2="146.7401"/><path d="m8.535156 477.867188v25.601562c0 4.710938 3.820313 8.53125 8.535156 8.53125h42.664063c4.714844 0 8.535156-3.820312 8.535156-8.53125v-25.601562h204.800781v25.601562c0 4.710938 3.820313 8.53125 8.535157 8.53125h42.664062c4.714844 0 8.535157-3.820312 8.535157-8.53125v-25.601562c4.710937 0 8.535156-3.820313 8.535156-8.535157v-34.132812c0-4.710938-3.824219-8.535157-8.535156-8.535157v-76.796874c-.023438-7.351563-3.222657-14.335938-8.78125-19.152344l-13.652344-66.269532c-4.152344-19.796874-21.585938-33.992187-41.8125-34.046874h-195.804688c-20.226562.054687-37.660156 14.25-41.8125 34.046874l-13.652344 66.269532c-5.546874 4.820312-8.742187 11.800781-8.753906 19.152344v76.796874c-4.714844 0-8.535156 3.824219-8.535156 8.535157v34.132812c0 4.714844 3.820312 8.535157 8.535156 8.535157zm42.664063 17.066406h-25.597657v-17.066406h25.601563v17.066406zm264.535156 0h-25.601563v-17.066406h25.601563zm-268.050781-226.988282c2.464844-11.894531 12.925781-20.4375 25.070312-20.480468h195.824219c12.148437.042968 22.605469 8.585937 25.070313 20.480468l11.613281 56.320313h-269.191407zm-22.082032 81.921876c0-4.714844 3.820313-8.535157 8.535157-8.535157h273.066406c4.710937 0 8.53125 3.820313 8.53125 8.535157v76.800781h-290.132813zm-8.535156 93.867187h307.199219v17.066406h-307.199219zm0 0" fill="url(#b)"/><path d="m59.734375 349.867188c-14.136719 0-25.601563 11.460937-25.601563 25.601562 0 14.136719 11.464844 25.597656 25.601563 25.597656 14.140625 0 25.601563-11.460937 25.601563-25.597656 0-14.140625-11.464844-25.601562-25.601563-25.601562zm0 34.132812c-4.710937 0-8.535156-3.820312-8.535156-8.535156 0-4.710938 3.824219-8.53125 8.535156-8.53125 4.714844 0 8.535156 3.820312 8.535156 8.53125-.003906 4.714844-3.820312 8.535156-8.535156 8.535156zm0 0" fill="url(#c)"/><path d="m281.601562 349.867188c-14.140624 0-25.601562 11.460937-25.601562 25.601562 0 14.136719 11.460938 25.597656 25.601562 25.597656 14.136719 0 25.597657-11.460937 25.597657-25.597656 0-14.140625-11.460938-25.601562-25.597657-25.601562zm0 34.132812c-4.714843 0-8.535156-3.820312-8.535156-8.535156 0-4.710938 3.820313-8.53125 8.535156-8.53125 4.710938 0 8.53125 3.820312 8.53125 8.53125 0 4.714844-3.820312 8.535156-8.53125 8.535156zm0 0" fill="url(#d)"/><path d="m230.402344 349.867188h-119.46875c-4.710938 0-8.53125 3.820312-8.53125 8.535156 0 4.710937 3.820312 8.53125 8.53125 8.53125h119.46875c4.710937 0 8.53125-3.820313 8.53125-8.53125 0-4.714844-3.820313-8.535156-8.53125-8.535156zm0 0" fill="url(#e)"/><path d="m230.402344 375.464844h-119.46875c-4.710938 0-8.53125 3.820312-8.53125 8.535156s3.820312 8.535156 8.53125 8.535156h119.46875c4.710937 0 8.53125-3.820312 8.53125-8.535156s-3.820313-8.535156-8.53125-8.535156zm0 0" fill="url(#f)"/><path d="m230.402344 401.066406h-119.46875c-4.710938 0-8.53125 3.820313-8.53125 8.535156 0 4.710938 3.820312 8.53125 8.53125 8.53125h119.46875c4.710937 0 8.53125-3.820312 8.53125-8.53125 0-4.714843-3.820313-8.535156-8.53125-8.535156zm0 0" fill="url(#g)"/><path d="m503.46875 0h-187.734375c-4.710937 0-8.535156 3.820312-8.535156 8.535156v187.730469c0 4.714844 3.824219 8.535156 8.535156 8.535156h68.265625v298.667969c0 4.710938 3.820312 8.535156 8.535156 8.535156h34.132813c4.714843 0 8.535156-3.824218 8.535156-8.535156v-298.667969h68.265625c4.710938 0 8.535156-3.820312 8.535156-8.535156v-187.730469c-.003906-4.714844-3.824218-8.535156-8.535156-8.535156zm-85.335938 494.933594h-17.066406v-290.132813h17.066406zm76.800782-307.199219h-170.667969v-170.667969h170.667969zm0 0" fill="url(#h)"/><path d="m384 170.667969c4.714844 0 8.535156-3.820313 8.535156-8.535157v-59.734374h25.199219c9.117187.035156 17.878906-3.542969 24.371094-9.949219 13.355469-13.082031 13.578125-34.515625.496093-47.871094-.164062-.167969-.328124-.332031-.496093-.496094-6.492188-6.40625-15.253907-9.984375-24.371094-9.949219h-33.730469c-4.714844 0-8.535156 3.820313-8.535156 8.53125v119.46875c0 4.714844 3.820312 8.535157 8.53125 8.535157zm8.535156-119.46875h25.199219c4.632813.007812 9.078125 1.820312 12.398437 5.050781 6.632813 6.46875 6.773438 17.089844.304688 23.726562-.101562.101563-.203125.203126-.304688.304688-3.320312 3.230469-7.765624 5.042969-12.398437 5.050781h-25.199219zm0 0" fill="url(#i)"/></svg>