<svg height="480pt" viewBox="0 0 480 480.128" width="480pt" xmlns="http://www.w3.org/2000/svg" xmlns:xlink="http://www.w3.org/1999/xlink"><linearGradient id="a"><stop offset="0" stop-color="#006df0"/><stop offset="1" stop-color="#00e7f0"/></linearGradient><linearGradient id="b" gradientUnits="userSpaceOnUse" x1="238.112" x2="244.696" xlink:href="#a" y1="520.936" y2="-21.24"/><linearGradient id="c" gradientUnits="userSpaceOnUse" x1="338.096" x2="344.68" xlink:href="#a" y1="522.152" y2="-20.024"/><linearGradient id="d" gradientUnits="userSpaceOnUse" x1="38.144" x2="44.728" xlink:href="#a" y1="518.512" y2="-23.664"/><linearGradient id="e" gradientUnits="userSpaceOnUse" x1="70.136" x2="76.72" xlink:href="#a" y1="518.896" y2="-23.28"/><linearGradient id="f" gradientUnits="userSpaceOnUse" x1="102.128" x2="108.72" xlink:href="#a" y1="519.288" y2="-22.888"/><linearGradient id="g" gradientUnits="userSpaceOnUse" x1="134.128" x2="140.712" xlink:href="#a" y1="519.672" y2="-22.496"/><linearGradient id="h" gradientUnits="userSpaceOnUse" x1="166.12" x2="172.704" xlink:href="#a" y1="520.064" y2="-22.112"/><linearGradient id="i" gradientUnits="userSpaceOnUse" x1="198.12" x2="204.704" xlink:href="#a" y1="520.456" y2="-21.72"/><linearGradient id="j" gradientUnits="userSpaceOnUse" x1="344.784" x2="351.368" xlink:href="#a" y1="522.232" y2="-19.944"/><linearGradient id="k" gradientUnits="userSpaceOnUse" x1="317.624" x2="324.208" xlink:href="#a" y1="521.904" y2="-20.272"/><linearGradient id="l" gradientUnits="userSpaceOnUse" x1="290.456" x2="297.048" xlink:href="#a" y1="521.576" y2="-20.6"/><linearGradient id="m" gradientUnits="userSpaceOnUse" x1="117.024" x2="123.608" xlink:href="#a" y1="519.464" y2="-22.704"/><linearGradient id="n" gradientUnits="userSpaceOnUse" x1="144.192" x2="150.776" xlink:href="#a" y1="519.8" y2="-22.376"/><linearGradient id="o" gradientUnits="userSpaceOnUse" x1="171.352" x2="177.936" xlink:href="#a" y1="520.128" y2="-22.048"/><path d="m480.0625 304.128906h-16v-8c0-13.253906-10.742188-24-24-24h-176v-168c0-13.253906-10.742188-24-24-24-13.253906 0-24 10.746094-24 24v168h-176c-13.253906 0-24 10.746094-24 24v8h-16v112h16v8c0 13.253906 10.746094 24 24 24h16v32h64v-32h240v32h64v-32h16c13.257812 0 24-10.746094 24-24v-8h16zm-248-200c0-4.417968 3.582031-8 8-8s8 3.582032 8 8v168h-16zm-200 192c0-4.417968 3.582031-8 8-8h400c4.417969 0 8 3.582032 8 8v8h-416zm72 168h-32v-16h32zm304 0h-32v-16h32zm40-40c0 4.417969-3.582031 8-8 8h-400c-4.417969 0-8-3.582031-8-8v-8h416zm16-24h-448v-80h448zm0 0" fill="url(#b)"/><path d="m456.0625 328.128906h-232v64h232zm-16 48h-200v-32h200zm0 0" fill="url(#c)"/><path d="m32.0625 336.128906h16v48h-16zm0 0" fill="url(#d)"/><path d="m64.0625 336.128906h16v48h-16zm0 0" fill="url(#e)"/><path d="m96.0625 336.128906h16v48h-16zm0 0" fill="url(#f)"/><path d="m128.0625 336.128906h16v48h-16zm0 0" fill="url(#g)"/><path d="m160.0625 336.128906h16v48h-16zm0 0" fill="url(#h)"/><path d="m192.0625 336.128906h16v48h-16zm0 0" fill="url(#i)"/><path d="m336.207031 192.257812-11.34375-11.328124c22.507813-22.484376 35.152344-52.992188 35.152344-84.800782 0-31.8125-12.644531-62.320312-35.152344-84.800781l11.328125-11.296875c25.515625 25.484375 39.855469 60.066406 39.855469 96.128906s-14.339844 70.644532-39.855469 96.128906zm0 0" fill="url(#j)"/><path d="m313.550781 169.632812-11.285156-11.335937c16.515625-16.472656 25.796875-38.839844 25.796875-62.167969s-9.28125-45.695312-25.796875-62.167968l11.285156-11.335938c19.535157 19.472656 30.511719 45.921875 30.511719 73.503906 0 27.582032-10.976562 54.027344-30.511719 73.503906zm0 0" fill="url(#k)"/><path d="m291.023438 147.046875-11.359376-11.269531c21.867188-21.910156 21.867188-57.386719 0-79.296875l11.359376-11.273438c28.054687 28.152344 28.054687 73.691407 0 101.839844zm0 0" fill="url(#l)"/><path d="m135.921875 192.257812c-25.519531-25.484374-39.855469-60.066406-39.855469-96.128906s14.335938-70.644531 39.855469-96.128906l11.34375 11.328125c-22.527344 22.484375-35.183594 53.003906-35.183594 84.832031s12.65625 62.347656 35.183594 84.832032zm0 0" fill="url(#m)"/><path d="m158.574219 169.632812c-19.53125-19.476562-30.511719-45.921874-30.511719-73.503906 0-27.582031 10.980469-54.03125 30.511719-73.503906l11.289062 11.335938c-16.515625 16.472656-25.800781 38.839843-25.800781 62.167968s9.285156 45.695313 25.800781 62.167969zm0 0" fill="url(#n)"/><path d="m181.105469 147.046875c-28.054688-28.148437-28.054688-73.6875 0-101.839844l11.359375 11.273438c-21.867188 21.910156-21.867188 57.386719 0 79.296875zm0 0" fill="url(#o)"/></svg>