<svg height="480pt" viewBox="-48 0 480 480.00001" width="480pt" xmlns="http://www.w3.org/2000/svg" xmlns:xlink="http://www.w3.org/1999/xlink"><linearGradient id="a"><stop offset="0" stop-color="#039bca"/><stop offset=".207" stop-color="#3a7ac4"/><stop offset=".598" stop-color="#9c3fb9"/><stop offset=".871" stop-color="#da1ab2"/><stop offset="1" stop-color="#f20baf"/></linearGradient><linearGradient id="b" gradientUnits="userSpaceOnUse" x1="-39.999995" x2="429.552005" xlink:href="#a" y1="240" y2="240"/><linearGradient id="c" gradientUnits="userSpaceOnUse" x1="-39.999995" x2="429.552005" xlink:href="#a" y1="304" y2="304"/><linearGradient id="d" gradientUnits="userSpaceOnUse" x1="-39.999995" x2="429.552005" xlink:href="#a" y1="96" y2="96"/><linearGradient id="e" gradientUnits="userSpaceOnUse" x1="-39.999995" x2="429.552005" xlink:href="#a" y1="176" y2="176"/><linearGradient id="f" gradientUnits="userSpaceOnUse" x1="-39.999995" x2="429.552005" xlink:href="#a" y1="432" y2="432"/><path d="m24 0v48h-24v96h24.839844l6.222656 56h-7.757812l17.335937 208h8.199219l5.046875 45.472656c1.667969 15.109375 14.441406 26.542969 29.640625 26.527344h216.945312c15.1875-.003906 27.9375-11.433594 29.597656-26.527344l5.128907-45.472656h8.160156l17.335937-208h-7.757812l6.222656-56h24.839844v-96h-24v-48zm16 16h304v32h-304zm277.28125 408h-85.28125c-4.417969 0-8 3.582031-8 8s3.582031 8 8 8h83.503906l-1.304687 11.703125c-.765625 7.003906-6.683594 12.300781-13.726563 12.296875h-216.945312c-7.042969.003906-12.960938-5.296875-13.734375-12.296875l-4.855469-43.703125h254.125zm11.359375-32h-273.28125l-14.664063-176h302.609376zm-200.640625-224h-84.390625l-2.671875-24h302.125l-6.222656 56h-289.640625l-1.773438-16h82.574219c4.417969 0 8-3.582031 8-8s-3.582031-8-8-8zm240-104v24h-168v16h168v24h-352v-24h72v-16h-72v-24zm0 0" fill="url(#b)"/><path d="m182.503906 374.894531c3.117188.710938 6.300782 1.082031 9.496094 1.105469 30.878906 0 56-32.304688 56-72 0-35.289062-19.617188-65.121094-46.648438-70.929688-3.070312-.6875-6.203124-1.046874-9.351562-1.070312-30.878906 0-56 32.304688-56 72 0 35.199219 19.558594 65.023438 46.503906 70.894531zm21.953125-124c16.078125 7.503907 27.542969 28.890625 27.542969 53.105469 0 29.808594-16.726562 54.257812-37.726562 55.910156l13.488281-53.964844c.597656-2.390624.0625-4.925781-1.453125-6.867187-1.519532-1.941406-3.84375-3.078125-6.308594-3.078125h-12.457031zm-16.089843-2.664062-19.863282 52.960937c-.921875 2.457032-.578125 5.210938.917969 7.367188s3.953125 3.441406 6.578125 3.441406h13.753906l-11.160156 44.648438c-15.578125-7.847657-26.59375-28.929688-26.59375-52.648438 0-29.160156 16-53.191406 36.367188-55.769531zm0 0" fill="url(#c)"/><g fill="url(#d)"><path d="m104 88h16v16h-16zm0 0"/><path d="m136 88h16v16h-16zm0 0"/><path d="m168 88h16v16h-16zm0 0"/></g><path d="m160 184h.078125c4.433594-.023438 8.011719-3.628906 8-8.058594-.007813-4.433594-3.605469-8.019531-8.039063-8.019531-4.429687 0-8.027343 3.585937-8.039062 8.019531-.011719 4.429688 3.566406 8.035156 8 8.058594zm0 0" fill="url(#e)"/><path d="m200.078125 440c4.421875 0 8-3.582031 8-8s-3.578125-8-8-8h-.078125c-4.417969.023438-7.980469 3.621094-7.960938 8.039062.023438 4.417969 3.621094 7.984376 8.039063 7.960938zm0 0" fill="url(#f)"/></svg>