<svg height="480pt" viewBox="0 0 480 480" width="480pt" xmlns="http://www.w3.org/2000/svg" xmlns:xlink="http://www.w3.org/1999/xlink"><linearGradient id="a"><stop offset="0" stop-color="#006df0"/><stop offset="1" stop-color="#00e7f0"/></linearGradient><linearGradient id="b" gradientUnits="userSpaceOnUse" x1="240" x2="240" xlink:href="#a" y1="1.056" y2="507.8"/><linearGradient id="c" gradientUnits="userSpaceOnUse" x1="248" x2="248" xlink:href="#a" y1="1.056" y2="507.8"/><linearGradient id="d" gradientUnits="userSpaceOnUse" x1="388" x2="388" xlink:href="#a" y1="1.056" y2="507.8"/><linearGradient id="e" gradientUnits="userSpaceOnUse" x1="472" x2="472" xlink:href="#a" y1="1.056" y2="507.8"/><linearGradient id="f" gradientUnits="userSpaceOnUse" x1="432.208" x2="432.208" xlink:href="#a" y1="1.056" y2="507.8"/><linearGradient id="g" gradientUnits="userSpaceOnUse" x1="96" x2="96" xlink:href="#a" y1="1.056" y2="507.8"/><linearGradient id="h" gradientUnits="userSpaceOnUse" x1="40" x2="40" xlink:href="#a" y1="1.056" y2="507.8"/><linearGradient id="i" gradientUnits="userSpaceOnUse" x1="392" x2="392" xlink:href="#a" y1="1.056" y2="507.8"/><linearGradient id="j" gradientUnits="userSpaceOnUse" x1="20" x2="20" xlink:href="#a" y1="1.056" y2="507.8"/><path d="m264 176h40c13.253906 0 24-10.746094 24-24v-128c0-13.253906-10.746094-24-24-24h-128c-13.253906 0-24 10.746094-24 24v128c0 13.253906 10.746094 24 24 24h40v288h-216v16h480v-16h-216zm-96-24v-128c0-4.417969 3.582031-8 8-8h128c4.417969 0 8 3.582031 8 8v128c0 4.417969-3.582031 8-8 8h-128c-4.417969 0-8-3.582031-8-8zm64 312v-288h16v288zm0 0" fill="url(#b)"/><path d="m224 96h40c13.253906 0 24-10.746094 24-24v-16c0-13.253906-10.746094-24-24-24h-48c-4.417969 0-8 3.582031-8 8v96c0 4.417969 3.582031 8 8 8s8-3.582031 8-8zm48-40v16c0 4.417969-3.582031 8-8 8h-40v-32h40c4.417969 0 8 3.582031 8 8zm0 0" fill="url(#c)"/><path d="m480 184h-70.113281c-9.097657-.03125-17.421875 5.113281-21.460938 13.265625l-41.371093 82.734375h-27.054688c-13.253906 0-24 10.746094-24 24v104h48.71875c3.882812 23.085938 23.871094 39.992188 47.28125 39.992188s43.398438-16.90625 47.28125-39.992188h40.71875v-16h-40.71875c-3.882812-23.085938-23.871094-39.992188-47.28125-39.992188s-43.398438 16.90625-47.28125 39.992188h-32.71875v-32h16c13.253906 0 24-10.746094 24-24s-10.746094-24-24-24h-16v-8c0-4.417969 3.582031-8 8-8h160v-16h-115.054688l37.789063-75.574219c1.347656-2.71875 4.121094-4.433593 7.152344-4.425781h70.113281zm-88 184c17.671875 0 32 14.328125 32 32s-14.328125 32-32 32-32-14.328125-32-32 14.328125-32 32-32zm-64-40c4.417969 0 8 3.582031 8 8s-3.582031 8-8 8h-16v-16zm0 0" fill="url(#d)"/><path d="m464 312h16v64h-16zm0 0" fill="url(#e)"/><path d="m404.800781 224.414062-4.351562 13.058594 15.199219 5.054688 4.351562-13.054688c1.082031-3.246094 4.105469-5.445312 7.527344-5.472656h36.472656v-16h-36.472656c-10.316406.019531-19.46875 6.628906-22.726563 16.414062zm0 0" fill="url(#f)"/><path d="m96 432c23.398438-.042969 43.359375-16.933594 47.28125-40h24.71875c13.253906 0 24-10.746094 24-24v-80c0-13.253906-10.746094-24-24-24h-74.585938l-25.957031-64.910156c-3.621093-9.132813-12.464843-15.121094-22.289062-15.089844h-45.167969v16h45.167969c3.273437-.011719 6.222656 1.984375 7.425781 5.03125l23.589844 58.96875h-76.183594v16h168c4.417969 0 8 3.582031 8 8v80c0 4.417969-3.582031 8-8 8h-24.71875c-3.882812-23.085938-23.871094-39.992188-47.28125-39.992188s-43.398438 16.90625-47.28125 39.992188h-48.71875v16h48.71875c3.921875 23.066406 23.882812 39.957031 47.28125 40zm0-80c17.671875 0 32 14.328125 32 32s-14.328125 32-32 32-32-14.328125-32-32 14.328125-32 32-32zm0 0" fill="url(#g)"/><path d="m0 288h80v16h-80zm0 0" fill="url(#h)"/><path d="m112 384c0 8.835938-7.164062 16-16 16s-16-7.164062-16-16 7.164062-16 16-16 16 7.164062 16 16zm0 0" fill="url(#g)"/><path d="m408 400c0 8.835938-7.164062 16-16 16s-16-7.164062-16-16 7.164062-16 16-16 16 7.164062 16 16zm0 0" fill="url(#i)"/><path d="m0 352h40v16h-40zm0 0" fill="url(#j)"/></svg>