<svg height="480pt" viewBox="-80 0 480 480" width="480pt" xmlns="http://www.w3.org/2000/svg" xmlns:xlink="http://www.w3.org/1999/xlink"><linearGradient id="a"><stop offset="0" stop-color="#006df0"/><stop offset="1" stop-color="#00e7f0"/></linearGradient><linearGradient id="b" gradientUnits="userSpaceOnUse" x1="120.12" x2="172.8" xlink:href="#a" y1="496.128" y2="-21.904"/><linearGradient id="c" gradientUnits="userSpaceOnUse" x1="104.288" x2="156.968" xlink:href="#a" y1="494.52" y2="-23.512"/><linearGradient id="d" gradientUnits="userSpaceOnUse" x1="238.896" x2="291.576" xlink:href="#a" y1="508.208" y2="-9.824"/><linearGradient id="e" gradientUnits="userSpaceOnUse" x1="140.256" x2="192.936" xlink:href="#a" y1="498.176" y2="-19.856"/><linearGradient id="f" gradientUnits="userSpaceOnUse" x1="138.104" x2="190.784" xlink:href="#a" y1="497.96" y2="-20.072"/><linearGradient id="g" gradientUnits="userSpaceOnUse" x1="225.208" x2="277.888" xlink:href="#a" y1="506.816" y2="-11.216"/><path d="m320 64h-26.457031l-24-64h-219.085938l-24 64h-26.457031v80h24.550781l24 336h222.898438l24-336h24.550781zm-258.457031-48h196.914062l18 48h-232.914062zm1.90625 448-4.578125-64h202.257812l-4.578125 64zm198.816406-80h-204.53125l-11.429687-160h227.390624zm12.566406-176h-229.664062l-4.574219-64h238.8125zm29.167969-80h-288v-48h288zm0 0" fill="url(#b)"/><path d="m32 96h224v16h-224zm0 0" fill="url(#c)"/><path d="m272 96h16v16h-16zm0 0" fill="url(#d)"/><path d="m160 248c-30.929688 0-56 25.070312-56 56s25.070312 56 56 56 56-25.070312 56-56c-.035156-30.914062-25.085938-55.964844-56-56zm0 96c-22.089844 0-40-17.910156-40-40s17.910156-40 40-40 40 17.910156 40 40c-.027344 22.082031-17.917969 39.972656-40 40zm0 0" fill="url(#e)"/><path d="m80 432h128v16h-128zm0 0" fill="url(#f)"/><path d="m224 432h16v16h-16zm0 0" fill="url(#g)"/></svg>