<svg height="480pt" viewBox="0 0 480.0098 480" width="480pt" xmlns="http://www.w3.org/2000/svg" xmlns:xlink="http://www.w3.org/1999/xlink"><linearGradient id="a"><stop offset="0" stop-color="#4761ac"/><stop offset="1" stop-color="#54c2ef"/></linearGradient><linearGradient id="b" gradientUnits="userSpaceOnUse" x1="-8" x2="472.264" xlink:href="#a" y1="271.623057" y2="271.623057"/><linearGradient id="c" gradientUnits="userSpaceOnUse" x1="-8" x2="472.264" xlink:href="#a" y1="239.623057" y2="239.623057"/><linearGradient id="d" gradientUnits="userSpaceOnUse" x1="-8" x2="472.264" xlink:href="#a" y1="351.623057" y2="351.623057"/><linearGradient id="e" gradientUnits="userSpaceOnUse" x1="-8" x2="472.264" xlink:href="#a" y1="103.751057" y2="103.751057"/><linearGradient id="f" gradientUnits="userSpaceOnUse" x1="-8" x2="472.264" xlink:href="#a" y1="67.767057" y2="67.767057"/><linearGradient id="g" gradientUnits="userSpaceOnUse" x1="-8" x2="472.264" xlink:href="#a" y1="36.263057" y2="36.263057"/><linearGradient id="h" gradientUnits="userSpaceOnUse" x1="-8" x2="472" xlink:href="#a" y1="311.623057" y2="311.623057"/><path d="m296 359.625c48.601562 0 88-39.402344 88-88 0-48.601562-39.398438-88-88-88s-88 39.398438-88 88c.058594 48.574219 39.421875 87.941406 88 88zm0-160c39.765625 0 72 32.234375 72 72 0 39.761719-32.234375 72-72 72s-72-32.238281-72-72c.042969-39.75 32.253906-71.957031 72-72zm0 0" fill="url(#b)"/><path d="m264 255.625c4.417969 0 8-3.582031 8-8-.207031-2.195312.578125-4.367188 2.144531-5.917969 1.566407-1.550781 3.746094-2.316406 5.933594-2.082031 4.421875-.023438 7.984375-3.625 7.960937-8.042969-.019531-4.417969-3.621093-7.980469-8.039062-7.957031-6.421875-.191406-12.636719 2.277344-17.175781 6.820312-4.542969 4.542969-7.011719 10.757813-6.824219 17.179688 0 4.417969 3.582031 8 8 8zm0 0" fill="url(#c)"/><g fill="url(#d)"><path d="m72 303.625c-4.417969 0-8 3.578125-8 8v80c0 4.417969 3.582031 8 8 8s8-3.582031 8-8v-80c0-4.421875-3.582031-8-8-8zm0 0"/><path d="m104 303.625c-4.417969 0-8 3.578125-8 8v80c0 4.417969 3.582031 8 8 8s8-3.582031 8-8v-80c0-4.421875-3.582031-8-8-8zm0 0"/><path d="m136 303.625c-4.417969 0-8 3.578125-8 8v80c0 4.417969 3.582031 8 8 8s8-3.582031 8-8v-80c0-4.421875-3.582031-8-8-8zm0 0"/></g><path d="m179.199219 113.222656c-3.535157 2.652344-4.25 7.664063-1.597657 11.199219 2.648438 3.535156 7.664063 4.253906 11.199219 1.601563.917969-.679688 93.238281-68.054688 215.277344.566406 1.195313.679687 2.546875 1.035156 3.921875 1.035156 3.636719-.003906 6.8125-2.453125 7.734375-5.972656.925781-3.515625-.640625-7.210938-3.804687-8.996094-131.019532-73.707031-231.730469-.183594-232.730469.566406zm0 0" fill="url(#e)"/><path d="m436 95.625c3.636719-.003906 6.8125-2.453125 7.734375-5.972656.925781-3.515625-.640625-7.210938-3.804687-8.996094-162.699219-91.527344-287.480469-.371094-288.730469.566406-3.535157 2.652344-4.25 7.664063-1.597657 11.199219 2.648438 3.535156 7.664063 4.253906 11.199219 1.601563 4.742188-3.535157 118-85.601563 271.289063.558593 1.191406.683594 2.539062 1.039063 3.910156 1.042969zm0 0" fill="url(#f)"/><path d="m472 72.511719c3.527344.003906 6.640625-2.300781 7.664062-5.675781 1.023438-3.375-.28125-7.023438-3.214843-8.980469-194.617188-129.746094-359.785157-.90625-361.441407.40625-3.453124 2.761719-4.011718 7.800781-1.25 11.253906 2.757813 3.453125 7.796876 4.011719 11.25 1.25 30.3125-21.890625 64.589844-37.679687 100.929688-46.496094 82.671875-20.644531 163.949219-4.878906 241.597656 46.898438 1.324219.878906 2.875 1.347656 4.464844 1.34375zm0 0" fill="url(#g)"/><path d="m440 271.625h-16c0-70.695312-57.308594-128-128-128s-128 57.304688-128 128h-128c-22.082031.023438-39.9726562 17.917969-40 40v80c.0273438 22.078125 17.917969 39.972656 40 40h40v40c0 4.417969 3.582031 8 8 8h64c4.417969 0 8-3.582031 8-8v-40h152v40c0 4.417969 3.582031 8 8 8h64c4.417969 0 8-3.582031 8-8v-40h48c22.082031-.027344 39.972656-17.921875 40-40v-80c-.027344-22.082031-17.917969-39.976562-40-40zm-144-112c61.855469 0 112 50.140625 112 112 0 61.855469-50.144531 112-112 112s-112-50.144531-112-112c.066406-61.832031 50.171875-111.9375 112-112zm-152 304h-48v-32h48zm232 0h-48v-32h48zm88-72c0 13.253906-10.746094 24-24 24h-400c-13.253906 0-24-10.746094-24-24v-80c0-13.257812 10.746094-24 24-24h129.113281c8.015625 63.976562 62.40625 111.980469 126.886719 111.980469s118.871094-48.003907 126.886719-111.980469h17.113281c13.253906 0 24 10.742188 24 24zm0 0" fill="url(#h)"/></svg>