<svg height="487pt" viewBox="-3 1 487 487.99848" width="487pt" xmlns="http://www.w3.org/2000/svg" xmlns:xlink="http://www.w3.org/1999/xlink"><linearGradient id="a"><stop offset="0" stop-color="#006df0"/><stop offset="1" stop-color="#00e7f0"/></linearGradient><linearGradient id="b" gradientUnits="userSpaceOnUse" x1="217.13124" x2="268.62724" xlink:href="#a" y1="489.886479" y2="-7.905521"/><linearGradient id="c" gradientUnits="userSpaceOnUse" x1="388.53924" x2="440.03524" xlink:href="#a" y1="507.622479" y2="9.822479"/><linearGradient id="d" gradientUnits="userSpaceOnUse" x1="265.85124" x2="317.34724" xlink:href="#a" y1="494.926479" y2="-2.865521"/><linearGradient id="e" gradientUnits="userSpaceOnUse" x1="268.30724" x2="319.80324" xlink:href="#a" y1="495.182479" y2="-2.609521"/><linearGradient id="f" gradientUnits="userSpaceOnUse" x1="263.39524" x2="314.89124" xlink:href="#a" y1="494.670479" y2="-3.121521"/><linearGradient id="g" gradientUnits="userSpaceOnUse" x1="118.05124" x2="169.54724" xlink:href="#a" y1="479.638479" y2="-18.153521"/><linearGradient id="h" gradientUnits="userSpaceOnUse" x1="231.86724" x2="283.36324" xlink:href="#a" y1="491.414479" y2="-6.385521"/><linearGradient id="i" gradientUnits="userSpaceOnUse" x1="303.10724" x2="354.60324" xlink:href="#a" y1="498.782479" y2=".990479"/><linearGradient id="j" gradientUnits="userSpaceOnUse" x1="235.14724" x2="286.64324" xlink:href="#a" y1="491.750479" y2="-6.041521"/><linearGradient id="k" gradientUnits="userSpaceOnUse" x1="306.37924" x2="357.87524" xlink:href="#a" y1="499.118479" y2="1.326479"/><linearGradient id="l" gradientUnits="userSpaceOnUse" x1="238.41924" x2="289.91524" xlink:href="#a" y1="492.086479" y2="-5.705521"/><linearGradient id="m" gradientUnits="userSpaceOnUse" x1="309.65924" x2="361.15524" xlink:href="#a" y1="499.462479" y2="1.662479"/><linearGradient id="n" gradientUnits="userSpaceOnUse" x1="316.89124" x2="368.38724" xlink:href="#a" y1="500.206479" y2="2.414479"/><path d="m456.5 328v-208c13.253906 0 24-10.746094 24-24 0-13.257812-10.746094-24-24-24h-93.785156l-118.09375-70.859375c-2.539063-1.519531-5.707032-1.519531-8.242188 0l-118.09375 70.859375h-93.785156c-13.253906 0-24 10.742188-24 24 0 13.253906 10.746094 24 24 24v272c0 4.417969 3.582031 8 8 8h144v32c0 13.253906 10.746094 24 24 24h16v8c0 13.253906 10.746094 24 24 24h8c13.253906 0 24-10.746094 24-24v-8h120v8c0 13.253906 10.746094 24 24 24h8c13.253906 0 24-10.746094 24-24v-8h8c13.253906 0 24-10.746094 24-24v-80c0-13.257812-10.746094-24-24-24zm-216-310.671875 91.121094 54.671875h-182.242188zm-224 78.671875c0-4.417969 3.582031-8 8-8h432c4.417969 0 8 3.582031 8 8s-3.582031 8-8 8h-432c-4.417969 0-8-3.582031-8-8zm24 288v-264h400v208h-240c-13.253906 0-24 10.742188-24 24v32zm216 80c0 4.417969-3.582031 8-8 8h-8c-4.417969 0-8-3.582031-8-8v-8h24zm176 0c0 4.417969-3.582031 8-8 8h-8c-4.417969 0-8-3.582031-8-8v-8h24zm32-32c0 4.417969-3.582031 8-8 8h-256c-4.417969 0-8-3.582031-8-8v-80c0-4.417969 3.582031-8 8-8h256c4.417969 0 8 3.582031 8 8zm0 0" fill="url(#b)"/><path d="m400.5 352c-22.09375 0-40 17.90625-40 40 0 22.089844 17.90625 40 40 40 22.089844 0 40-17.910156 40-40-.027344-22.082031-17.921875-39.976562-40-40zm0 64c-13.253906 0-24-10.746094-24-24 0-13.257812 10.746094-24 24-24s24 10.742188 24 24c0 13.253906-10.746094 24-24 24zm0 0" fill="url(#c)"/><path d="m320.5 384h-88c-4.417969 0-8 3.582031-8 8s3.582031 8 8 8h88c4.417969 0 8-3.582031 8-8s-3.582031-8-8-8zm0 0" fill="url(#d)"/><path d="m320.5 408h-88c-4.417969 0-8 3.582031-8 8s3.582031 8 8 8h88c4.417969 0 8-3.582031 8-8s-3.582031-8-8-8zm0 0" fill="url(#e)"/><path d="m320.5 360h-88c-4.417969 0-8 3.582031-8 8s3.582031 8 8 8h88c4.417969 0 8-3.582031 8-8s-3.582031-8-8-8zm0 0" fill="url(#f)"/><path d="m216.5 224c0-39.765625-32.234375-72-72-72s-72 32.234375-72 72c0 39.761719 32.234375 72 72 72 39.746094-.046875 71.957031-32.253906 72-72zm-37.855469 44.277344-19.089843-28.277344h38.585937c-3.382813 11.230469-10.203125 21.121094-19.496094 28.277344zm21.855469-44.277344h-48v-55.363281c27.527344 3.976562 47.964844 27.550781 48 55.363281zm-112 0c.03125-27.8125 20.472656-51.386719 48-55.363281v63.363281c.210938 1.554688.671875 3.070312 1.367188 4.476562l26.808593 39.699219c-6.429687 2.519531-13.273437 3.816407-20.175781 3.824219-30.914062-.035156-55.964844-25.089844-56-56zm0 0" fill="url(#g)"/><path d="m256.5 168h16v16h-16zm0 0" fill="url(#h)"/><path d="m288.5 168h96v16h-96zm0 0" fill="url(#i)"/><path d="m256.5 200h16v16h-16zm0 0" fill="url(#j)"/><path d="m288.5 200h96v16h-96zm0 0" fill="url(#k)"/><path d="m256.5 232h16v16h-16zm0 0" fill="url(#l)"/><path d="m288.5 232h96v16h-96zm0 0" fill="url(#m)"/><path d="m256.5 264h168v16h-168zm0 0" fill="url(#n)"/></svg>