<?xml version="1.0" encoding="iso-8859-1"?>
<!-- Generator: Adobe Illustrator 19.0.0, SVG Export Plug-In . SVG Version: 6.00 Build 0)  -->
<svg version="1.1" id="Capa_1" xmlns="http://www.w3.org/2000/svg" xmlns:xlink="http://www.w3.org/1999/xlink" x="0px" y="0px"
	 viewBox="0 0 512 512" style="enable-background:new 0 0 512 512;" xml:space="preserve">
<linearGradient id="SVGID_1_" gradientUnits="userSpaceOnUse" x1="256.5957" y1="513.7285" x2="256.5957" y2="0.7285" gradientTransform="matrix(0.9981 0 0 -0.9981 -0.0955 512.7271)">
	<stop  offset="0" style="stop-color:#2AF598"/>
	<stop  offset="1" style="stop-color:#009EFD"/>
</linearGradient>
<path style="fill:url(#SVGID_1_);" d="M191.127,342.331c0,11.024-8.937,19.961-19.961,19.961s-19.961-8.937-19.961-19.961
	c0-11.024,8.937-19.961,19.961-19.961S191.127,331.307,191.127,342.331z M511.501,472.078h-42.357
	c-8.24,23.233-30.428,39.922-56.45,39.922c-33.02,0-59.883-26.864-59.883-59.883c0-26.022,16.689-48.209,39.922-56.45v-79.285
	c0-11.007-8.954-19.961-19.961-19.961h-38.253c4.111,14.607,6.316,30.006,6.316,45.91c0,93.555-76.113,169.669-169.669,169.669
	S1.497,435.887,1.497,342.331c0-71.677,44.678-133.115,107.647-157.931L82.386,55.817c-1.916-9.21-10.135-15.895-19.542-15.895
	H0.499V0h62.345c28.221,0,52.878,20.054,58.627,47.683l26.007,124.98h206.33v39.922h-73.446
	c14.71,12.401,27.289,27.249,37.104,43.914h55.305c33.019,0,59.883,26.864,59.883,59.883v79.285
	c16.985,6.024,30.464,19.503,36.489,36.489h42.357V472.078z M300.912,342.331c0-71.543-58.204-129.747-129.747-129.747
	S41.419,270.788,41.419,342.331s58.204,129.747,129.747,129.747S300.912,413.875,300.912,342.331z M432.655,452.117
	c0-11.007-8.954-19.961-19.961-19.961c-11.007,0-19.961,8.954-19.961,19.961c0,11.007,8.954,19.961,19.961,19.961
	C423.7,472.078,432.655,463.123,432.655,452.117z"/>
<g>
</g>
<g>
</g>
<g>
</g>
<g>
</g>
<g>
</g>
<g>
</g>
<g>
</g>
<g>
</g>
<g>
</g>
<g>
</g>
<g>
</g>
<g>
</g>
<g>
</g>
<g>
</g>
<g>
</g>
</svg>
