<svg height="479pt" viewBox="-7 0 479 479.99184" width="479pt" xmlns="http://www.w3.org/2000/svg" xmlns:xlink="http://www.w3.org/1999/xlink"><linearGradient id="a"><stop offset="0" stop-color="#7ed4ef"/><stop offset=".229" stop-color="#66bfe6"/><stop offset=".711" stop-color="#298bd0"/><stop offset="1" stop-color="#0169c2"/></linearGradient><linearGradient id="b" gradientUnits="userSpaceOnUse" x1="-23.504072" x2="482.775928" xlink:href="#a" y1="240" y2="240"/><linearGradient id="c" gradientUnits="userSpaceOnUse" x1="-23.504072" x2="482.775928" xlink:href="#a" y1="440" y2="440"/><path d="m.496094 360c-.019532 60.015625 44.320312 110.808594 103.789062 118.886719s115.753906-29.042969 131.746094-86.886719h84.464844v8.800781c-20.121094 4.105469-33.863282 22.78125-31.796875 43.210938 2.0625 20.429687 19.261719 35.980469 39.796875 35.980469s37.734375-15.550782 39.796875-35.980469c2.0625-20.429688-11.675781-39.105469-31.796875-43.210938v-8.800781h33.472656c3.378906 9.554688 12.394531 15.957031 22.527344 16h48c13.253906 0 24-10.746094 24-24s-10.746094-24-24-24h-48c-4.226563.019531-8.371094 1.167969-12 3.328125l-10.648438-53.238281c8.875-3.757813 14.640625-12.453125 14.648438-22.089844v-16c-.027344-22.082031-17.917969-39.972656-40-40h-8v-40c0-13.253906-10.746094-24-24-24h-144c-13.253906 0-24 10.746094-24 24v40.800781c-5.824219 1.21875-11.292969 3.742188-16 7.382813v-96.984375c18.609375-3.828125 31.976562-20.199219 32-39.199219v-64c-.027344-22.082031-17.917969-39.9726562-40-40-10.132813.0429688-19.148438 6.445312-22.527344 16h-25.472656c0-8.835938-7.164063-16-16-16h-32c-8.835938 0-16 7.164062-16 16v16c0 8.835938 7.164062 16 16 16h32c8.835937 0 16-7.164062 16-16h24v88c.042968 10.132812 6.445312 19.148438 16 22.527344v97.878906c-62.964844 4.230469-111.902344 56.488281-112 119.59375zm352 80c0 13.253906-10.746094 24-24 24s-24-10.746094-24-24 10.746094-24 24-24 24 10.746094 24 24zm-328-408v-16h32v16zm96 432c-55.835938-.027344-101.675782-44.15625-103.828125-99.949219-2.148438-55.792969 40.160156-103.320312 95.828125-107.644531v72.730469c-15.601563 4.027343-25.777344 19.03125-23.746094 35.015625s15.632812 27.96875 31.746094 27.96875c16.113281 0 29.714844-11.984375 31.746094-27.96875 2.027343-15.984375-8.144532-30.988282-23.746094-35.015625v-72.730469c55.667968 4.324219 97.976562 51.851562 95.828125 107.644531-2.152344 55.792969-47.992188 99.921875-103.828125 99.949219zm42.726562-216h157.273438v48h-98.664063c-13.867187-21.886719-34.417969-38.71875-58.609375-48zm-42.726562 96c8.835937 0 16 7.164062 16 16s-7.164063 16-16 16c-8.835938 0-16-7.164062-16-16s7.164062-16 16-16zm118.808594 32c3.140624-21.746094.054687-43.933594-8.898438-64h90.089844v64zm97.191406 0v-64h17.441406l12.796875 64zm56 0h48c4.417968 0 8 3.582031 8 8s-3.582032 8-8 8h-48c-3.078125-.011719-5.878906-1.785156-7.199219-4.566406l-.761719-3.824219c.210938-4.25 3.707032-7.59375 7.960938-7.609375zm-48-128c13.253906 0 24 10.746094 24 24v16c0 4.417969-3.582032 8-8 8h-24v-48zm-56-64v8c0 4.417969-3.582032 8-8 8h-80c-4.417969 0-8-3.582031-8-8v-8zm-120 0h8v8c0 13.253906 10.746094 24 24 24h80c13.253906 0 24-10.746094 24-24v-8h8c4.417968 0 8 3.582031 8 8v40h-160v-40c0-4.417969 3.582031-8 8-8zm-56-160c0-4.417969 3.582031-8 8-8 13.253906 0 24 10.746094 24 24v64c0 13.253906-10.746094 24-24 24-4.417969 0-8-3.582031-8-8zm0 0" fill="url(#b)"/><path d="m344.496094 440c0 8.835938-7.164063 16-16 16-8.835938 0-16-7.164062-16-16s7.164062-16 16-16c8.835937 0 16 7.164062 16 16zm0 0" fill="url(#c)"/></svg>