<svg height="480pt" viewBox="0 0 480 480" width="480pt" xmlns="http://www.w3.org/2000/svg" xmlns:xlink="http://www.w3.org/1999/xlink"><linearGradient id="a"><stop offset="0" stop-color="#4761ac"/><stop offset="1" stop-color="#54c2ef"/></linearGradient><linearGradient id="b" gradientUnits="userSpaceOnUse" x1="16" x2="489.688" xlink:href="#a" y1="168" y2="168"/><linearGradient id="c" gradientUnits="userSpaceOnUse" x1="16" x2="489.688" xlink:href="#a" y1="408" y2="408"/><linearGradient id="d" gradientUnits="userSpaceOnUse" x1="16" x2="489.688" xlink:href="#a" y1="376" y2="376"/><linearGradient id="e" gradientUnits="userSpaceOnUse" x1="16" x2="489.688" xlink:href="#a" y1="344" y2="344"/><linearGradient id="f" gradientUnits="userSpaceOnUse" x1="16" x2="489.688" xlink:href="#a" y1="160" y2="160"/><linearGradient id="g" gradientUnits="userSpaceOnUse" x1="16" x2="489.688" xlink:href="#a" y1="240" y2="240"/><path d="m56 144c-13.253906 0-24 10.746094-24 24s10.746094 24 24 24 24-10.746094 24-24-10.746094-24-24-24zm0 32c-4.417969 0-8-3.582031-8-8s3.582031-8 8-8 8 3.582031 8 8-3.582031 8-8 8zm0 0" fill="url(#b)"/><path d="m376 400h-272c-4.417969 0-8 3.582031-8 8s3.582031 8 8 8h272c4.417969 0 8-3.582031 8-8s-3.582031-8-8-8zm0 0" fill="url(#c)"/><path d="m104 384h56c4.417969 0 8-3.582031 8-8s-3.582031-8-8-8h-56c-4.417969 0-8 3.582031-8 8s3.582031 8 8 8zm0 0" fill="url(#d)"/><path d="m376 336h-272c-4.417969 0-8 3.582031-8 8s3.582031 8 8 8h272c4.417969 0 8-3.582031 8-8s-3.582031-8-8-8zm0 0" fill="url(#e)"/><path d="m376 368h-184c-4.417969 0-8 3.582031-8 8s3.582031 8 8 8h184c4.417969 0 8-3.582031 8-8s-3.582031-8-8-8zm0 0" fill="url(#d)"/><path d="m440 144c-4.417969 0-8 3.582031-8 8v16c0 4.417969 3.582031 8 8 8s8-3.582031 8-8v-16c0-4.417969-3.582031-8-8-8zm0 0" fill="url(#f)"/><path d="m408 144c-4.417969 0-8 3.582031-8 8v16c0 4.417969 3.582031 8 8 8s8-3.582031 8-8v-16c0-4.417969-3.582031-8-8-8zm0 0" fill="url(#f)"/><path d="m376 160h-128c-4.417969 0-8 3.582031-8 8s3.582031 8 8 8h128c4.417969 0 8-3.582031 8-8s-3.582031-8-8-8zm0 0" fill="url(#b)"/><path d="m440 112h-24v-112h-352v112h-24c-22.082031.027344-39.9726562 17.917969-40 40v192c.0273438 22.082031 17.917969 39.972656 40 40h24v96h352v-96h24c22.082031-.027344 39.972656-17.917969 40-40v-192c-.027344-22.082031-17.917969-39.972656-40-40zm-360-96h320v96h-320zm320 448h-320v-160h320zm64-120c0 13.253906-10.746094 24-24 24h-24v-64h24c4.417969 0 8-3.582031 8-8s-3.582031-8-8-8h-400c-4.417969 0-8 3.582031-8 8s3.582031 8 8 8h24v64h-24c-13.253906 0-24-10.746094-24-24v-192c0-13.253906 10.746094-24 24-24h400c13.253906 0 24 10.746094 24 24zm0 0" fill="url(#g)"/></svg>