<svg height="406pt" viewBox="-27 0 406 406.51609" width="406pt" xmlns="http://www.w3.org/2000/svg" xmlns:xlink="http://www.w3.org/1999/xlink"><linearGradient id="a"><stop offset="0" stop-color="#4761ac"/><stop offset="1" stop-color="#54c2ef"/></linearGradient><linearGradient id="b" gradientTransform="matrix(1.001193 0 0 -1.001193 -26.966955 412.491544)" gradientUnits="userSpaceOnUse" x1="-10.5433" x2="417.6486" xlink:href="#a" y1="107.3279" y2="107.3279"/><linearGradient id="c" gradientTransform="matrix(1.001193 0 0 -1.001193 -26.966955 412.491544)" gradientUnits="userSpaceOnUse" x1="-10.5434" x2="417.6493" xlink:href="#a" y1="208.7424" y2="208.7424"/><linearGradient id="d" gradientTransform="matrix(1.001193 0 0 -1.001193 -26.966955 412.491544)" gradientUnits="userSpaceOnUse" x1="-10.5434" x2="417.6462" xlink:href="#a" y1="127.6393" y2="127.6393"/><path d="m129.082031 230.472656c-41.179687 0-74.5625 33.382813-74.5625 74.5625 0 41.179688 33.382813 74.5625 74.5625 74.5625 41.179688 0 74.566407-33.382812 74.566407-74.5625-.046876-41.160156-33.40625-74.515625-74.566407-74.5625zm0 135.570313c-33.691406 0-61.003906-27.3125-61.003906-61.007813 0-33.691406 27.3125-61.003906 61.003906-61.003906 33.695313 0 61.007813 27.3125 61.007813 61.003906-.039063 33.679688-27.328125 60.96875-61.007813 61.007813zm0 0" fill="url(#b)"/><path d="m20.625 54.230469h47.453125v169.65625c-44.957031 33.675781-54.101563 97.421875-20.425781 142.378906 33.679687 44.957031 97.425781 54.101563 142.382812 20.421875 44.953125-33.679688 54.097656-97.421875 20.421875-142.378906-1.828125-2.4375-3.761719-4.792969-5.800781-7.058594h53.21875v115.234375c.023438 2.496094 1.425781 4.769531 3.644531 5.910156-11.804687 9.21875-13.898437 26.261719-4.679687 38.0625 9.21875 11.804688 26.257812 13.898438 38.0625 4.679688 11.800781-9.21875 13.898437-26.257813 4.679687-38.0625-1.082031-1.382813-2.296875-2.660157-3.625-3.8125h50.039063c3.742187.003906 6.78125-3.03125 6.78125-6.773438 0-.003906 0-.003906 0-.003906v-27.113281c0-3.742188-3.035156-6.78125-6.777344-6.78125 0 0 0 0-.003906 0h-47.449219v-115.234375c.003906-3.742188-3.03125-6.777344-6.773437-6.777344-.003907 0-.003907 0-.003907 0h-40.671875v-54.226563h6.777344c3.742188 0 6.78125-3.035156 6.78125-6.777343v-.003907-40.671874c0-3.742188-3.035156-6.777344-6.777344-6.777344h-.003906-142.347656v-81.34375c0-3.742188-3.035156-6.777344-6.777344-6.777344 0 0 0 0-.003906 0h-33.890625c-3.742188 0-6.777344 3.03125-6.777344 6.773438v.003906 6.777344h-47.453125c-11.230469 0-20.335938 9.105468-20.335938 20.335937s9.105469 20.339844 20.335938 20.339844zm108.457031 338.925781c-48.667969 0-88.121093-39.453125-88.121093-88.121094 0-48.667968 39.453124-88.121094 88.121093-88.121094s88.121094 39.453126 88.121094 88.121094c-.054687 48.644532-39.476563 88.066406-88.121094 88.121094zm-13.554687-196.578125v-54.226563h94.898437v54.226563zm162.683594 196.578125c-7.484376 0-13.554688-6.070312-13.554688-13.554688 0-7.488281 6.070312-13.558593 13.554688-13.558593 7.488281 0 13.558593 6.070312 13.558593 13.558593-.007812 7.480469-6.074219 13.546876-13.558593 13.554688zm61.007812-61.007812v13.558593h-40.671875v-13.558593zm-54.230469 13.558593h-13.554687v-135.570312h13.554687zm-27.113281-122.015625h-66.9375c-.292969.039063-.585938.097656-.871094.175782-7.578125-5.714844-15.917968-10.335938-24.78125-13.730469h92.589844zm-20.335938-27.113281h-13.554687v-54.226563h13.554687zm13.558594-94.898437v27.113281h-135.570312v-27.113281zm-169.464844-88.121094h20.335938v193.582031c-7.050781 1.933594-13.867188 4.628906-20.335938 8.035156zm-61.007812 13.554687h47.453125v13.558594h-47.453125c-3.742188 0-6.777344-3.035156-6.777344-6.777344 0-3.746093 3.035156-6.78125 6.777344-6.78125zm0 0" fill="url(#c)"/><path d="m142.640625 264.363281c-3.742187 0-6.777344 3.035157-6.777344 6.777344 0 3.746094 3.035157 6.78125 6.777344 6.78125 7.347656 0 13.558594 9.3125 13.558594 20.332031 0 3.746094 3.03125 6.78125 6.777343 6.78125 3.742188 0 6.777344-3.035156 6.777344-6.78125 0-18.683594-12.160156-33.890625-27.113281-33.890625zm0 0" fill="url(#d)"/></svg>