<svg height="416pt" viewBox="-18 0 416 416.22186" width="416pt" xmlns="http://www.w3.org/2000/svg" xmlns:xlink="http://www.w3.org/1999/xlink"><linearGradient id="a" gradientUnits="userSpaceOnUse" x1="63.29493" x2="306.86293" y1="372.900111" y2="129.332111"><stop offset="0" stop-color="#41dfd0"/><stop offset="1" stop-color="#ee83ef"/></linearGradient><path d="m29.621094 204.757812 12.976562 9.375c-8.097656 11.171876-14.488281 23.488282-18.957031 36.542969l-15.136719-5.183593c4.984375-14.546876 12.101563-28.277344 21.117188-40.734376zm-29.511719 91.328126c0 2.820312.074219 5.597656.21875 8.421874l16-.847656c-.128906-2.511718-.203125-5.03125-.203125-7.574218-.003906-10.933594 1.265625-21.828126 3.785156-32.464844l-15.566406-3.703125c-2.808594 11.847656-4.230469 23.988281-4.234375 36.167969zm244 0c0 48.597656-39.398437 88-88 88-48.597656 0-88-39.402344-88-88 0-48.601563 39.402344-88 88-88 48.578125.054687 87.945313 39.421874 88 88zm-16 0c0-39.765626-32.234375-72-72-72-39.761719 0-72 32.234374-72 72 0 39.761718 32.238281 72 72 72 39.746094-.046876 71.957031-32.253907 72-72zm-152-195.058594-27.574219-13.742188c-3.953125-1.976562-5.558594-6.78125-3.585937-10.738281 1.976562-3.953125 6.785156-5.558594 10.738281-3.582031l32 16c2.699219 1.347656 4.410156 4.101562 4.421875 7.121094v48h16v-8c.011719-15.875 7.871094-30.71875 20.992187-39.648438-19.925781-12.113281-29.351562-36.007812-23.0625-58.460938 6.285157-22.453124 26.753907-37.976562 50.070313-37.976562 23.320313 0 43.785156 15.523438 50.074219 37.976562 6.289062 22.453126-3.136719 46.347657-23.066406 58.460938 13.125 8.929688 20.984374 23.773438 20.992187 39.648438v8h64c4.417969 0 8 3.578124 8 8 0 4.417968-3.582031 8-8 8h-32v46.804687c3.328125 2.980469 6.480469 6.144531 9.449219 9.480469.613281.0625 1.21875.195312 1.800781.402344l72 32c2.890625 1.28125 4.753906 4.148437 4.75 7.3125v72h16c13.257813 0 24 10.742187 24 24v8h8c4.417969 0 8 3.578124 8 8 0 4.417968-3.582031 8-8 8h-56c-.582031 0-1.164063-.066407-1.734375-.195313l-58.625-13.023437c-25.796875 38.660156-71.609375 58.929687-117.570312 52.023437-45.960938-6.910156-83.789063-39.753906-97.078126-84.292969-13.289062-44.535156.351563-92.738281 35.007813-123.707031zm184 195.058594c0-57.4375-46.5625-104-104-104s-104 46.5625-104 104 46.5625 104 104 104c57.410156-.066407 103.933594-46.589844 104-104zm-72-115.539063v-20.460937h-64v20.460937c20.917969-5.949219 43.082031-5.949219 64 0zm136 163.539063v16h24v-8c0-4.421876-3.582031-8-8-8zm-61.46875-103.011719c17.464844 33.488281 17.964844 73.289062 1.34375 107.203125l44.125 9.832031v-96.824219zm-58.53125-80.988281v26.085937c5.542969 2.449219 10.894531 5.316406 16 8.578125v-34.664062zm-48-72c19.882813 0 36-16.121094 36-36 0-19.882813-16.117187-36-36-36-19.878906 0-36 16.117187-36 36 .023437 19.871093 16.128906 35.976562 36 36zm-32 56h64v-8c0-17.675782-14.324219-32-32-32-17.671875 0-32 14.324218-32 32zm-32 16v34.664062c5.113281-3.257812 10.460937-6.125 16-8.578125v-26.085937zm0 0" fill="url(#a)"/></svg>