<svg height="454pt" viewBox="1 -30 454.694 454" width="454pt" xmlns="http://www.w3.org/2000/svg" xmlns:xlink="http://www.w3.org/1999/xlink"><linearGradient id="a"><stop offset="0" stop-color="#4761ac"/><stop offset="1" stop-color="#54c2ef"/></linearGradient><linearGradient id="b" gradientTransform="matrix(1.000671 0 0 -1.000671 0 434.34364)" gradientUnits="userSpaceOnUse" x1="-15.1592" x2="454.6953" xlink:href="#a" y1="236.6497" y2="236.6497"/><linearGradient id="c" gradientTransform="matrix(1.000671 0 0 -1.000671 0 434.34364)" gradientUnits="userSpaceOnUse" x1="-15.1592" x2="454.6953" xlink:href="#a" y1="191.1799" y2="191.1799"/><path d="m447.417969 136.867188h-60.667969v-53.082032c-.011719-9.640625-6.082031-18.226562-15.167969-21.453125v-54.382812c.003907-4.1875-3.390625-7.582031-7.578125-7.582031h-.003906-30.332031c-4.1875 0-7.582031 3.390624-7.585938 7.578124v.003907 54.382812c-9.082031 3.226563-15.15625 11.816407-15.164062 21.453125v53.082032h-45.503907v-20.453126l29.0625-43.589843c2.324219-3.484375 1.382813-8.191407-2.101562-10.515625-1.246094-.832032-2.710938-1.277344-4.207031-1.273438h-60.667969c-4.1875 0-7.582031 3.394532-7.582031 7.582032 0 1.496093.441406 2.960937 1.273437 4.207031l29.058594 43.589843v20.453126h-91c-4.1875 0-7.582031 3.394531-7.585938 7.578124v.003907 30.335937c0 4.1875 3.394532 7.582032 7.582032 7.582032h.003906 113.75v22.75c.015625 5.617187 2.125 11.023437 5.914062 15.167968-7.886718 8.570313-7.886718 21.761719 0 30.332032-3.789062 4.144531-5.898437 9.550781-5.914062 15.167968v37.917969h-22.75c-12.558594.011719-22.738281 10.191406-22.75 22.75v13.9375l-14.777344 44.328125c-1.324218 3.972656.816406 8.265625 4.785156 9.59375.777344.257812 1.589844.390625 2.40625.390625h30.335938c3.261719 0 6.160156-2.085937 7.191406-5.183594l13.4375-40.316406h64.90625l13.441406 40.316406c1.027344 3.097657 3.925782 5.183594 7.1875 5.183594h30.335938c4.183594 0 7.578125-3.390625 7.582031-7.578125 0-.816406-.132812-1.628906-.390625-2.40625l-14.773437-44.328125v-13.9375c-.015625-12.558594-10.191407-22.738281-22.753907-22.75h-22.75v-37.917969c-.015624-5.617187-2.125-11.023437-5.914062-15.167968 7.886719-8.570313 7.886719-21.761719 0-30.332032 3.789062-4.144531 5.898438-9.550781 5.914062-15.167968v-22.75h113.75c4.1875 0 7.582032-3.390626 7.585938-7.578126v-.003906-30.332031c0-4.1875-3.394531-7.582031-7.582031-7.585937zm-173.417969-60.667969-16.167969 24.25-16.167969-24.25zm52.082031 7.585937c.003907-4.1875 3.398438-7.578125 7.582031-7.585937 4.1875.003906 7.582032-3.390625 7.585938-7.578125v-.003906-53.082032h15.164062v53.082032c0 4.1875 3.394532 7.582031 7.582032 7.582031h.003906c4.1875.003906 7.578125 3.398437 7.582031 7.585937v53.082032h-45.5zm-7.582031 151.667969c-.003906 4.1875-3.398438 7.578125-7.582031 7.582031h-15.167969c-4.1875 0-7.582031-3.394531-7.582031-7.582031s3.394531-7.585937 7.582031-7.585937h15.167969c4.183593.003906 7.578125 3.398437 7.582031 7.585937zm-53.085938 98.582031c-3.261718 0-6.160156 2.089844-7.1875 5.183594l-13.441406 40.316406h-14.34375l11.832032-35.515625c.257812-.773437.390624-1.585937.390624-2.402343v-15.167969c.003907-4.183594 3.398438-7.578125 7.585938-7.582031h22.75v15.167968zm22.753907-68.25c.003906-4.1875 3.394531-7.578125 7.582031-7.582031h15.167969c4.183593.003906 7.578125 3.394531 7.582031 7.582031v68.25h-30.332031zm68.246093 53.082032c4.1875.003906 7.582032 3.398437 7.585938 7.585937v15.164063c0 .816406.132812 1.628906.390625 2.402343l11.835937 35.515625h-14.347656l-13.4375-40.316406c-1.03125-3.09375-3.929687-5.183594-7.191406-5.183594h-7.585938v-15.167968zm-37.914062-113.75c-.003906 4.1875-3.398438 7.582031-7.582031 7.585937h-15.167969c-4.1875-.003906-7.578125-3.398437-7.582031-7.585937v-22.75h30.332031zm121.332031-37.917969h-273v-15.164063h273zm0 0" fill="url(#b)"/><path d="m15.164062 387.121094c0 4.183594 3.390626 7.582031 7.578126 7.582031h.003906 30.335937c4.183594 0 7.582031-3.394531 7.582031-7.578125 0-.003906 0-.003906 0-.003906v-83.417969h91v83.417969c0 4.183594 3.394532 7.582031 7.578126 7.582031h.003906 30.335937c4.1875 0 7.582031-3.394531 7.582031-7.578125 0-.003906 0-.003906 0-.003906v-121.335938c-.023437-20.929687-16.984374-37.890625-37.917968-37.917968h-75.832032c-8.53125.039062-16.792968 2.980468-23.429687 8.339843l-14.53125-138.046875c-.402344-3.863281-3.65625-6.792968-7.539063-6.792968h-30.332031c-4.1875 0-7.582031 3.394531-7.582031 7.582031 0 .261719.015625.53125.0429688.792969l15.1210932 143.691406zm45.5-113.75h121.335938v15.164062h-121.335938zm121.335938 106.164062h-15.167969v-75.832031h15.167969zm-98.585938-136.5h75.835938c9.636719.011719 18.226562 6.082032 21.453125 15.167969h-118.742187c3.226562-9.082031 11.816406-15.15625 21.453124-15.167969zm-52.328124-136.5 14.410156 136.898438v136.101562h-15.164063v-136.5c0-.265625-.015625-.53125-.042969-.792968l-14.289062-135.707032zm0 0" fill="url(#c)"/></svg>