<svg height="480pt" viewBox="0 0 480 480" width="480pt" xmlns="http://www.w3.org/2000/svg" xmlns:xlink="http://www.w3.org/1999/xlink"><linearGradient id="a"><stop offset="0" stop-color="#84aa50"/><stop offset="1" stop-color="#00acc9"/></linearGradient><linearGradient id="b" gradientUnits="userSpaceOnUse" x1="-24" x2="502.12" xlink:href="#a" y1="348" y2="348"/><linearGradient id="c" gradientUnits="userSpaceOnUse" x1="-24" x2="502.12" xlink:href="#a" y1="396" y2="396"/><linearGradient id="d" gradientUnits="userSpaceOnUse" x1="-24" x2="502.12" xlink:href="#a" y1="304" y2="304"/><linearGradient id="e" gradientUnits="userSpaceOnUse" x1="-24" x2="502.12" xlink:href="#a" y1="288" y2="288"/><linearGradient id="f" gradientUnits="userSpaceOnUse" x1="-24" x2="502.12" xlink:href="#a" y1="320" y2="320"/><linearGradient id="g" gradientUnits="userSpaceOnUse" x1="-24" x2="502.12" xlink:href="#a" y1="360" y2="360"/><linearGradient id="h" gradientUnits="userSpaceOnUse" x1="-24" x2="502.12" xlink:href="#a" y1="72" y2="72"/><linearGradient id="i" gradientUnits="userSpaceOnUse" x1="-24" x2="502.12" xlink:href="#a" y1="104" y2="104"/><path d="m472 248h-144v-24c0-4.417969-3.582031-8-8-8h-144c-4.417969 0-8 3.582031-8 8v24h-160c-4.417969 0-8 3.582031-8 8v216c0 4.417969 3.582031 8 8 8h464c4.417969 0 8-3.582031 8-8v-216c0-4.417969-3.582031-8-8-8zm-160 0h-56v-16h56zm-128-16h56v16h-56zm-168 32h120v56h-120zm0 72h120v128h-120zm136-72h192v200h-192zm312 200h-104v-200h104zm0 0" fill="url(#b)"/><path d="m320 344h-144c-4.417969 0-8 3.582031-8 8v88c0 4.417969 3.582031 8 8 8h144c4.417969 0 8-3.582031 8-8v-88c0-4.417969-3.582031-8-8-8zm-8 88h-128v-72h128zm0 0" fill="url(#c)"/><path d="m192 328c13.253906 0 24-10.746094 24-24s-10.746094-24-24-24-24 10.746094-24 24 10.746094 24 24 24zm0-32c4.417969 0 8 3.582031 8 8s-3.582031 8-8 8-8-3.582031-8-8 3.582031-8 8-8zm0 0" fill="url(#d)"/><path d="m256 328c13.253906 0 24-10.746094 24-24s-10.746094-24-24-24-24 10.746094-24 24 10.746094 24 24 24zm0-32c4.417969 0 8 3.582031 8 8s-3.582031 8-8 8-8-3.582031-8-8 3.582031-8 8-8zm0 0" fill="url(#d)"/><path d="m320 280h-16c-4.417969 0-8 3.582031-8 8s3.582031 8 8 8h16c4.417969 0 8-3.582031 8-8s-3.582031-8-8-8zm0 0" fill="url(#e)"/><path d="m320 312h-16c-4.417969 0-8 3.582031-8 8s3.582031 8 8 8h16c4.417969 0 8-3.582031 8-8s-3.582031-8-8-8zm0 0" fill="url(#f)"/><path d="m208 416c2.121094 0 4.15625-.84375 5.65625-2.34375l24-24c3.03125-3.140625 2.988281-8.128906-.097656-11.214844-3.085938-3.085937-8.074219-3.128906-11.214844-.097656l-24 24c-2.285156 2.289062-2.972656 5.730469-1.734375 8.71875s4.15625 4.9375 7.390625 4.9375zm0 0" fill="url(#c)"/><path d="m256 416c2.121094 0 4.15625-.84375 5.65625-2.34375l24-24c3.03125-3.140625 2.988281-8.128906-.097656-11.214844-3.085938-3.085937-8.074219-3.128906-11.214844-.097656l-24 24c-2.285156 2.289062-2.972656 5.730469-1.734375 8.71875s4.15625 4.9375 7.390625 4.9375zm0 0" fill="url(#c)"/><path d="m88 280h-24c-4.417969 0-8 3.582031-8 8s3.582031 8 8 8h24c4.417969 0 8-3.582031 8-8s-3.582031-8-8-8zm0 0" fill="url(#e)"/><path d="m88 352h-24c-4.417969 0-8 3.582031-8 8s3.582031 8 8 8h24c4.417969 0 8-3.582031 8-8s-3.582031-8-8-8zm0 0" fill="url(#g)"/><path d="m384 296h56c4.417969 0 8-3.582031 8-8s-3.582031-8-8-8h-56c-4.417969 0-8 3.582031-8 8s3.582031 8 8 8zm0 0" fill="url(#e)"/><path d="m288 0h-80c-4.417969 0-8 3.582031-8 8v28.152344l-37 29.601562c-.136719.109375-.800781.847656-1 1.085938-.410156.488281-.765625 1.027344-1.046875 1.601562-.15625.277344-.289063.570313-.402344.871094-.253906.878906-.441406 1.777344-.550781 2.6875v64c0 4.417969 3.582031 8 8 8h160c4.417969 0 8-3.582031 8-8v-64c-.109375-.921875-.292969-1.828125-.550781-2.71875-.113281-.300781-.25-.59375-.402344-.875-.28125-.570312-.636719-1.109375-1.046875-1.597656-.214844-.242188-.863281-.976563-1-1.089844l-37-29.566406v-28.152344c0-4.417969-3.582031-8-8-8zm-72 16h64v16h-64zm104 112h-144v-48h144zm-129.191406-64 20-16h74.398437l20 16zm0 0" fill="url(#h)"/><path d="m288 112h8c4.417969 0 8-3.582031 8-8s-3.582031-8-8-8h-8c-4.417969 0-8 3.582031-8 8s3.582031 8 8 8zm0 0" fill="url(#i)"/></svg>