<svg height="480pt" viewBox="0 -16 480 480" width="480pt" xmlns="http://www.w3.org/2000/svg" xmlns:xlink="http://www.w3.org/1999/xlink"><linearGradient id="a"><stop offset="0" stop-color="#47c0bb"/><stop offset="1" stop-color="#0063ae"/></linearGradient><linearGradient id="b" gradientUnits="userSpaceOnUse" x1="-24" x2="489.064" xlink:href="#a" y1="224" y2="224"/><linearGradient id="c" gradientUnits="userSpaceOnUse" x1="-24" x2="489.064" xlink:href="#a" y1="120" y2="120"/><linearGradient id="d" gradientUnits="userSpaceOnUse" x1="-24" x2="489.064" xlink:href="#a" y1="312" y2="312"/><linearGradient id="e" gradientUnits="userSpaceOnUse" x1="-24" x2="489.064" xlink:href="#a" y1="228" y2="228"/><linearGradient id="f" gradientUnits="userSpaceOnUse" x1="-24" x2="489.064" xlink:href="#a" y1="160.048" y2="160.048"/><linearGradient id="g" gradientUnits="userSpaceOnUse" x1="-24" x2="489.064" xlink:href="#a" y1="96" y2="96"/><linearGradient id="h" gradientUnits="userSpaceOnUse" x1="-24" x2="489.064" xlink:href="#a" y1="144.048" y2="144.048"/><linearGradient id="i" gradientUnits="userSpaceOnUse" x1="-24" x2="489.064" xlink:href="#a" y1="270.2" y2="270.2"/><linearGradient id="j" gradientUnits="userSpaceOnUse" x1="-24" x2="489.064" xlink:href="#a" y1="310.2" y2="310.2"/><linearGradient id="k" gradientUnits="userSpaceOnUse" x1="-24" x2="489.064" xlink:href="#a" y1="334.208" y2="334.208"/><linearGradient id="l" gradientUnits="userSpaceOnUse" x1="-24" x2="489.064" xlink:href="#a" y1="262.2" y2="262.2"/><linearGradient id="m" gradientUnits="userSpaceOnUse" x1="-24" x2="489.064" xlink:href="#a" y1="358.2" y2="358.2"/><linearGradient id="n" gradientUnits="userSpaceOnUse" x1="-24" x2="489.064" xlink:href="#a" y1="273.76" y2="273.76"/><linearGradient id="o" gradientUnits="userSpaceOnUse" x1="-24" x2="489.064" xlink:href="#a" y1="345.76" y2="345.76"/><linearGradient id="p" gradientUnits="userSpaceOnUse" x1="-24" x2="489.064" xlink:href="#a" y1="140" y2="140"/><path d="m440 0h-400c-22.082031.0273438-39.9726562 17.917969-40 40v368c.0273438 22.082031 17.917969 39.972656 40 40h400c22.082031-.027344 39.972656-17.917969 40-40v-368c-.027344-22.082031-17.917969-39.9726562-40-40zm24 408c0 13.253906-10.746094 24-24 24h-400c-13.253906 0-24-10.746094-24-24v-368c0-13.253906 10.746094-24 24-24h400c13.253906 0 24 10.746094 24 24zm0 0" fill="url(#b)"/><path d="m328 40h-112c-4.417969 0-8 3.582031-8 8v144c0 4.417969 3.582031 8 8 8h112c4.417969 0 8-3.582031 8-8v-144c0-4.417969-3.582031-8-8-8zm-8 144h-96v-128h96zm0 0" fill="url(#c)"/><path d="m328 216h-288c-4.417969 0-8 3.582031-8 8v176c0 4.417969 3.582031 8 8 8h288c4.417969 0 8-3.582031 8-8v-176c0-4.417969-3.582031-8-8-8zm-8 176h-272v-160h272zm0 0" fill="url(#d)"/><path d="m400 64c-26.472656 0-48 28.710938-48 64-.832031 20.824219 7.675781 40.933594 23.199219 54.839844l-6.574219 184.304687c-.234375 6.511719 2.191406 12.839844 6.71875 17.527344s10.765625 7.332031 17.28125 7.328125h14.832031c6.515625.003906 12.753907-2.640625 17.28125-7.328125 4.523438-4.6875 6.949219-11.015625 6.71875-17.527344l-6.65625-184.304687c15.523438-13.90625 24.03125-34.015625 23.199219-54.839844 0-35.289062-21.527344-64-48-64zm12.34375 108.128906c-2.375 1.527344-3.773438 4.191406-3.671875 7.015625l6.734375 188.566407c.078125 2.171874-.726562 4.28125-2.238281 5.84375-1.507813 1.5625-3.585938 2.445312-5.761719 2.445312h-14.820312c-2.175782 0-4.253907-.882812-5.761719-2.445312-1.511719-1.5625-2.320313-3.671876-2.238281-5.84375l6.734374-188.566407c.101563-2.824219-1.296874-5.488281-3.671874-7.015625-11.9375-7.6875-19.648438-25.007812-19.648438-44.128906 0-26.015625 14.65625-48 32-48s32 21.984375 32 48c0 19.121094-7.710938 36.441406-19.65625 44.128906zm0 0" fill="url(#e)"/><path d="m256 168c3.769531-.039062 6.992188-2.730469 7.699219-6.433594s-1.292969-7.390625-4.785157-8.816406c-3.488281-1.425781-7.5-.195312-9.589843 2.945312-2.085938 3.140626-1.671875 7.316407.996093 9.984376 1.535157 1.460937 3.5625 2.289062 5.679688 2.320312zm0 0" fill="url(#f)"/><path d="m272 120c13.253906 0 24-10.746094 24-24s-10.746094-24-24-24-24 10.746094-24 24 10.746094 24 24 24zm0-32c4.417969 0 8 3.582031 8 8s-3.582031 8-8 8-8-3.582031-8-8 3.582031-8 8-8zm0 0" fill="url(#g)"/><path d="m282.320312 138.320312c-2.308593 2.289063-3 5.746094-1.753906 8.746094 1.246094 3.003906 4.183594 4.953125 7.433594 4.933594 2.121094-.015625 4.15625-.847656 5.679688-2.320312l.960937-1.199219c.300781-.445313.542969-.929688.71875-1.441407.230469-.453124.394531-.9375.480469-1.4375.09375-.53125.148437-1.066406.160156-1.601562.019531-3.25-1.929688-6.1875-4.933594-7.433594-3-1.246094-6.457031-.554687-8.746094 1.753906zm0 0" fill="url(#h)"/><path d="m85.550781 277.761719c2.554688-2.347657 3.898438-.992188 4.800781-.105469 3.140626 3.03125 8.128907 2.988281 11.214844-.097656 3.085938-3.085938 3.128906-8.074219.097656-11.214844-3.546874-3.761719-8.484374-5.898438-13.65625-5.898438-5.171874 0-10.109374 2.136719-13.65625 5.898438-3.0625 3.074219-3.085937 8.039062-.046874 11.136719 3.054687 3.121093 8.039062 3.246093 11.246093.28125zm0 0" fill="url(#i)"/><path d="m213.550781 317.761719c2.554688-2.347657 3.898438-.984375 4.800781-.105469 3.140626 3.03125 8.128907 2.988281 11.214844-.097656 3.085938-3.085938 3.128906-8.074219.097656-11.214844-3.546874-3.761719-8.488281-5.894531-13.65625-5.894531-5.167968 0-10.109374 2.132812-13.65625 5.894531-3.0625 3.074219-3.085937 8.039062-.046874 11.136719 3.058593 3.117187 8.039062 3.242187 11.246093.28125zm0 0" fill="url(#j)"/><path d="m125.550781 341.761719c2.546875-2.347657 3.898438-.992188 4.800781-.105469 3.140626 3.03125 8.128907 2.988281 11.214844-.097656 3.085938-3.085938 3.128906-8.074219.097656-11.214844-3.546874-3.757812-8.488281-5.890625-13.65625-5.890625-5.167968 0-10.109374 2.132813-13.65625 5.890625-3.0625 3.074219-3.085937 8.039062-.046874 11.136719 3.058593 3.117187 8.039062 3.242187 11.246093.28125zm0 0" fill="url(#k)"/><path d="m173.550781 269.761719c2.554688-2.347657 3.898438-.992188 4.800781-.105469 3.140626 3.03125 8.128907 2.988281 11.214844-.097656 3.085938-3.085938 3.128906-8.074219.097656-11.214844-3.546874-3.761719-8.488281-5.894531-13.65625-5.894531-5.167968 0-10.109374 2.132812-13.65625 5.894531-3.0625 3.074219-3.085937 8.039062-.046874 11.136719 3.058593 3.117187 8.039062 3.242187 11.246093.28125zm0 0" fill="url(#l)"/><path d="m170.34375 354.34375c-3.0625 3.074219-3.085938 8.039062-.046875 11.136719 3.054687 3.125 8.046875 3.25 11.253906.28125 2.554688-2.347657 3.898438-.992188 4.800781-.105469 3.140626 3.03125 8.128907 2.988281 11.214844-.097656 3.085938-3.085938 3.128906-8.074219.097656-11.214844-3.546874-3.765625-8.488281-5.898438-13.660156-5.898438s-10.113281 2.132813-13.660156 5.898438zm0 0" fill="url(#m)"/><path d="m269.550781 281.3125c2.554688-2.335938 3.898438-.992188 4.800781-.105469 3.140626 3.03125 8.128907 2.988281 11.214844-.097656 3.085938-3.085937 3.128906-8.074219.097656-11.214844-3.546874-3.761719-8.488281-5.890625-13.65625-5.890625-5.167968 0-10.109374 2.128906-13.65625 5.890625-3.0625 3.074219-3.085937 8.039063-.046874 11.136719 3.054687 3.121094 8.039062 3.246094 11.246093.28125zm0 0" fill="url(#n)"/><path d="m253.550781 353.3125c2.554688-2.335938 3.898438-.992188 4.800781-.105469 3.140626 3.03125 8.128907 2.988281 11.214844-.097656 3.085938-3.085937 3.128906-8.074219.097656-11.214844-3.546874-3.757812-8.488281-5.886719-13.65625-5.886719-5.167968 0-10.109374 2.128907-13.65625 5.886719-3.0625 3.074219-3.085937 8.039063-.046874 11.136719 3.054687 3.125 8.042968 3.25 11.246093.28125zm0 0" fill="url(#o)"/><path d="m112 200c44.183594 0 80-35.816406 80-80s-35.816406-80-80-80-80 35.816406-80 80c.046875 44.164062 35.835938 79.953125 80 80zm0-144c35.347656 0 64 28.652344 64 64s-28.652344 64-64 64-64-28.652344-64-64c.039062-35.328125 28.671875-63.960938 64-64zm0 0" fill="url(#c)"/><path d="m112 168c4.417969 0 8-3.582031 8-8s-3.582031-8-8-8c-8.585938.339844-16.925781-2.921875-23-9-6.078125-6.074219-9.339844-14.414062-9-23 0-4.417969-3.582031-8-8-8s-8 3.582031-8 8c-.488281 12.875 4.414062 25.367188 13.523438 34.476562 9.109374 9.109376 21.601562 14.011719 34.476562 13.523438zm0 0" fill="url(#p)"/></svg>