<svg height="480pt" viewBox="0 0 480 480" width="480pt" xmlns="http://www.w3.org/2000/svg" xmlns:xlink="http://www.w3.org/1999/xlink"><linearGradient id="a"><stop offset="0" stop-color="#006df0"/><stop offset="1" stop-color="#00e7f0"/></linearGradient><linearGradient id="b" gradientUnits="userSpaceOnUse" x1="155.536" x2="179.688" xlink:href="#a" y1="513" y2="-16"/><linearGradient id="c" gradientUnits="userSpaceOnUse" x1="36.12" x2="60.264" xlink:href="#a" y1="507.552" y2="-21.448"/><linearGradient id="d" gradientUnits="userSpaceOnUse" x1="163.856" x2="188" xlink:href="#a" y1="513.384" y2="-15.624"/><linearGradient id="e" gradientUnits="userSpaceOnUse" x1="74.232" x2="98.376" xlink:href="#a" y1="509.296" y2="-19.712"/><linearGradient id="f" gradientUnits="userSpaceOnUse" x1="201.968" x2="226.112" xlink:href="#a" y1="515.12" y2="-13.88"/><linearGradient id="g" gradientUnits="userSpaceOnUse" x1="40.496" x2="64.64" xlink:href="#a" y1="507.752" y2="-21.248"/><linearGradient id="h" gradientUnits="userSpaceOnUse" x1="44.864" x2="69.008" xlink:href="#a" y1="507.952" y2="-21.048"/><linearGradient id="i" gradientUnits="userSpaceOnUse" x1="146.464" x2="170.608" xlink:href="#a" y1="512.592" y2="-16.416"/><linearGradient id="j" gradientUnits="userSpaceOnUse" x1="168.224" x2="192.368" xlink:href="#a" y1="513.584" y2="-15.424"/><linearGradient id="k" gradientUnits="userSpaceOnUse" x1="78.608" x2="102.752" xlink:href="#a" y1="509.496" y2="-19.512"/><linearGradient id="l" gradientUnits="userSpaceOnUse" x1="268.4" x2="292.544" xlink:href="#a" y1="518.152" y2="-10.848"/><linearGradient id="m" gradientUnits="userSpaceOnUse" x1="246.632" x2="270.784" xlink:href="#a" y1="517.16" y2="-11.84"/><linearGradient id="n" gradientUnits="userSpaceOnUse" x1="256.808" x2="280.952" xlink:href="#a" y1="517.624" y2="-11.376"/><linearGradient id="o" gradientUnits="userSpaceOnUse" x1="49.24" x2="73.384" xlink:href="#a" y1="508.152" y2="-20.856"/><linearGradient id="p" gradientUnits="userSpaceOnUse" x1="222.304" x2="246.448" xlink:href="#a" y1="516.048" y2="-12.952"/><linearGradient id="q" gradientUnits="userSpaceOnUse" x1="156.632" x2="180.776" xlink:href="#a" y1="513.056" y2="-15.952"/><linearGradient id="r" gradientUnits="userSpaceOnUse" x1="155.208" x2="179.352" xlink:href="#a" y1="512.992" y2="-16.016"/><linearGradient id="s" gradientUnits="userSpaceOnUse" x1="87.352" x2="111.496" xlink:href="#a" y1="509.888" y2="-19.112"/><linearGradient id="t" gradientUnits="userSpaceOnUse" x1="231.048" x2="255.192" xlink:href="#a" y1="516.448" y2="-12.552"/><linearGradient id="u" gradientUnits="userSpaceOnUse" x1="118.904" x2="143.048" xlink:href="#a" y1="511.328" y2="-17.672"/><linearGradient id="v" gradientUnits="userSpaceOnUse" x1="145.04" x2="169.184" xlink:href="#a" y1="512.528" y2="-16.48"/><linearGradient id="w" gradientUnits="userSpaceOnUse" x1="405.72" x2="429.872" xlink:href="#a" y1="524.424" y2="-4.584"/><path d="m336 480h-336v-480h336zm-320-16h304v-448h-304zm0 0" fill="url(#b)"/><path d="m48 64h16v16h-16zm0 0" fill="url(#c)"/><path d="m80 64h208v16h-208zm0 0" fill="url(#d)"/><path d="m48 112h88v16h-88zm0 0" fill="url(#e)"/><path d="m152 112h136v16h-136zm0 0" fill="url(#f)"/><path d="m48 160h16v16h-16zm0 0" fill="url(#g)"/><path d="m48 256h16v16h-16zm0 0" fill="url(#h)"/><path d="m152 208h16v16h-16zm0 0" fill="url(#i)"/><path d="m80 160h208v16h-208zm0 0" fill="url(#j)"/><path d="m48 208h88v16h-88zm0 0" fill="url(#k)"/><path d="m272 256h16v16h-16zm0 0" fill="url(#l)"/><path d="m224 304h64v16h-64zm0 0" fill="url(#m)"/><path d="m240 352h48v16h-48zm0 0" fill="url(#n)"/><path d="m48 352h16v16h-16zm0 0" fill="url(#o)"/><path d="m184 208h104v16h-104zm0 0" fill="url(#p)"/><path d="m80 256h176v16h-176zm0 0" fill="url(#q)"/><path d="m152 400h16v16h-16zm0 0" fill="url(#r)"/><path d="m48 400h88v16h-88zm0 0" fill="url(#s)"/><path d="m184 400h104v16h-104zm0 0" fill="url(#t)"/><path d="m48 304h160v16h-160zm0 0" fill="url(#u)"/><path d="m80 352h144v16h-144zm0 0" fill="url(#v)"/><path d="m448 96v-48h-16v-48h-48v48h-16v354.128906l32 56v21.871094h16v-21.871094l32-56v-290.128906h16v88h16v-104zm-48-80h16v32h-16zm-16 48h48v32h-48zm24 375.871094-22.785156-39.871094h45.601562zm24-55.871094h-48v-16h48zm0-32h-48v-16h48zm0-32h-48v-16h48zm0-32h-48v-16h48zm-48-32v-144h48v144zm0 0" fill="url(#w)"/></svg>