<svg height="539pt" viewBox="0 0 539.99786 539" width="539pt" xmlns="http://www.w3.org/2000/svg" xmlns:xlink="http://www.w3.org/1999/xlink"><linearGradient id="a"><stop offset="0" stop-color="#662d91"/><stop offset=".437" stop-color="#3873b3"/><stop offset="1" stop-color="#00c9dd"/></linearGradient><linearGradient id="b" gradientUnits="userSpaceOnUse" x1="-35.25264101" x2="423.99419597" xlink:href="#a" y1="194.7446849592" y2="653.9915219392"/><linearGradient id="c" gradientUnits="userSpaceOnUse" x1="-17.25256901" x2="441.9941679696" xlink:href="#a" y1="176.7446129592" y2="635.9915499396"/><linearGradient id="d" gradientUnits="userSpaceOnUse" x1="-75.7521030072" x2="383.4947339728" xlink:href="#a" y1="235.2441469564" y2="694.4909839364"/><linearGradient id="e" gradientUnits="userSpaceOnUse" x1="77.4440097748" x2="536.6818467188" xlink:href="#a" y1="82.0571342108" y2="541.2948711544"/><path d="m530.992188 486.492188h-521.992188c-4.96875 0-9 4.03125-9 9 0 4.972656 4.027344 9 9 9h18v27c0 4.972656 4.027344 9 9 9h36c4.96875 0 9-4.027344 9-9v-27h18v27c0 4.972656 4.027344 9 9 9h36c4.96875 0 9-4.027344 9-9v-27h18v27c0 4.972656 4.027344 9 9 9h35.996094c4.972656 0 9-4.027344 9-9v-27h18v27c0 4.972656 4.03125 9 9 9h36c4.972656 0 9-4.027344 9-9v-27h18v27c0 4.972656 4.03125 9 9 9h36c4.96875 0 9-4.027344 9-9v-27h18v27c0 4.972656 4.03125 9 9 9h36c4.96875 0 9-4.027344 9-9v-27h18v27c0 4.972656 4.027344 9 9 9h36c4.96875 0 9-4.027344 9-9v-27h18c4.96875 0 9-4.027344 9-9 0-4.96875-4.03125-9-9.003906-9zm-467.992188 36h-18v-18h18zm72 0h-18v-18h18zm71.996094 0h-18v-18h18zm72 0h-18v-18h18zm72 0h-18v-18h18zm72 0h-18v-18h18zm71.996094 0h-18v-18h18zm0 0" fill="url(#b)"/><path d="m224.996094 405.496094c4.972656 0 9-4.03125 9-9v-36c0-4.972656-4.027344-9-9-9h-80.996094c-4.972656 0-9 4.027344-9 9v36c0 4.96875 4.027344 9 9 9zm-71.996094-36h62.996094v18h-62.996094zm0 0" fill="url(#c)"/><path d="m108 405.496094c4.96875 0 9-4.03125 9-9v-36c0-4.972656-4.03125-9-9-9h-81c-4.96875 0-9 4.027344-9 9v36c0 4.96875 4.027344 9 9 9zm-72-36h63v18h-63zm0 0" fill="url(#d)"/><path d="m510.203125 391.03125-43.925781-10.988281c-2.371094-.601563-4.621094-1.59375-6.660156-2.945313l-35.027344-23.398437c-38.070313-25.335938-71.910156-38.203125-100.59375-38.203125h-258.648438l73.636719-81h50.011719c19.855468.054687 35.992187-15.996094 36.042968-35.847656.042969-14.710938-8.890624-27.964844-22.542968-33.449219l56.125-61.199219 7.199218 11.996094c7.351563 12.265625 23.25 16.253906 35.519532 8.90625 3.65625-2.191406 6.714844-5.25 8.90625-8.90625 1.3125-2.234375 3.65625-3.667969 6.242187-3.824219 2.589844-.222656 5.113281.886719 6.699219 2.941406l4.308594 5.398438c4.902344 6.148437 12.335937 9.726562 20.195312 9.722656.929688 0 1.855469-.050781 2.773438-.152344 8.789062-.902343 16.503906-6.25 20.429687-14.167969l2.160157-4.320312c1.9375-3.910156 6.675781-5.511719 10.585937-3.578125 1.234375.609375 2.289063 1.535156 3.058594 2.679687l3.6875 5.535157c7.933593 11.902343 24.015625 15.121093 35.917969 7.1875 3.753906-2.5 6.789062-5.9375 8.804687-9.96875l.945313-1.898438c1.933593-3.914062 6.675781-5.515625 10.585937-3.582031 1.234375.613281 2.289063 1.535156 3.054687 2.679688l3.691407 5.535156c7.933593 11.90625 24.015625 15.121094 35.917969 7.191406 3.753906-2.5 6.785156-5.9375 8.800781-9.972656l7.460937-14.929688 18.226563 24.425782c2.976562 3.980468 8.617187 4.792968 12.597656 1.816406 3.980469-2.980469 4.792969-8.621094 1.816406-12.597656-.003906-.007813-.007812-.011719-.011719-.019532l-83.699218-111.597656h-125.449219l-134.550781 146.769531c-5.894532-12.632812-18.554688-20.726562-32.5-20.773437-2.253906 0-4.507813.21875-6.722656.660156-11.007813-11.949219-26.53125-18.71875-42.773438-18.660156-23.675781.066406-44.996094 14.351562-54.054688 36.226562-24.726562 2.480469-42.761718 24.539063-40.28125 49.265625 2.3125 23.019531 21.699219 40.539063 44.835938 40.507813h51.648438l-73.636719 80.996094h-32.011719c-4.96875 0-9 4.03125-9 9 0 4.972656 4.027344 9.003906 9 9.003906h314.996094c21.582031 1.226562 42.59375 7.382812 61.425781 18h-124.425781c-4.96875 0-9 4.027344-9 9v35.996094c0 4.972656 4.03125 9 9 9h225c1.367187-.023438 2.714844-.363282 3.933594-.988282l15.917968 3.976563c11.429688 2.84375 18.386719 14.410156 15.546875 25.835937-2.367187 9.515625-10.914062 16.191406-20.71875 16.175782h-491.675781c-4.96875 0-9 4.03125-9 9 0 4.972656 4.027344 9 9 9h491.671875c21.71875-.011719 39.308594-17.628907 39.296875-39.34375-.011719-18.027344-12.277344-33.734376-29.765625-38.117188zm-173.257813-372.53125h108.550782l47.957031 63.941406-11.480469 22.980469c-1.9375 3.910156-6.675781 5.511719-10.589844 3.578125-1.234374-.613281-2.285156-1.535156-3.054687-2.679688l-3.691406-5.535156c-7.933594-11.902344-24.011719-15.121094-35.917969-7.1875-3.75 2.5-6.785156 5.9375-8.800781 9.96875l-.945313 1.898438c-1.933594 3.914062-6.675781 5.515625-10.585937 3.578125-1.234375-.609375-2.289063-1.535157-3.058594-2.675781l-3.6875-5.535157c-7.933594-11.90625-24.015625-15.125-35.917969-7.191406-3.753906 2.5-6.789062 5.9375-8.804687 9.96875l-2.160157 4.332031c-1.957031 3.902344-6.710937 5.480469-10.617187 3.519532-1.015625-.507813-1.910156-1.230469-2.621094-2.117188l-4.300781-5.398438c-8.925781-11.175781-25.21875-13-36.390625-4.074218-2.417969 1.929687-4.464844 4.273437-6.054687 6.925781-2.234376 3.742187-7.078126 4.964844-10.824219 2.730469-1.121094-.667969-2.058594-1.605469-2.730469-2.730469l-9.898438-16.570313zm-300.945312 170.996094c0-14.816406 11.9375-26.863282 26.757812-27 .285157 0 1.429688.164062 1.71875.171875 4.210938.296875 8.027344-2.480469 9.042969-6.578125 4.921875-17.464844 20.835938-29.542969 38.980469-29.59375 12.777344-.023438 24.808594 6.035156 32.398438 16.320312 2.429687 3.246094 6.730468 4.46875 10.503906 2.984375 9.25-3.640625 19.699218.902344 23.34375 10.152344.820312 2.085937 1.246094 4.304687 1.25 6.542969v9c0 4.96875 4.03125 9 9 9 9.941406 0 18 8.058594 18 18s-8.058594 18-18 18h-125.996094c-14.910156 0-27-12.085938-27-27zm233.996094 180h144c.460937-.054688.921875-.148438 1.367187-.28125l27.433594 18.28125h-172.800781zm0 0" fill="url(#e)"/></svg>