<?xml version="1.0" encoding="iso-8859-1"?>
<!-- Generator: Adobe Illustrator 19.0.0, SVG Export Plug-In . SVG Version: 6.00 Build 0)  -->
<svg version="1.1" id="Capa_1" xmlns="http://www.w3.org/2000/svg" xmlns:xlink="http://www.w3.org/1999/xlink" x="0px" y="0px"
	 viewBox="0 0 512 512" style="enable-background:new 0 0 512 512;" xml:space="preserve">
<linearGradient id="SVGID_1_" gradientUnits="userSpaceOnUse" x1="255.9998" y1="513.9994" x2="255.9998" y2="2.0037" gradientTransform="matrix(1 0 0 -1 0 514.0013)">
	<stop  offset="0" style="stop-color:#2AF598"/>
	<stop  offset="1" style="stop-color:#009EFD"/>
</linearGradient>
<path style="fill:url(#SVGID_1_);" d="M510.081,364.982c-8.276-31.989-41.048-51.313-72.952-43.103
	c-0.08,0.02-5.473,1.366-15.047,3.182c-1.104-1.572-2.281-3.1-3.541-4.568c-9.326-10.871-22.259-18.057-36.415-20.234l-32.145-4.946
	c0.378-17.625-6.885-34.794-20.298-46.778c-22.931-20.489-47.23-42.774-69.577-66.899c-11.472-12.385-27.204-19.284-43.481-19.626
	l-4.636-30.134c-2.178-14.156-9.364-27.088-20.234-36.415c-1.636-1.403-3.347-2.7-5.11-3.91c1.968-10.584,3.46-16.565,3.467-16.59
	c8.233-31.999-11.092-64.764-43.081-73.04C115-6.364,82.2,12.954,73.913,44.987c-0.502,1.943-4.569,18.039-8.597,44.281
	c-3.121,1.833-6.089,3.952-8.859,6.347c-10.898,9.425-18.046,22.469-20.126,36.728l-12.103,83.019
	c-17.279,13.062-26.877,34.881-23.587,57.55c4.413,30.394,13.848,59.684,28.044,87.056c13.83,26.667,31.864,50.928,53.6,72.111
	c21.713,21.159,46.563,38.705,73.864,52.149c27.971,13.775,57.89,22.925,88.925,27.196c2.79,0.384,5.584,0.574,8.365,0.574
	c12.308,0,24.349-3.721,34.598-10.798c5.512-3.807,10.289-8.448,14.211-13.709l79.41-11.576
	c14.259-2.079,27.303-9.226,36.729-20.125c2.547-2.945,4.773-6.119,6.683-9.457c24.86-3.906,40.062-7.748,41.953-8.236
	C499.049,429.811,518.365,397.012,510.081,364.982z M95.704,120.999h56.982c9.941,0,18.255,7.132,19.767,16.959l4.565,29.675
	c-36.67,6.644-73.386,16.42-109.665,29.199l8.56-58.717C77.336,128.358,85.843,120.999,95.704,120.999z M137.011,40.646
	c10.663,2.759,17.105,13.681,14.341,24.425c-0.091,0.36-1.51,6.013-3.423,15.929h-40.7c2.874-16.097,5.27-25.457,5.41-26
	C115.402,44.324,126.337,37.885,137.011,40.646z M274.118,454.34l-0.313,1.379c-2.421,10.66-12.43,17.574-23.276,16.08h-0.001
	c-108.499-14.932-194.978-99.08-210.3-204.632c-1.539-10.6,5.032-20.649,15.285-23.376l1.095-0.292l1.056-0.413
	c49.459-19.363,99.938-32.794,150.036-39.922l1.176-0.167l1.148-0.306c1.75-0.465,3.527-0.692,5.292-0.692
	c5.75,0,11.361,2.41,15.444,6.818c23.476,25.345,48.608,48.403,72.272,69.547c5.672,5.067,8.141,12.855,6.444,20.325l-0.289,1.27
	l-0.121,1.296c-5.062,54.075-16.65,105.135-34.444,151.764L274.118,454.34z M393.003,416.543c0,9.86-7.357,18.368-17.114,19.791
	l-55.777,8.131c11.516-34.633,19.977-71.249,25.273-109.388l30.659,4.717c9.827,1.512,16.959,9.825,16.959,19.767V416.543z
	 M457.009,399.37c-0.524,0.135-9.136,2.339-24.007,5.051v-40.73c8.68-1.714,13.622-2.954,14.006-3.051
	c10.665-2.744,21.589,3.697,24.347,14.358C474.117,385.676,467.678,396.61,457.009,399.37z M247.003,398.999
	c0,11.046-8.954,20-20,20s-20-8.954-20-20s8.954-20,20-20S247.003,387.954,247.003,398.999z M270.003,332.999
	c0,11.046-8.954,20-20,20c-11.046,0-20-8.954-20-20s8.954-20,20-20S270.003,321.954,270.003,332.999z"/>
<g>
</g>
<g>
</g>
<g>
</g>
<g>
</g>
<g>
</g>
<g>
</g>
<g>
</g>
<g>
</g>
<g>
</g>
<g>
</g>
<g>
</g>
<g>
</g>
<g>
</g>
<g>
</g>
<g>
</g>
</svg>
