<svg height="512pt" viewBox="-2 0 512 512.00102" width="512pt" xmlns="http://www.w3.org/2000/svg" xmlns:xlink="http://www.w3.org/1999/xlink"><linearGradient id="a"><stop offset="0" stop-color="#662d91"/><stop offset=".437" stop-color="#3873b3"/><stop offset="1" stop-color="#00c9dd"/></linearGradient><linearGradient id="b" gradientTransform="matrix(1.017735 0 0 -1.017735 -2.454266 521.08023)" gradientUnits="userSpaceOnUse" x1="20.782" x2="431.7997" xlink:href="#a" y1="394.7368" y2="-16.2891"/><linearGradient id="c" gradientTransform="matrix(1.017735 0 0 -1.017735 -2.454266 521.08023)" gradientUnits="userSpaceOnUse" x1="-37.7219" x2="373.2956" xlink:href="#a" y1="336.2245" y2="-74.7931"/><linearGradient id="d" gradientTransform="matrix(1.017735 0 0 -1.017735 -2.454266 521.08023)" gradientUnits="userSpaceOnUse" x1="53.6245" x2="464.6421" xlink:href="#a" y1="427.571" y2="16.5534"/><linearGradient id="e" gradientTransform="matrix(1.017735 0 0 -1.017735 -2.454266 521.08023)" gradientUnits="userSpaceOnUse" x1="73.521" x2="484.5386" xlink:href="#a" y1="447.4757" y2="36.4582"/><linearGradient id="f" gradientTransform="matrix(1.017735 0 0 -1.017735 -2.454266 521.08023)" gradientUnits="userSpaceOnUse" x1="70.233" x2="481.2505" xlink:href="#a" y1="444.1794" y2="33.1618"/><path d="m101.417969 380.316406c0 1.3125.304687 2.605469.886719 3.777344l33.808593 67.613281c1.429688 2.867188 4.359375 4.675781 7.5625 4.671875h8.933594l-32.714844 45.800782 13.757813 9.820312 15.585937-21.8125h208.617188l15.582031 21.8125 13.761719-9.820312-32.71875-45.800782h8.933593c3.21875.019532 6.167969-1.792968 7.609376-4.671875l33.804687-67.613281c.570313-1.175781.859375-2.46875.84375-3.777344v-42.257812c0-.089844-.042969-.183594-.042969-.285156-.023437-.667969-.125-1.332032-.304687-1.976563 0-.09375 0-.1875-.042969-.28125l-.042969-.125-50.664062-160.445313c-1.109375-3.519531-4.371094-5.914062-8.0625-5.914062h-185.933594c-3.691406 0-6.953125 2.394531-8.0625 5.914062l-50.65625 160.417969-.042969.128907v.277343c-.179687.644531-.28125 1.308594-.304687 1.976563 0 .101562-.042969.195312-.042969.289062zm16.90625-1.992187v-31.8125h84.511719v67.613281h-33.804688c-4.667969 0-8.453125 3.78125-8.453125 8.449219v16.902343h-11.679687zm267.175781-48.714844h-81.246094v-109.871094h44.617188zm-98.148438 0h-67.613281v-109.871094h67.613281zm42.257813 109.867187h-152.128906v-8.449218h152.128906zm-109.871094-25.351562v-67.613281h67.613281v67.613281zm-16.902343-84.515625h-81.242188l36.628906-109.871094h44.613282zm-41.53125 143.675781 12.078124-16.902344h160.324219l12.078125 16.902344zm196.921874-33.808594h-11.714843v-16.902343c0-4.664063-3.785157-8.449219-8.453125-8.449219h-33.804688v-67.613281h84.515625v31.8125zm-12.558593-236.640624h-41.414063v-16.902344h36.0625zm-58.316407-16.902344v16.902344h-67.613281v-16.902344zm-84.515624 0v16.902344h-41.410157l5.339844-16.902344zm0 0" fill="url(#b)"/><path d="m185.933594 380.316406c0-14.003906-11.351563-25.355468-25.355469-25.355468s-25.355469 11.351562-25.355469 25.355468 11.351563 25.355469 25.355469 25.355469 25.355469-11.351563 25.355469-25.355469zm-33.804688 0c0-4.667968 3.78125-8.449218 8.449219-8.449218s8.453125 3.78125 8.453125 8.449218c0 4.667969-3.785156 8.453125-8.453125 8.453125s-8.449219-3.785156-8.449219-8.453125zm0 0" fill="url(#c)"/><path d="m346.511719 354.960938c-14.003907 0-25.355469 11.351562-25.355469 25.355468s11.351562 25.355469 25.355469 25.355469c14.003906 0 25.355469-11.351563 25.355469-25.355469s-11.351563-25.355468-25.355469-25.355468zm0 33.808593c-4.667969 0-8.449219-3.785156-8.449219-8.453125 0-4.667968 3.78125-8.449218 8.449219-8.449218s8.453125 3.78125 8.453125 8.449218c0 4.667969-3.785156 8.453125-8.453125 8.453125zm0 0" fill="url(#d)"/><path d="m405.671875 422.574219v59.160156c0 4.667969 3.785156 8.453125 8.453125 8.453125h92.964844v-16.902344h-84.515625v-42.257812h84.515625v-16.902344h-92.964844c-4.667969 0-8.453125 3.78125-8.453125 8.449219zm0 0" fill="url(#e)"/><path d="m0 405.148438v101.941406h16.902344v-101.503906c10.601562-209.949219 178.308594-377.84375 388.246094-388.683594h101.941406v-16.902344h-102.390625c-218.890625 11.160156-393.78125 186.242188-404.699219 405.148438zm0 0" fill="url(#f)"/></svg>