<?xml version="1.0" encoding="utf-8"?>
<!-- Generator: Adobe Illustrator 19.0.0, SVG Export Plug-In . SVG Version: 6.00 Build 0)  -->
<svg xmlns="http://www.w3.org/2000/svg" xmlns:xlink="http://www.w3.org/1999/xlink" version="1.1" id="Layer_1" x="0px" y="0px" viewBox="0 2 98 98" style="enable-background:new 0 2 98 98;" xml:space="preserve" width="512" height="512">
<style type="text/css">
	.st0{fill:url(#SVGID_1_);}
</style>
<linearGradient id="SVGID_1_" gradientUnits="userSpaceOnUse" x1="49" y1="13.7998" x2="49" y2="88.2002">
	<stop offset="0" style="stop-color:#00EFD1"/>
	<stop offset="1" style="stop-color:#00ACEA"/>
</linearGradient>
<path class="st0" d="M91.3,82.2H6.9v-4.5c2,2.3,4.9,3.7,8.1,3.7c3.7,0,6.9-1.9,8.9-4.7c1.9,2.8,5.2,4.7,8.8,4.7  c4.9,0,9.1-3.3,10.4-7.8h3.2c1.3,4.5,5.5,7.8,10.4,7.8c3.7,0,6.9-1.8,8.9-4.6c2,2.8,5.2,4.6,8.8,4.6c4.9,0,9.1-3.3,10.4-7.8h0.8  c6.4,0,11.6-5.2,11.6-11.6c0-3.8-1.8-7.3-4.9-9.4L60.6,30.1c-2.8-2-6.2-3-9.6-3H6.9V16.8c0-1.7-1.3-3-3-3s-3,1.3-3,3v68.4  c0,1.7,1.3,3,3,3h87.4c1.7,0,3-1.3,3-3S93,82.2,91.3,82.2z M15,75.4c-1.5,0-2.8-0.7-3.7-1.8h7.4C17.8,74.7,16.5,75.4,15,75.4z   M32.7,75.4c-1.5,0-2.8-0.7-3.7-1.8h7.4C35.5,74.7,34.2,75.4,32.7,75.4z M56.6,75.4c-1.5,0-2.8-0.7-3.7-1.8h7.4  C59.4,74.7,58.1,75.4,56.6,75.4z M74.3,75.4c-1.5,0-2.8-0.7-3.7-1.8H78C77.1,74.7,75.8,75.4,74.3,75.4z M61,37.8l19.5,13.8H65.8  c-2.6,0-4.8-2.2-4.8-4.8V37.8z M51,33.1c1.4,0,2.7,0.3,4,0.8v12.9c0,6,4.8,10.8,10.8,10.8H89c1.4,1,2.1,2.6,2.1,4.4  c0,3.1-2.5,5.6-5.6,5.6H6.9V55.2H49c1.7,0,3-1.3,3-3V40.5c0-1.7-1.3-3-3-3H6.9v-4.4H51z M46,43.5v5.7h-5.8v-5.7H46z M34.2,49.2h-5.7  v-5.7h5.7V49.2z M22.5,49.2h-5.8v-5.7h5.8V49.2z M10.7,49.2H6.9v-5.7h3.8V49.2z"/>

</svg>
