<svg height="480pt" viewBox="0 -24 480 480" width="480pt" xmlns="http://www.w3.org/2000/svg" xmlns:xlink="http://www.w3.org/1999/xlink"><linearGradient id="a"><stop offset="0" stop-color="#7ed4ef"/><stop offset=".229" stop-color="#66bfe6"/><stop offset=".711" stop-color="#298bd0"/><stop offset="1" stop-color="#0169c2"/></linearGradient><linearGradient id="b" gradientUnits="userSpaceOnUse" x1="-16" x2="496.248" xlink:href="#a" y1="216" y2="216"/><linearGradient id="c" gradientUnits="userSpaceOnUse" x1="-16" x2="496.248" xlink:href="#a" y1="88" y2="88"/><linearGradient id="d" gradientUnits="userSpaceOnUse" x1="-16" x2="496.248" xlink:href="#a" y1="56" y2="56"/><linearGradient id="e" gradientUnits="userSpaceOnUse" x1="-16" x2="496.248" xlink:href="#a" y1="120" y2="120"/><path d="m456 144h-40v-120c0-13.253906-10.746094-24-24-24h-304c-13.253906 0-24 10.746094-24 24v120h-40c-13.253906 0-24 10.746094-24 24v224c.0273438 22.082031 17.917969 39.972656 40 40h400c22.082031-.027344 39.972656-17.917969 40-40v-224c0-13.253906-10.746094-24-24-24zm-376-120c0-4.417969 3.582031-8 8-8h304c4.417969 0 8 3.582031 8 8v120h-320zm376 136c2.824219 0 8 6.679688 8 17.601562v32.300782l-224 61.800781-224-61.800781v-32.300782c0-10.921874 5.175781-17.601562 8-17.601562zm-16 256h-400c-13.253906 0-24-10.746094-24-24v-165.496094l221.871094 61.207032c1.394531.386718 2.863281.386718 4.257812 0l221.871094-61.207032v165.496094c0 13.253906-10.746094 24-24 24zm0 0" fill="url(#b)"/><path d="m344 80h-208c-4.417969 0-8 3.582031-8 8s3.582031 8 8 8h208c4.417969 0 8-3.582031 8-8s-3.582031-8-8-8zm0 0" fill="url(#c)"/><path d="m344 48h-208c-4.417969 0-8 3.582031-8 8s3.582031 8 8 8h208c4.417969 0 8-3.582031 8-8s-3.582031-8-8-8zm0 0" fill="url(#d)"/><path d="m344 112h-208c-4.417969 0-8 3.582031-8 8s3.582031 8 8 8h208c4.417969 0 8-3.582031 8-8s-3.582031-8-8-8zm0 0" fill="url(#e)"/></svg>