<svg height="480pt" viewBox="-16 0 480 480.00638" width="480pt" xmlns="http://www.w3.org/2000/svg" xmlns:xlink="http://www.w3.org/1999/xlink"><linearGradient id="a"><stop offset="0" stop-color="#20d6de"/><stop offset="1" stop-color="#5e309d"/></linearGradient><linearGradient id="b" gradientUnits="userSpaceOnUse" x1="-31.996806" x2="460.179194" xlink:href="#a" y1="104.006375" y2="104.006375"/><linearGradient id="c" gradientUnits="userSpaceOnUse" x1="-31.996806" x2="460.179194" xlink:href="#a" y1="232.006375" y2="232.006375"/><linearGradient id="d" gradientUnits="userSpaceOnUse" x1="-31.996806" x2="460.179194" xlink:href="#a" y1="240.006375" y2="240.006375"/><linearGradient id="e" gradientUnits="userSpaceOnUse" x1="-31.996806" x2="460.179194" xlink:href="#a" y1="264.006375" y2="264.006375"/><path d="m218.796875 158.078125c2.992187 2.5625 7.40625 2.5625 10.398437 0l56-48c2.539063-2.175781 3.453126-5.703125 2.296876-8.839844s-4.144532-5.226562-7.488282-5.230469h-24v-40c0-4.417968-3.582031-8-8-8h-48c-4.417968 0-8 3.582032-8 8v40h-24c-3.347656 0-6.339844 2.082032-7.503906 5.222657-1.160156 3.136719-.246094 6.667969 2.296875 8.847656zm-18.792969-46.070313c4.417969 0 8-3.582031 8-8v-40h32v40c0 4.417969 3.582032 8 8 8h10.398438l-34.398438 29.460938-34.402344-29.460938zm0 0" fill="url(#b)"/><path d="m112.003906 224.007812h224v16h-224zm0 0" fill="url(#c)"/><path d="m448.003906 75.644531c.003906-3.496093-2.265625-6.589843-5.601562-7.636719l-216-67.632812c-1.558594-.5-3.238282-.5-4.800782 0l-216 67.632812c-3.335937 1.046876-5.601562 4.140626-5.59765575 7.636719v404.363281h447.99999975zm-432 5.875 208-65.128906 208 65.128906v176.445313l-32 9.136718v-83.09375c0-4.417968-3.582031-8-8-8h-336c-4.417968 0-8 3.582032-8 8v83.09375l-32-9.136718zm368 190.144531-160 45.65625-160-45.65625v-79.65625h320zm48 192.34375h-416v-189.402343l208 59.351562 208-59.351562zm0 0" fill="url(#d)"/><path d="m112.003906 256.007812h224v16h-224zm0 0" fill="url(#e)"/></svg>