<svg height="479pt" viewBox="-15 0 479 479.89467" width="479pt" xmlns="http://www.w3.org/2000/svg" xmlns:xlink="http://www.w3.org/1999/xlink"><linearGradient id="a"><stop offset="0" stop-color="#4761ac"/><stop offset="1" stop-color="#54c2ef"/></linearGradient><linearGradient id="b" gradientUnits="userSpaceOnUse" x1="-15.552665" x2="481.479335" xlink:href="#a" y1="239.95067" y2="239.95067"/><linearGradient id="c" gradientUnits="userSpaceOnUse" x1="-15.552665" x2="481.479335" xlink:href="#a" y1="127.89467" y2="127.89467"/><linearGradient id="d" gradientUnits="userSpaceOnUse" x1="-15.552665" x2="481.479335" xlink:href="#a" y1="95.89467" y2="95.89467"/><linearGradient id="e" gradientUnits="userSpaceOnUse" x1="-15.552665" x2="481.479335" xlink:href="#a" y1="159.89467" y2="159.89467"/><path d="m424.449219 200.863281v-152.96875c0-4.417969-3.582031-8-8-8h-150.195313l-36.039062-37.535156c-3.203125-3.144531-8.332032-3.144531-11.535156 0l-36.039063 37.535156h-150.191406c-4.421875 0-8 3.582031-8 8v152.96875c-15.152344 3.566407-24 17.542969-24 39.03125v200c.023437 22.082031 17.917969 39.972657 40 40h368c22.078125-.027343 39.972656-17.917969 40-40v-200c0-21.488281-8.851563-35.464843-24-39.03125zm-200-181.417969 19.628906 20.449219h-39.261719zm-184 36.449219h368v144c-1.972657 0-3.871094.726563-5.335938 2.039063l-146.402343 130.953125-26.648438-26.648438c-3.125-3.121093-8.1875-3.121093-11.3125 0l-26.648438 26.648438-146.316406-130.953125c-1.46875-1.3125-3.367187-2.039063-5.335937-2.039063zm-24 384v-200c0-15.574219 6.519531-23.054687 21.039062-23.910156l143.320313 128.230469-119.671875 119.679687h-20.6875c-13.257813 0-24-10.746093-24-24zm67.308593 24 140.691407-140.6875 140.6875 140.6875zm348.691407-24c0 13.253907-10.746094 24-24 24h-20.691407l-119.671874-119.679687 143.320312-128.230469c14.519531.855469 21.042969 8.335937 21.042969 23.910156zm0 0" fill="url(#b)"/><path d="m336.449219 183.894531c30.925781 0 56-25.070312 56-56 0-30.929687-25.074219-56-56-56-30.929688 0-56 25.070313-56 56 .035156 30.914063 25.085937 55.964844 56 56zm0-96c22.089843 0 40 17.910157 40 40 0 22.089844-17.910157 40-40 40-22.09375 0-40-17.910156-40-40 .023437-22.082031 17.917969-39.972656 40-40zm0 0" fill="url(#c)"/><path d="m72.449219 103.894531h168c4.417969 0 8-3.582031 8-8s-3.582031-8-8-8h-168c-4.421875 0-8 3.582031-8 8s3.578125 8 8 8zm0 0" fill="url(#d)"/><path d="m72.449219 135.894531h168c4.417969 0 8-3.582031 8-8s-3.582031-8-8-8h-168c-4.421875 0-8 3.582031-8 8s3.578125 8 8 8zm0 0" fill="url(#c)"/><path d="m72.449219 167.894531h104c4.417969 0 8-3.582031 8-8s-3.582031-8-8-8h-104c-4.421875 0-8 3.582031-8 8s3.578125 8 8 8zm0 0" fill="url(#e)"/></svg>