<svg height="480pt" viewBox="0 -88 480 480" width="480pt" xmlns="http://www.w3.org/2000/svg" xmlns:xlink="http://www.w3.org/1999/xlink"><linearGradient id="a"><stop offset="0" stop-color="#006df0"/><stop offset="1" stop-color="#00e7f0"/></linearGradient><linearGradient id="b" gradientUnits="userSpaceOnUse" x1="254.912" x2="226.152" xlink:href="#a" y1="324.144" y2="-7.928"/><linearGradient id="c" gradientUnits="userSpaceOnUse" x1="451.36" x2="422.592" xlink:href="#a" y1="307.128" y2="-24.936"/><linearGradient id="d" gradientUnits="userSpaceOnUse" x1="457.544" x2="428.784" xlink:href="#a" y1="306.592" y2="-25.472"/><path d="m0 0v304h480v-304zm16 16h448v4.078125l-201.335938 155.921875h-44.136718l-202.527344-155.9375zm0 24.257812 162.183594 124.878907-162.183594 100.464843zm448 247.742188h-448v-3.542969l175.734375-108.898437 21.34375 16.441406h55.050781l20.269532-15.695312 175.601562 108.167968zm0-22.328125-162.078125-99.839844 162.078125-125.519531zm0 0" fill="url(#b)"/><path d="m432 128h16v96h-16zm0 0" fill="url(#c)"/><path d="m432 96h16v16h-16zm0 0" fill="url(#d)"/></svg>