<svg height="480pt" viewBox="0 0 480 480" width="480pt" xmlns="http://www.w3.org/2000/svg" xmlns:xlink="http://www.w3.org/1999/xlink"><linearGradient id="a"><stop offset="0" stop-color="#4761ac"/><stop offset="1" stop-color="#54c2ef"/></linearGradient><linearGradient id="b" gradientUnits="userSpaceOnUse" x1="16" x2="489.688" xlink:href="#a" y1="111.996454" y2="111.996454"/><linearGradient id="c" gradientUnits="userSpaceOnUse" x1="16" x2="489.688" xlink:href="#a" y1="191.996454" y2="191.996454"/><linearGradient id="d" gradientUnits="userSpaceOnUse" x1="16" x2="489.688" xlink:href="#a" y1="255.996454" y2="255.996454"/><linearGradient id="e" gradientUnits="userSpaceOnUse" x1="16" x2="489.688" xlink:href="#a" y1="319.996454" y2="319.996454"/><linearGradient id="f" gradientUnits="userSpaceOnUse" x1="16" x2="489.688" xlink:href="#a" y1="383.996454" y2="383.996454"/><linearGradient id="g" gradientUnits="userSpaceOnUse" x1="16" x2="489.688" xlink:href="#a" y1="79.996454" y2="79.996454"/><linearGradient id="h" gradientUnits="userSpaceOnUse" x1="16" x2="489.688" xlink:href="#a" y1="399.996454" y2="399.996454"/><linearGradient id="i" gradientUnits="userSpaceOnUse" x1="16" x2="489.688" xlink:href="#a" y1="367.996454" y2="367.996454"/><linearGradient id="j" gradientUnits="userSpaceOnUse" x1="16" x2="489.688" xlink:href="#a" y1="239.996454" y2="239.996454"/><path d="m432 71.996094h-224c-4.417969 0-8 3.582031-8 8v64c0 4.417968 3.582031 8 8 8h224c4.417969 0 8-3.582032 8-8v-64c0-4.417969-3.582031-8-8-8zm-8 64h-208v-48h208zm0 0" fill="url(#b)"/><g fill="url(#c)"><path d="m224 167.996094c-13.253906 0-24 10.746094-24 24s10.746094 24 24 24 24-10.746094 24-24-10.746094-24-24-24zm0 32c-4.417969 0-8-3.582032-8-8 0-4.417969 3.582031-8 8-8s8 3.582031 8 8c0 4.417968-3.582031 8-8 8zm0 0"/><path d="m288 167.996094c-13.253906 0-24 10.746094-24 24s10.746094 24 24 24 24-10.746094 24-24-10.746094-24-24-24zm0 32c-4.417969 0-8-3.582032-8-8 0-4.417969 3.582031-8 8-8s8 3.582031 8 8c0 4.417968-3.582031 8-8 8zm0 0"/><path d="m352 167.996094c-13.253906 0-24 10.746094-24 24s10.746094 24 24 24 24-10.746094 24-24-10.746094-24-24-24zm0 32c-4.417969 0-8-3.582032-8-8 0-4.417969 3.582031-8 8-8s8 3.582031 8 8c0 4.417968-3.582031 8-8 8zm0 0"/><path d="m416 167.996094c-13.253906 0-24 10.746094-24 24s10.746094 24 24 24 24-10.746094 24-24-10.746094-24-24-24zm0 32c-4.417969 0-8-3.582032-8-8 0-4.417969 3.582031-8 8-8s8 3.582031 8 8c0 4.417968-3.582031 8-8 8zm0 0"/></g><path d="m224 231.996094c-13.253906 0-24 10.746094-24 24s10.746094 24 24 24 24-10.746094 24-24-10.746094-24-24-24zm0 32c-4.417969 0-8-3.582032-8-8 0-4.417969 3.582031-8 8-8s8 3.582031 8 8c0 4.417968-3.582031 8-8 8zm0 0" fill="url(#d)"/><path d="m288 231.996094c-13.253906 0-24 10.746094-24 24s10.746094 24 24 24 24-10.746094 24-24-10.746094-24-24-24zm0 32c-4.417969 0-8-3.582032-8-8 0-4.417969 3.582031-8 8-8s8 3.582031 8 8c0 4.417968-3.582031 8-8 8zm0 0" fill="url(#d)"/><path d="m352 231.996094c-13.253906 0-24 10.746094-24 24s10.746094 24 24 24 24-10.746094 24-24-10.746094-24-24-24zm0 32c-4.417969 0-8-3.582032-8-8 0-4.417969 3.582031-8 8-8s8 3.582031 8 8c0 4.417968-3.582031 8-8 8zm0 0" fill="url(#d)"/><path d="m416 231.996094c-13.253906 0-24 10.746094-24 24s10.746094 24 24 24 24-10.746094 24-24-10.746094-24-24-24zm0 32c-4.417969 0-8-3.582032-8-8 0-4.417969 3.582031-8 8-8s8 3.582031 8 8c0 4.417968-3.582031 8-8 8zm0 0" fill="url(#d)"/><path d="m224 295.996094c-13.253906 0-24 10.746094-24 24s10.746094 24 24 24 24-10.746094 24-24-10.746094-24-24-24zm0 32c-4.417969 0-8-3.582032-8-8 0-4.417969 3.582031-8 8-8s8 3.582031 8 8c0 4.417968-3.582031 8-8 8zm0 0" fill="url(#e)"/><path d="m288 295.996094c-13.253906 0-24 10.746094-24 24s10.746094 24 24 24 24-10.746094 24-24-10.746094-24-24-24zm0 32c-4.417969 0-8-3.582032-8-8 0-4.417969 3.582031-8 8-8s8 3.582031 8 8c0 4.417968-3.582031 8-8 8zm0 0" fill="url(#e)"/><path d="m352 295.996094c-13.253906 0-24 10.746094-24 24s10.746094 24 24 24 24-10.746094 24-24-10.746094-24-24-24zm0 32c-4.417969 0-8-3.582032-8-8 0-4.417969 3.582031-8 8-8s8 3.582031 8 8c0 4.417968-3.582031 8-8 8zm0 0" fill="url(#e)"/><path d="m416 295.996094c-13.253906 0-24 10.746094-24 24s10.746094 24 24 24 24-10.746094 24-24-10.746094-24-24-24zm0 32c-4.417969 0-8-3.582032-8-8 0-4.417969 3.582031-8 8-8s8 3.582031 8 8c0 4.417968-3.582031 8-8 8zm0 0" fill="url(#e)"/><path d="m224 359.996094c-13.253906 0-24 10.746094-24 24s10.746094 24 24 24 24-10.746094 24-24-10.746094-24-24-24zm0 32c-4.417969 0-8-3.582032-8-8 0-4.417969 3.582031-8 8-8s8 3.582031 8 8c0 4.417968-3.582031 8-8 8zm0 0" fill="url(#f)"/><path d="m288 359.996094c-13.253906 0-24 10.746094-24 24s10.746094 24 24 24 24-10.746094 24-24-10.746094-24-24-24zm0 32c-4.417969 0-8-3.582032-8-8 0-4.417969 3.582031-8 8-8s8 3.582031 8 8c0 4.417968-3.582031 8-8 8zm0 0" fill="url(#f)"/><path d="m352 359.996094c-13.253906 0-24 10.746094-24 24s10.746094 24 24 24 24-10.746094 24-24-10.746094-24-24-24zm0 32c-4.417969 0-8-3.582032-8-8 0-4.417969 3.582031-8 8-8s8 3.582031 8 8c0 4.417968-3.582031 8-8 8zm0 0" fill="url(#f)"/><path d="m416 359.996094c-13.253906 0-24 10.746094-24 24s10.746094 24 24 24 24-10.746094 24-24-10.746094-24-24-24zm0 32c-4.417969 0-8-3.582032-8-8 0-4.417969 3.582031-8 8-8s8 3.582031 8 8c0 4.417968-3.582031 8-8 8zm0 0" fill="url(#f)"/><path d="m136 71.996094h-64c-4.417969 0-8 3.582031-8 8 0 4.417968 3.582031 8 8 8h64c4.417969 0 8-3.582032 8-8 0-4.417969-3.582031-8-8-8zm0 0" fill="url(#g)"/><path d="m136 391.996094h-64c-4.417969 0-8 3.582031-8 8 0 4.417968 3.582031 8 8 8h64c4.417969 0 8-3.582032 8-8 0-4.417969-3.582031-8-8-8zm0 0" fill="url(#h)"/><path d="m72 375.996094h8c4.417969 0 8-3.582032 8-8 0-4.417969-3.582031-8-8-8h-8c-4.417969 0-8 3.582031-8 8 0 4.417968 3.582031 8 8 8zm0 0" fill="url(#i)"/><path d="m456 39.996094h-288.191406c-11.84375-24.460938-36.632813-39.996094-63.808594-39.996094s-51.964844 15.535156-63.808594 39.996094h-16.191406c-13.253906 0-24 10.746094-24 24v352c0 13.253906 10.746094 24 24 24h16.191406c11.84375 24.460937 36.632813 39.996094 63.808594 39.996094s51.964844-15.535157 63.808594-39.996094h288.191406c13.253906 0 24-10.746094 24-24v-352c0-13.253906-10.746094-24-24-24zm-432 384c-4.417969 0-8-3.582032-8-8v-352c0-4.417969 3.582031-8 8-8h10.296875c-1.503906 5.980468-2.273437 12.121094-2.296875 18.289062v331.421875c.023438 6.167969.792969 12.308594 2.296875 18.289063zm80 40c-31.539062-.683594-56.582031-26.746094-56-58.289063v-331.421875c-.582031-31.539062 24.460938-57.605468 56-58.289062 31.539062.683594 56.582031 26.75 56 58.289062v331.421875c.582031 31.542969-24.460938 57.605469-56 58.289063zm360-48c0 4.417968-3.582031 8-8 8h-282.296875c1.503906-5.980469 2.273437-12.121094 2.296875-18.289063v-331.421875c-.023438-6.167968-.792969-12.308594-2.296875-18.289062h282.296875c4.417969 0 8 3.582031 8 8zm0 0" fill="url(#j)"/></svg>