<svg height="469pt" viewBox="0 -5 469.9037 469" width="469pt" xmlns="http://www.w3.org/2000/svg" xmlns:xlink="http://www.w3.org/1999/xlink"><linearGradient id="a" gradientUnits="userSpaceOnUse" x1="234.952355" x2="234.952355" y1="-3.35626" y2="462.16474"><stop offset="0" stop-color="#00efd1"/><stop offset="1" stop-color="#00acea"/></linearGradient><g fill="url(#a)"><path d="m234.953125 213.839844c47.074219 0 85.234375-38.160156 85.234375-85.234375.003906-47.070313-38.15625-85.234375-85.230469-85.234375-47.074219-.003906-85.234375 38.15625-85.238281 85.230468.050781 47.050782 38.179688 85.183594 85.234375 85.238282zm0-154.46875c38.238281 0 69.234375 30.996094 69.234375 69.234375s-31 69.238281-69.238281 69.234375c-38.238281 0-69.234375-31-69.230469-69.238282.046875-38.21875 31.015625-69.1875 69.234375-69.230468zm0 0"/><path d="m469.761719 450.917969-43.910157-230.988281c-.722656-3.761719-4.03125-6.464844-7.859374-6.429688h-79.539063c34.261719-43.585938 37.550781-103.964844 8.230469-151.015625-29.324219-47.050781-84.976563-70.695313-139.199219-59.140625-54.21875 11.554688-95.394531 55.835938-102.984375 110.757812-3.730469 27.820313 1.371094 56.109376 14.585938 80.875.015624.035157.035156.148438.054687.179688 3.625 6.332031 7.601563 12.457031 11.910156 18.34375h-79.140625c-3.828125-.035156-7.132812 2.667969-7.859375 6.429688l-43.910156 231.027343c-.445313 2.347657.175781 4.769531 1.695313 6.613281 1.515624 1.84375 3.777343 2.917969 6.164062 2.929688h453.902344c2.390625-.019531 4.652344-1.101562 6.171875-2.953125 1.515625-1.851563 2.132812-4.277344 1.6875-6.628906zm-349.410157-334.652344c6.125-43.464844 36.285157-79.730469 77.902344-93.671875 41.617188-13.945312 87.539063-3.171875 118.613282 27.828125 21.742187 21.601563 33.90625 51.027344 33.761718 81.679687-.054687 30.859376-12.414062 60.425782-34.335937 82.148438l-81.628907 81.625-81.628906-81.625c-7.855468-7.984375-14.546875-17.035156-19.882812-26.882812-11.601563-21.777344-16.078125-46.648438-12.800782-71.101563zm-61.816406 113.234375h86.960938l83.511718 83.429688c3.144532 3.0625 8.15625 3.074218 11.3125.019531l83.507813-83.449219h87.542969l16.671875 88h-50.664063c-4.417968 0-8.425781 3.15625-8.425781 7.574219v119.425781h-108v-46c0-4.417969-3.582031-8-8-8h-82v-38c0-4.417969-3.582031-8-8-8h-126.300781zm-24.925781 131h121.34375v38c0 4.417969 3.582031 8 8 8h82v38h-227.289063zm351.34375 84v-111h46.128906l21.160157 111zm0 0"/></g></svg>